<svg xmlns="http://www.w3.org/2000/svg" viewBox="0 0 221.34 70" role="img" aria-label="Zarparia">
  <path d="M30.98 40.77L32.74 40.77L31.62 52L0.40 52L0.40 50.57L21.89 20.90L14.60 20.90Q12.38 20.90 11.39 21.03Q10.41 21.16 9.54 21.55Q8.53 21.93 7.31 23.54Q6.09 25.14 4.05 28.89L2.16 28.89L3.19 18.74L32.11 18.74L32.11 20.17L10.62 49.84L18.98 49.84Q22.92 49.84 24.34 49.53Q25.76 49.21 26.41 48.39Q27.75 46.77 28.89 44.84Q30.02 42.91 30.98 40.77M61.24 49.80L61.24 51.51Q60.21 51.95 58.80 52.33Q57.40 52.70 55.83 52.70Q52.95 52.70 51.59 51.85Q50.23 50.99 49.73 49.40L49.59 49.40Q48.80 50.20 48.06 50.76Q47.32 51.32 46.48 51.72Q45.38 52.23 44.36 52.48Q43.34 52.73 41.51 52.73Q38.79 52.73 36.87 51.12Q34.95 49.52 34.95 46.87Q34.95 45.34 35.37 44.28Q35.79 43.21 36.56 42.39Q37.27 41.64 38.19 41.15Q39.12 40.66 40.22 40.23Q42.33 39.46 45.28 38.63Q48.23 37.80 49.59 37.14L49.59 34.89Q49.59 34.30 49.50 33.34Q49.41 32.38 49.10 31.73Q48.77 30.98 48.07 30.46Q47.37 29.95 46.22 29.95Q45.19 29.95 44.50 30.24Q43.80 30.53 43.38 30.84Q43.45 31.30 43.78 32.27Q44.11 33.23 44.11 34.12Q44.11 34.52 43.90 35.11Q43.69 35.71 43.29 36.06Q42.75 36.53 42.08 36.79Q41.41 37.05 40.03 37.05Q38.06 37.05 37.05 36.10Q36.05 35.15 36.05 33.63Q36.05 32.31 37.09 31.27Q38.13 30.23 39.63 29.55Q41.11 28.84 43.03 28.46Q44.95 28.07 46.59 28.07Q48.87 28.07 50.77 28.34Q52.66 28.61 54.19 29.45Q55.64 30.27 56.50 31.83Q57.35 33.39 57.35 35.90Q57.35 38.55 57.25 42.18Q57.14 45.81 57.14 46.96Q57.14 48.02 57.46 48.63Q57.77 49.23 58.43 49.54Q58.83 49.73 59.68 49.76Q60.54 49.80 61.24 49.80M49.50 47.24L49.59 39.30Q48.28 39.74 46.99 40.32Q45.70 40.89 44.88 41.52Q44.02 42.18 43.52 43.20Q43.03 44.22 43.03 45.60Q43.03 47.43 43.86 48.25Q44.70 49.07 45.91 49.07Q47.20 49.07 48.04 48.54Q48.87 48.02 49.50 47.24M86.39 33.04Q86.39 34.82 85.29 36.17Q84.19 37.52 82.38 37.52Q80.67 37.52 79.49 36.65Q78.30 35.78 78.30 34.09Q78.30 33.27 78.42 32.82Q78.54 32.36 78.63 31.96Q77.55 32.01 76.36 32.71Q75.16 33.41 74.25 34.59L74.25 47.45Q74.25 48.27 74.51 48.81Q74.77 49.35 75.38 49.66Q75.89 49.91 77.05 50.09Q78.21 50.27 78.73 50.29L78.73 52L63.05 52L63.05 50.29Q63.63 50.24 64.23 50.16Q64.83 50.08 65.25 49.94Q66 49.68 66.28 49.14Q66.56 48.60 66.56 47.73L66.56 34.09Q66.56 33.25 66.16 32.58Q65.77 31.91 65.20 31.52Q64.78 31.23 64.14 31.05Q63.49 30.86 62.72 30.79L62.72 29.08L73.90 28.47L74.25 28.82L74.25 32.22L74.34 32.22Q75.96 30.34 77.78 29.28Q79.59 28.21 81.56 28.21Q83.74 28.21 85.07 29.56Q86.39 30.91 86.39 33.04M116.55 40.59Q116.55 45.53 113.25 49.07Q109.95 52.61 104.88 52.61Q102.63 52.61 101.23 52.15Q99.82 51.70 98.91 51.04L98.72 51.04L98.72 57.63Q98.72 58.45 99.08 59.05Q99.45 59.66 100.10 59.95Q100.73 60.20 101.89 60.41Q103.05 60.63 103.83 60.67L103.83 62.41L86.91 62.41L86.91 60.67Q87.49 60.63 88.38 60.50Q89.27 60.37 89.72 60.23Q90.47 59.97 90.74 59.35Q91.01 58.73 91.01 57.93L91.01 33.95Q90.94 33.18 90.64 32.59Q90.35 32.01 89.72 31.56Q89.25 31.26 88.48 31.06Q87.70 30.86 86.95 30.79L86.95 29.08L98.37 28.47L98.72 28.77L98.72 31.38L98.91 31.42Q100.45 29.85 102.34 28.98Q104.23 28.12 106.08 28.12Q110.93 28.12 113.74 31.55Q116.55 34.98 116.55 40.59M108.14 40.68Q108.14 38.92 107.88 37.32Q107.63 35.71 106.97 34.45Q106.34 33.18 105.29 32.43Q104.25 31.68 102.75 31.68Q101.23 31.68 100.31 32.21Q99.40 32.73 98.72 33.58L98.72 46.87Q98.86 47.34 99.26 48.07Q99.66 48.81 100.05 49.26Q100.64 49.89 101.39 50.20Q102.14 50.50 103.03 50.50Q105.35 50.50 106.75 48Q108.14 45.51 108.14 40.68M146.37 49.80L146.37 51.51Q145.34 51.95 143.93 52.33Q142.52 52.70 140.95 52.70Q138.07 52.70 136.71 51.85Q135.35 50.99 134.86 49.40L134.72 49.40Q133.92 50.20 133.18 50.76Q132.45 51.32 131.60 51.72Q130.50 52.23 129.48 52.48Q128.46 52.73 126.63 52.73Q123.91 52.73 121.99 51.12Q120.07 49.52 120.07 46.87Q120.07 45.34 120.49 44.28Q120.91 43.21 121.69 42.39Q122.39 41.64 123.32 41.15Q124.24 40.66 125.34 40.23Q127.45 39.46 130.41 38.63Q133.36 37.80 134.72 37.14L134.72 34.89Q134.72 34.30 134.63 33.34Q134.53 32.38 134.23 31.73Q133.90 30.98 133.20 30.46Q132.49 29.95 131.34 29.95Q130.31 29.95 129.62 30.24Q128.93 30.53 128.51 30.84Q128.58 31.30 128.91 32.27Q129.23 33.23 129.23 34.12Q129.23 34.52 129.02 35.11Q128.81 35.71 128.41 36.06Q127.88 36.53 127.21 36.79Q126.54 37.05 125.16 37.05Q123.19 37.05 122.18 36.10Q121.17 35.15 121.17 33.63Q121.17 32.31 122.21 31.27Q123.26 30.23 124.76 29.55Q126.23 28.84 128.16 28.46Q130.08 28.07 131.72 28.07Q133.99 28.07 135.89 28.34Q137.79 28.61 139.31 29.45Q140.77 30.27 141.62 31.83Q142.48 33.39 142.48 35.90Q142.48 38.55 142.37 42.18Q142.27 45.81 142.27 46.96Q142.27 48.02 142.58 48.63Q142.90 49.23 143.55 49.54Q143.95 49.73 144.81 49.76Q145.66 49.80 146.37 49.80M134.63 47.24L134.72 39.30Q133.41 39.74 132.12 40.32Q130.83 40.89 130.01 41.52Q129.14 42.18 128.65 43.20Q128.16 44.22 128.16 45.60Q128.16 47.43 128.99 48.25Q129.82 49.07 131.04 49.07Q132.33 49.07 133.16 48.54Q133.99 48.02 134.63 47.24M171.52 33.04Q171.52 34.82 170.41 36.17Q169.31 37.52 167.51 37.52Q165.80 37.52 164.61 36.65Q163.43 35.78 163.43 34.09Q163.43 33.27 163.55 32.82Q163.66 32.36 163.76 31.96Q162.68 32.01 161.48 32.71Q160.29 33.41 159.38 34.59L159.38 47.45Q159.38 48.27 159.63 48.81Q159.89 49.35 160.50 49.66Q161.02 49.91 162.18 50.09Q163.34 50.27 163.85 50.29L163.85 52L148.17 52L148.17 50.29Q148.76 50.24 149.36 50.16Q149.95 50.08 150.38 49.94Q151.13 49.68 151.41 49.14Q151.69 48.60 151.69 47.73L151.69 34.09Q151.69 33.25 151.29 32.58Q150.89 31.91 150.33 31.52Q149.91 31.23 149.26 31.05Q148.62 30.86 147.84 30.79L147.84 29.08L159.02 28.47L159.38 28.82L159.38 32.22L159.47 32.22Q161.09 30.34 162.90 29.28Q164.72 28.21 166.69 28.21Q168.87 28.21 170.19 29.56Q171.52 30.91 171.52 33.04M187.95 50.29L187.95 52L173.13 52L173.13 50.29Q173.74 50.24 174.33 50.17Q174.91 50.10 175.34 49.94Q176.09 49.66 176.39 49.13Q176.70 48.60 176.70 47.73L176.70 34.09Q176.70 33.27 176.32 32.65Q175.95 32.03 175.38 31.66Q174.96 31.38 174.11 31.12Q173.25 30.86 172.55 30.79L172.55 29.08L184.03 28.47L184.38 28.82L184.38 47.43Q184.38 48.25 184.73 48.82Q185.09 49.40 185.74 49.68Q186.21 49.89 186.77 50.05Q187.34 50.22 187.95 50.29M216.89 49.80L216.89 51.51Q215.86 51.95 214.45 52.33Q213.05 52.70 211.48 52.70Q208.59 52.70 207.23 51.85Q205.88 50.99 205.38 49.40L205.24 49.40Q204.45 50.20 203.71 50.76Q202.97 51.32 202.13 51.72Q201.02 52.23 200 52.48Q198.98 52.73 197.16 52.73Q194.44 52.73 192.52 51.12Q190.59 49.52 190.59 46.87Q190.59 45.34 191.02 44.28Q191.44 43.21 192.21 42.39Q192.91 41.64 193.84 41.15Q194.77 40.66 195.87 40.23Q197.98 39.46 200.93 38.63Q203.88 37.80 205.24 37.14L205.24 34.89Q205.24 34.30 205.15 33.34Q205.05 32.38 204.75 31.73Q204.42 30.98 203.72 30.46Q203.02 29.95 201.87 29.95Q200.84 29.95 200.14 30.24Q199.45 30.53 199.03 30.84Q199.10 31.30 199.43 32.27Q199.76 33.23 199.76 34.12Q199.76 34.52 199.55 35.11Q199.34 35.71 198.94 36.06Q198.40 36.53 197.73 36.79Q197.06 37.05 195.68 37.05Q193.71 37.05 192.70 36.10Q191.70 35.15 191.70 33.63Q191.70 32.31 192.74 31.27Q193.78 30.23 195.28 29.55Q196.76 28.84 198.68 28.46Q200.60 28.07 202.24 28.07Q204.52 28.07 206.41 28.34Q208.31 28.61 209.84 29.45Q211.29 30.27 212.14 31.83Q213 33.39 213 35.90Q213 38.55 212.89 42.18Q212.79 45.81 212.79 46.96Q212.79 48.02 213.11 48.63Q213.42 49.23 214.08 49.54Q214.48 49.73 215.33 49.76Q216.19 49.80 216.89 49.80M205.15 47.24L205.24 39.30Q203.93 39.74 202.64 40.32Q201.35 40.89 200.53 41.52Q199.66 42.18 199.17 43.20Q198.68 44.22 198.68 45.60Q198.68 47.43 199.51 48.25Q200.34 49.07 201.56 49.07Q202.85 49.07 203.68 48.54Q204.52 48.02 205.15 47.24" fill="#1A2332"/>
  <g transform="translate(113.52 -30.28) scale(0.1)"><path d="M662.5 448.8C664.45 453.16 665.69 457.84 667.22 462.36C669.23 468.3 671.42 474.17 673.42 480.11C674.21 482.47 675.91 489.64 677.29 491.22C679.16 493.36 686.6 494.95 689.5 496.01C699.6 499.72 709.91 502.92 720.06 506.5C719.72 506.83 719.64 507.4 719.26 507.68C717.09 509.29 711.42 510.37 708.68 511.27C701.5 513.64 694.43 516.31 687.25 518.67C684.96 519.43 679.31 520.57 677.71 522.13C675.71 524.09 674.32 530.99 673.38 533.83C671.47 539.53 669.36 545.16 667.43 550.86C665.83 555.61 664.52 560.52 662.5 565.1C660.78 562.17 659.86 558.91 658.74 555.71C656.13 548.29 653.8 540.78 651.18 533.37C650.24 530.71 648.56 523.53 646.55 521.91C644.67 520.38 639.41 519.33 636.95 518.52C630.01 516.23 623.17 513.64 616.22 511.37C613.37 510.44 607.95 509.42 605.62 507.77C605.17 507.44 604.96 506.86 604.54 506.5C614.49 502.83 624.65 499.79 634.62 496.17C637.21 495.23 645.42 493.12 647 491.47C648.78 489.62 650.19 483.21 651.14 480.58C653.8 473.19 656.07 465.65 658.69 458.25C659.83 455.02 660.76 451.74 662.5 448.8Z" fill="#C4A572"/></g>
</svg>
