<svg xmlns="http://www.w3.org/2000/svg" viewBox="12 6 396.84 90" role="img" aria-label="Zarparia — Chart your journey">
  <g transform="translate(-2.92 -15.83) scale(0.11)"><path d="M214.57 255.4C220.49 254.92 226.56 255.28 232.5 255.28C243.17 255.28 253.83 255.28 264.5 255.28C296.83 255.28 329.17 255.28 361.5 255.28C459.5 255.28 557.5 255.28 655.5 255.28C691.83 255.28 728.17 255.28 764.5 255.28C770.5 255.28 776.5 255.28 782.5 255.28C792.01 255.28 801.53 254.76 809.25 261.25C818.82 269.3 818.3 279 818.3 290.5C818.3 299.5 818.3 308.5 818.3 317.5C818.3 367.83 818.3 418.17 818.3 468.5C818.3 509.5 818.3 550.5 818.3 591.5C818.3 615.09 819.39 638.99 817.12 662.5C815.51 679.08 812 695.17 807.59 711.2C801.26 734.2 790.62 756.45 778.37 776.84C745.36 831.74 697.74 875.45 646.33 912.87C633.3 922.35 619.61 930.78 606.18 939.65C585.87 953.05 564.33 965.04 542.75 976.28C536.17 979.71 529.65 983.21 523.01 986.52C519.68 988.17 516.41 990.18 512.89 991.43C502.9 994.97 494.83 990.87 486.05 986.47C481.17 984.04 476.34 981.58 471.54 979C455.98 970.62 440.42 962.29 425.17 953.35C410.57 944.8 396.43 935.5 382.28 926.23C368.68 917.32 355.65 907.63 342.73 897.77C278.07 848.37 217.41 780.43 198.35 699.29C194.8 684.21 192.34 668.96 191.23 653.5C189.74 632.63 190.73 611.41 190.73 590.5C190.73 546.83 190.73 503.17 190.73 459.5C190.73 407.83 190.73 356.17 190.73 304.5C190.73 287.91 186.84 265.32 205.98 257.49C208.71 256.36 211.62 255.64 214.57 255.4ZM213.7 268.35C208.1 269.42 204.5 274.08 203.72 279.5C203.15 283.42 203.49 287.55 203.49 291.5C203.49 298.83 203.49 306.17 203.49 313.5C203.49 361.83 203.49 410.17 203.49 458.5C203.49 503.83 203.49 549.17 203.49 594.5C203.49 629.32 202.21 664.46 211.2 698.44C235.07 788.74 304.13 856.07 378.37 908.09C409 929.55 441.27 948.76 474.39 966.12C480.97 969.57 487.53 973.05 494.19 976.34C499.62 979.03 504.22 981.23 510.22 978.69C518.61 975.14 526.61 970.39 534.66 966.17C551.8 957.18 568.57 947.57 585.17 937.64C643.62 902.68 700.97 859.69 743.09 805.62C765.88 776.37 785.54 743.12 795.56 707.15C799.89 691.61 803.32 675.57 804.69 659.49C806.61 636.93 805.78 614.12 805.78 591.5C805.78 550.5 805.78 509.5 805.78 468.5C805.78 419.83 805.78 371.17 805.78 322.5C805.78 310.83 805.78 299.17 805.78 287.5C805.78 281.6 806.15 275.45 801.29 271.18C797.4 267.77 792.35 268.02 787.5 268.02C778.83 268.02 770.17 268.02 761.5 268.02C726.17 268.02 690.83 268.02 655.5 268.02C555.83 268.02 456.17 268.02 356.5 268.02C324.5 268.02 292.5 268.02 260.5 268.02C250.17 268.02 239.83 268.02 229.5 268.02C224.37 268.02 218.75 267.38 213.7 268.35ZM229.5 293.51C412.83 293.51 596.17 293.51 779.5 293.51C780.84 300.55 780.07 308.3 780.07 315.5C780.07 328.17 780.07 340.83 780.07 353.5C780.07 393.5 780.07 433.5 780.07 473.5C780.07 514.5 780.07 555.5 780.07 596.5C780.07 628.15 781.29 659.34 773.71 690.34C754.15 770.24 692.29 831.46 628.16 878.64C599.55 899.69 569.17 918.52 537.95 935.46C530.15 939.69 522.35 943.93 514.45 947.96C512.14 949.14 506.88 952.74 504.51 952.72C502.17 952.69 496.87 949.09 494.59 947.92C486.68 943.9 478.9 939.64 471.1 935.42C439.94 918.54 409.27 899.83 380.88 878.6C369.1 869.78 357.3 861.01 346.1 851.44C293.53 806.54 247.24 749.75 233.21 680.44C227.56 652.53 228.98 623.82 228.98 595.5C228.98 555.17 228.98 514.83 228.98 474.5C228.98 434.17 228.98 393.83 228.98 353.5C228.98 340.83 228.98 328.17 228.98 315.5C228.98 308.28 228.26 300.6 229.5 293.51ZM665.46 324.03C567.99 324.03 470.52 324.03 373.05 324.03C369.2 360.77 365.35 397.52 361.5 434.26C367.83 434.26 374.17 434.26 380.5 434.26C383.93 426.66 387.21 419.07 391.29 411.76C399.4 397.22 409.68 383.69 421.08 371.58C429.48 362.65 439.94 353.07 451.96 349.49C462.52 346.35 474.56 346.2 485.5 346.02C501.49 345.76 517.5 345.93 533.5 345.93C545.83 345.93 558.17 345.93 570.5 345.93C577.06 345.93 584.5 345 590.84 346.5C584 355.68 577.79 365.4 571.4 374.89C557.86 394.95 544.12 414.91 530.36 434.82C489.6 493.81 449.46 553.23 408.86 612.33C393.38 634.86 377.61 657.22 362.49 679.99C358.51 685.98 354.3 691.81 350.34 697.81C348.98 699.86 346.67 702.18 345.98 704.55C345.17 707.32 345.58 710.64 345.54 713.5C350.59 714.87 356.2 714.3 361.5 714.3C370.83 714.3 380.17 714.3 389.5 714.3C411.83 714.3 434.17 714.3 456.5 714.3C468.28 714.3 480.29 713.65 492.03 714.5C492.03 746.69 492.03 778.88 492.03 811.07C471.57 811.38 445.55 804.52 426.53 796.92C419.29 794.03 409.78 791.34 404.37 785.5C410.94 778.5 417.5 771.5 424.07 764.5C423.72 764.18 423.63 763.6 423.24 763.33C421.88 762.39 419.35 762.12 417.77 761.64C412.69 760.1 407.58 758.58 402.53 756.93C384.72 751.12 366.57 746.3 348.67 740.75C343.32 739.09 337.98 737.41 332.62 735.79C329.73 734.92 327.34 733.79 324.46 734.5C336.45 766.83 348.44 799.17 360.43 831.5C367.79 823.98 375.14 816.46 382.5 808.93C385.31 810.76 387.7 813.24 390.57 814.99C402.98 822.53 422.65 829.79 436.69 833.68C445.26 836.06 454 838.01 462.73 839.65C465.47 840.17 469.76 839.86 472.18 841.36C473.6 842.24 474.38 844.96 475.1 846.4C477.42 851.07 479.84 855.69 482.13 860.38C490.41 877.37 498.89 894.3 507.5 911.13C511.3 906.44 513.43 900.07 516.18 894.67C522.02 883.18 527.92 871.68 533.56 860.08C535.73 855.6 538.01 851.17 540.24 846.72C541.07 845.08 541.91 842.01 543.28 840.79C545.13 839.16 549.02 839.17 551.36 838.71C558.4 837.31 565.49 835.73 572.4 833.78C583.81 830.56 595.21 826.41 606 821.48C611.66 818.89 617.03 815.65 622.5 812.83C629.5 820.3 636.5 827.77 643.5 835.25C656.18 803 668.86 770.75 681.54 738.5C648.18 747.5 614.81 756.5 581.45 765.5C587.94 773.17 594.43 780.83 600.92 788.5C595.1 793.16 586.66 795.63 579.72 798.25C567.67 802.81 555.3 805.93 542.64 808.32C536.39 809.5 529.75 810.99 523.41 810.5C523.41 778.5 523.41 746.5 523.41 714.5C534.7 713.79 546.18 714.3 557.5 714.3C577.83 714.3 598.17 714.3 618.5 714.3C627.17 714.3 635.83 714.3 644.5 714.3C649.41 714.3 654.63 714.85 659.27 713.5C660.72 704.59 661.28 695.48 662.24 686.5C664 670.19 665.52 653.84 667.29 637.53C668.27 628.53 669.21 619.51 670.25 610.51C670.93 604.59 672.35 598.32 671.52 592.44C665.5 592.44 659.48 592.44 653.46 592.44C649.22 599.22 646.56 607.2 642.81 614.31C633.73 631.5 623.21 648.3 610.68 663.2C605.91 668.88 599.98 676.18 593.91 680.42C589.47 683.52 583.92 685.02 578.74 686.34C567.87 689.11 556.65 690.18 545.5 691.14C521.55 693.2 497.52 692.73 473.5 692.7C456.14 692.67 438.58 693.4 421.25 692.5C421.94 688.51 425.02 685.23 427.41 681.88C431.02 676.8 434.4 671.53 437.96 666.41C451.22 647.31 464.02 627.89 477.37 608.86C490.04 590.8 502.2 572.38 514.66 554.18C536.86 521.72 559.2 489.34 581.39 456.87C590.31 443.82 598.99 430.58 608.09 417.65C622.04 397.84 635.22 377.5 649.15 357.69C652.87 352.39 656.39 346.95 660.11 341.65C661.8 339.24 664.61 336.4 665.3 333.49C666 330.57 665.49 327.02 665.46 324.03ZM662.5 448.8C660.76 451.74 659.83 455.02 658.69 458.25C656.07 465.65 653.8 473.19 651.14 480.58C650.19 483.21 648.78 489.62 647 491.47C645.42 493.12 637.21 495.23 634.62 496.17C624.65 499.79 614.49 502.83 604.54 506.5C604.96 506.86 605.17 507.44 605.62 507.77C607.95 509.42 613.37 510.44 616.22 511.37C623.17 513.64 630.01 516.23 636.95 518.52C639.41 519.33 644.67 520.38 646.55 521.91C648.56 523.53 650.24 530.71 651.18 533.37C653.8 540.78 656.13 548.29 658.74 555.71C659.86 558.91 660.78 562.17 662.5 565.1C664.52 560.52 665.83 555.61 667.43 550.86C669.36 545.16 671.47 539.53 673.38 533.83C674.32 530.99 675.71 524.09 677.71 522.13C679.31 520.57 684.96 519.43 687.25 518.67C694.43 516.31 701.5 513.64 708.68 511.27C711.42 510.37 717.09 509.29 719.26 507.68C719.64 507.4 719.72 506.83 720.06 506.5C709.91 502.92 699.6 499.72 689.5 496.01C686.6 494.95 679.16 493.36 677.29 491.22C675.91 489.64 674.21 482.47 673.42 480.11C671.42 474.17 669.23 468.3 667.22 462.36C665.69 457.84 664.45 453.16 662.5 448.8Z" fill="#1a2332" fill-rule="evenodd"/><path d="M213.7 268.35C218.75 267.38 224.37 268.02 229.5 268.02C239.83 268.02 250.17 268.02 260.5 268.02C292.5 268.02 324.5 268.02 356.5 268.02C456.17 268.02 555.83 268.02 655.5 268.02C690.83 268.02 726.17 268.02 761.5 268.02C770.17 268.02 778.83 268.02 787.5 268.02C792.35 268.02 797.4 267.77 801.29 271.18C806.15 275.45 805.78 281.6 805.78 287.5C805.78 299.17 805.78 310.83 805.78 322.5C805.78 371.17 805.78 419.83 805.78 468.5C805.78 509.5 805.78 550.5 805.78 591.5C805.78 614.12 806.61 636.93 804.69 659.49C803.32 675.57 799.89 691.61 795.56 707.15C785.54 743.12 765.88 776.37 743.09 805.62C700.97 859.69 643.62 902.68 585.17 937.64C568.57 947.57 551.8 957.18 534.66 966.17C526.61 970.39 518.61 975.14 510.22 978.69C504.22 981.23 499.62 979.03 494.19 976.34C487.53 973.05 480.97 969.57 474.39 966.12C441.27 948.76 409 929.55 378.37 908.09C304.13 856.07 235.07 788.74 211.2 698.44C202.21 664.46 203.49 629.32 203.49 594.5C203.49 549.17 203.49 503.83 203.49 458.5C203.49 410.17 203.49 361.83 203.49 313.5C203.49 306.17 203.49 298.83 203.49 291.5C203.49 287.55 203.15 283.42 203.72 279.5C204.5 274.08 208.1 269.42 213.7 268.35ZM229.5 293.51C228.26 300.6 228.98 308.28 228.98 315.5C228.98 328.17 228.98 340.83 228.98 353.5C228.98 393.83 228.98 434.17 228.98 474.5C228.98 514.83 228.98 555.17 228.98 595.5C228.98 623.82 227.56 652.53 233.21 680.44C247.24 749.75 293.53 806.54 346.1 851.44C357.3 861.01 369.1 869.78 380.88 878.6C409.27 899.83 439.94 918.54 471.1 935.42C478.9 939.64 486.68 943.9 494.59 947.92C496.87 949.09 502.17 952.69 504.51 952.72C506.88 952.74 512.14 949.14 514.45 947.96C522.35 943.93 530.15 939.69 537.95 935.46C569.17 918.52 599.55 899.69 628.16 878.64C692.29 831.46 754.15 770.24 773.71 690.34C781.29 659.34 780.07 628.15 780.07 596.5C780.07 555.5 780.07 514.5 780.07 473.5C780.07 433.5 780.07 393.5 780.07 353.5C780.07 340.83 780.07 328.17 780.07 315.5C780.07 308.3 780.84 300.55 779.5 293.51C596.17 293.51 412.83 293.51 229.5 293.51ZM665.46 324.03C665.49 327.02 666 330.57 665.3 333.49C664.61 336.4 661.8 339.24 660.11 341.65C656.39 346.95 652.87 352.39 649.15 357.69C635.22 377.5 622.04 397.84 608.09 417.65C598.99 430.58 590.31 443.82 581.39 456.87C559.2 489.34 536.86 521.72 514.66 554.18C502.2 572.38 490.04 590.8 477.37 608.86C464.02 627.89 451.22 647.31 437.96 666.41C434.4 671.53 431.02 676.8 427.41 681.88C425.02 685.23 421.94 688.51 421.25 692.5C438.58 693.4 456.14 692.67 473.5 692.7C497.52 692.73 521.55 693.2 545.5 691.14C556.65 690.18 567.87 689.11 578.74 686.34C583.92 685.02 589.47 683.52 593.91 680.42C599.98 676.18 605.91 668.88 610.68 663.2C623.21 648.3 633.73 631.5 642.81 614.31C646.56 607.2 649.22 599.22 653.46 592.44C659.48 592.44 665.5 592.44 671.52 592.44C672.35 598.32 670.93 604.59 670.25 610.51C669.21 619.51 668.27 628.53 667.29 637.53C665.52 653.84 664 670.19 662.24 686.5C661.28 695.48 660.72 704.59 659.27 713.5C654.63 714.85 649.41 714.3 644.5 714.3C635.83 714.3 627.17 714.3 618.5 714.3C598.17 714.3 577.83 714.3 557.5 714.3C546.18 714.3 534.7 713.79 523.41 714.5C523.41 746.5 523.41 778.5 523.41 810.5C529.75 810.99 536.39 809.5 542.64 808.32C555.3 805.93 567.67 802.81 579.72 798.25C586.66 795.63 595.1 793.16 600.92 788.5C594.43 780.83 587.94 773.17 581.45 765.5C614.81 756.5 648.18 747.5 681.54 738.5C668.86 770.75 656.18 803 643.5 835.25C636.5 827.77 629.5 820.3 622.5 812.83C617.03 815.65 611.66 818.89 606 821.48C595.21 826.41 583.81 830.56 572.4 833.78C565.49 835.73 558.4 837.31 551.36 838.71C549.02 839.17 545.13 839.16 543.28 840.79C541.91 842.01 541.07 845.08 540.24 846.72C538.01 851.17 535.73 855.6 533.56 860.08C527.92 871.68 522.02 883.18 516.18 894.67C513.43 900.07 511.3 906.44 507.5 911.13C498.89 894.3 490.41 877.37 482.13 860.38C479.84 855.69 477.42 851.07 475.1 846.4C474.38 844.96 473.6 842.24 472.18 841.36C469.76 839.86 465.47 840.17 462.73 839.65C454 838.01 445.26 836.06 436.69 833.68C422.65 829.79 402.98 822.53 390.57 814.99C387.7 813.24 385.31 810.76 382.5 808.93C375.14 816.46 367.79 823.98 360.43 831.5C348.44 799.17 336.45 766.83 324.46 734.5C327.34 733.79 329.73 734.92 332.62 735.79C337.98 737.41 343.32 739.09 348.67 740.75C366.57 746.3 384.72 751.12 402.53 756.93C407.58 758.58 412.69 760.1 417.77 761.64C419.35 762.12 421.88 762.39 423.24 763.33C423.63 763.6 423.72 764.18 424.07 764.5C417.5 771.5 410.94 778.5 404.37 785.5C409.78 791.34 419.29 794.03 426.53 796.92C445.55 804.52 471.57 811.38 492.03 811.07C492.03 778.88 492.03 746.69 492.03 714.5C480.29 713.65 468.28 714.3 456.5 714.3C434.17 714.3 411.83 714.3 389.5 714.3C380.17 714.3 370.83 714.3 361.5 714.3C356.2 714.3 350.59 714.87 345.54 713.5C345.58 710.64 345.17 707.32 345.98 704.55C346.67 702.18 348.98 699.86 350.34 697.81C354.3 691.81 358.51 685.98 362.49 679.99C377.61 657.22 393.38 634.86 408.86 612.33C449.46 553.23 489.6 493.81 530.36 434.82C544.12 414.91 557.86 394.95 571.4 374.89C577.79 365.4 584 355.68 590.84 346.5C584.5 345 577.06 345.93 570.5 345.93C558.17 345.93 545.83 345.93 533.5 345.93C517.5 345.93 501.49 345.76 485.5 346.02C474.56 346.2 462.52 346.35 451.96 349.49C439.94 353.07 429.48 362.65 421.08 371.58C409.68 383.69 399.4 397.22 391.29 411.76C387.21 419.07 383.93 426.66 380.5 434.26C374.17 434.26 367.83 434.26 361.5 434.26C365.35 397.52 369.2 360.77 373.05 324.03C470.52 324.03 567.99 324.03 665.46 324.03ZM662.5 448.8C664.45 453.16 665.69 457.84 667.22 462.36C669.23 468.3 671.42 474.17 673.42 480.11C674.21 482.47 675.91 489.64 677.29 491.22C679.16 493.36 686.6 494.95 689.5 496.01C699.6 499.72 709.91 502.92 720.06 506.5C719.72 506.83 719.64 507.4 719.26 507.68C717.09 509.29 711.42 510.37 708.68 511.27C701.5 513.64 694.43 516.31 687.25 518.67C684.96 519.43 679.31 520.57 677.71 522.13C675.71 524.09 674.32 530.99 673.38 533.83C671.47 539.53 669.36 545.16 667.43 550.86C665.83 555.61 664.52 560.52 662.5 565.1C660.78 562.17 659.86 558.91 658.74 555.71C656.13 548.29 653.8 540.78 651.18 533.37C650.24 530.71 648.56 523.53 646.55 521.91C644.67 520.38 639.41 519.33 636.95 518.52C630.01 516.23 623.17 513.64 616.22 511.37C613.37 510.44 607.95 509.42 605.62 507.77C605.17 507.44 604.96 506.86 604.54 506.5C614.49 502.83 624.65 499.79 634.62 496.17C637.21 495.23 645.42 493.12 647 491.47C648.78 489.62 650.19 483.21 651.14 480.58C653.8 473.19 656.07 465.65 658.69 458.25C659.83 455.02 660.76 451.74 662.5 448.8Z" fill="#c1a374" fill-rule="evenodd"/></g>
  <path d="M144.60 40.56L147.02 40.56L145.47 56L102.55 56L102.55 54.03L132.10 13.24L122.08 13.24Q119.02 13.24 117.66 13.41Q116.31 13.59 115.12 14.14Q113.73 14.65 112.05 16.86Q110.38 19.07 107.58 24.22L104.96 24.22L106.38 10.27L146.15 10.27L146.15 12.24L116.60 53.04L128.10 53.04Q133.52 53.04 135.47 52.60Q137.42 52.17 138.32 51.04Q140.16 48.81 141.72 46.15Q143.28 43.50 144.60 40.56M186.21 52.97L186.21 55.32Q184.79 55.94 182.86 56.45Q180.92 56.97 178.76 56.97Q174.80 56.97 172.93 55.79Q171.06 54.61 170.38 52.42L170.19 52.42Q169.10 53.52 168.08 54.29Q167.07 55.07 165.91 55.61Q164.39 56.32 162.99 56.66Q161.59 57 159.07 57Q155.33 57 152.69 54.79Q150.05 52.58 150.05 48.94Q150.05 46.85 150.63 45.38Q151.21 43.92 152.27 42.79Q153.24 41.76 154.51 41.08Q155.79 40.40 157.30 39.82Q160.20 38.76 164.26 37.61Q168.32 36.47 170.19 35.57L170.19 32.47Q170.19 31.67 170.06 30.35Q169.93 29.03 169.51 28.12Q169.06 27.09 168.10 26.38Q167.13 25.67 165.55 25.67Q164.13 25.67 163.18 26.08Q162.23 26.48 161.65 26.90Q161.75 27.54 162.20 28.87Q162.65 30.19 162.65 31.41Q162.65 31.96 162.36 32.78Q162.07 33.60 161.52 34.09Q160.78 34.73 159.86 35.08Q158.94 35.44 157.04 35.44Q154.34 35.44 152.95 34.13Q151.56 32.83 151.56 30.73Q151.56 28.93 153 27.50Q154.43 26.06 156.50 25.13Q158.53 24.16 161.17 23.63Q163.81 23.10 166.07 23.10Q169.19 23.10 171.80 23.47Q174.41 23.84 176.51 25Q178.51 26.13 179.68 28.27Q180.86 30.41 180.86 33.86Q180.86 37.50 180.71 42.50Q180.57 47.49 180.57 49.07Q180.57 50.52 181 51.36Q181.44 52.20 182.34 52.62Q182.89 52.87 184.06 52.92Q185.24 52.97 186.21 52.97M170.06 49.46L170.19 38.53Q168.39 39.15 166.61 39.94Q164.84 40.72 163.71 41.59Q162.52 42.50 161.84 43.90Q161.17 45.30 161.17 47.20Q161.17 49.72 162.31 50.84Q163.46 51.97 165.13 51.97Q166.90 51.97 168.05 51.25Q169.19 50.52 170.06 49.46M220.79 29.93Q220.79 32.38 219.27 34.23Q217.76 36.08 215.28 36.08Q212.92 36.08 211.30 34.89Q209.67 33.70 209.67 31.38Q209.67 30.25 209.83 29.62Q209.99 28.99 210.12 28.45Q208.64 28.51 206.99 29.48Q205.35 30.44 204.09 32.06L204.09 49.75Q204.09 50.88 204.45 51.62Q204.80 52.36 205.64 52.78Q206.35 53.13 207.94 53.37Q209.54 53.62 210.25 53.65L210.25 56L188.69 56L188.69 53.65Q189.50 53.58 190.32 53.47Q191.14 53.36 191.72 53.16Q192.75 52.81 193.14 52.07Q193.52 51.33 193.52 50.13L193.52 31.38Q193.52 30.22 192.98 29.30Q192.43 28.38 191.65 27.83Q191.07 27.45 190.19 27.19Q189.30 26.93 188.24 26.83L188.24 24.48L203.61 23.64L204.09 24.13L204.09 28.80L204.22 28.80Q206.45 26.22 208.94 24.76Q211.44 23.29 214.15 23.29Q217.15 23.29 218.97 25.14Q220.79 27 220.79 29.93M262.26 40.31Q262.26 47.11 257.72 51.97Q253.17 56.84 246.21 56.84Q243.12 56.84 241.19 56.21Q239.25 55.58 238 54.68L237.74 54.68L237.74 63.73Q237.74 64.86 238.24 65.70Q238.74 66.54 239.64 66.92Q240.51 67.28 242.10 67.57Q243.70 67.86 244.76 67.92L244.76 70.31L221.50 70.31L221.50 67.92Q222.30 67.86 223.53 67.68Q224.75 67.50 225.36 67.31Q226.39 66.96 226.77 66.10Q227.14 65.25 227.14 64.15L227.14 31.19Q227.04 30.12 226.64 29.32Q226.23 28.51 225.36 27.90Q224.72 27.48 223.66 27.21Q222.59 26.93 221.56 26.83L221.56 24.48L237.25 23.64L237.74 24.06L237.74 27.64L238 27.71Q240.12 25.55 242.72 24.35Q245.31 23.16 247.86 23.16Q254.53 23.16 258.40 27.88Q262.26 32.60 262.26 40.31M250.69 40.43Q250.69 38.02 250.34 35.81Q249.98 33.60 249.08 31.86Q248.21 30.12 246.78 29.09Q245.34 28.06 243.28 28.06Q241.19 28.06 239.93 28.78Q238.67 29.51 237.74 30.67L237.74 48.94Q237.93 49.59 238.48 50.60Q239.03 51.62 239.58 52.23Q240.38 53.10 241.41 53.52Q242.44 53.94 243.67 53.94Q246.86 53.94 248.78 50.51Q250.69 47.07 250.69 40.43M303.25 52.97L303.25 55.32Q301.84 55.94 299.90 56.45Q297.97 56.97 295.81 56.97Q291.85 56.97 289.98 55.79Q288.11 54.61 287.43 52.42L287.24 52.42Q286.14 53.52 285.13 54.29Q284.11 55.07 282.95 55.61Q281.44 56.32 280.04 56.66Q278.63 57 276.12 57Q272.38 57 269.74 54.79Q267.10 52.58 267.10 48.94Q267.10 46.85 267.68 45.38Q268.26 43.92 269.32 42.79Q270.29 41.76 271.56 41.08Q272.83 40.40 274.35 39.82Q277.25 38.76 281.31 37.61Q285.37 36.47 287.24 35.57L287.24 32.47Q287.24 31.67 287.11 30.35Q286.98 29.03 286.56 28.12Q286.11 27.09 285.14 26.38Q284.18 25.67 282.60 25.67Q281.18 25.67 280.23 26.08Q279.28 26.48 278.70 26.90Q278.79 27.54 279.25 28.87Q279.70 30.19 279.70 31.41Q279.70 31.96 279.41 32.78Q279.12 33.60 278.57 34.09Q277.83 34.73 276.91 35.08Q275.99 35.44 274.09 35.44Q271.38 35.44 270 34.13Q268.61 32.83 268.61 30.73Q268.61 28.93 270.05 27.50Q271.48 26.06 273.54 25.13Q275.57 24.16 278.21 23.63Q280.86 23.10 283.11 23.10Q286.24 23.10 288.85 23.47Q291.46 23.84 293.55 25Q295.55 26.13 296.73 28.27Q297.91 30.41 297.91 33.86Q297.91 37.50 297.76 42.50Q297.62 47.49 297.62 49.07Q297.62 50.52 298.05 51.36Q298.49 52.20 299.39 52.62Q299.94 52.87 301.11 52.92Q302.29 52.97 303.25 52.97M287.11 49.46L287.24 38.53Q285.43 39.15 283.66 39.94Q281.89 40.72 280.76 41.59Q279.57 42.50 278.89 43.90Q278.21 45.30 278.21 47.20Q278.21 49.72 279.36 50.84Q280.50 51.97 282.18 51.97Q283.95 51.97 285.10 51.25Q286.24 50.52 287.11 49.46M337.83 29.93Q337.83 32.38 336.32 34.23Q334.80 36.08 332.32 36.08Q329.97 36.08 328.34 34.89Q326.72 33.70 326.72 31.38Q326.72 30.25 326.88 29.62Q327.04 28.99 327.17 28.45Q325.68 28.51 324.04 29.48Q322.40 30.44 321.14 32.06L321.14 49.75Q321.14 50.88 321.50 51.62Q321.85 52.36 322.69 52.78Q323.40 53.13 324.99 53.37Q326.59 53.62 327.30 53.65L327.30 56L305.74 56L305.74 53.65Q306.54 53.58 307.36 53.47Q308.19 53.36 308.77 53.16Q309.80 52.81 310.18 52.07Q310.57 51.33 310.57 50.13L310.57 31.38Q310.57 30.22 310.02 29.30Q309.47 28.38 308.70 27.83Q308.12 27.45 307.23 27.19Q306.35 26.93 305.29 26.83L305.29 24.48L320.66 23.64L321.14 24.13L321.14 28.80L321.27 28.80Q323.49 26.22 325.99 24.76Q328.49 23.29 331.20 23.29Q334.19 23.29 336.01 25.14Q337.83 27 337.83 29.93M360.42 53.65L360.42 56L340.06 56L340.06 53.65Q340.90 53.58 341.70 53.49Q342.51 53.39 343.09 53.16Q344.12 52.78 344.54 52.05Q344.96 51.33 344.96 50.13L344.96 31.38Q344.96 30.25 344.44 29.40Q343.92 28.54 343.15 28.03Q342.57 27.64 341.40 27.29Q340.22 26.93 339.25 26.83L339.25 24.48L355.04 23.64L355.53 24.13L355.53 49.72Q355.53 50.84 356.01 51.63Q356.49 52.42 357.40 52.81Q358.04 53.10 358.81 53.33Q359.59 53.55 360.42 53.65M400.22 52.97L400.22 55.32Q398.81 55.94 396.87 56.45Q394.94 56.97 392.78 56.97Q388.82 56.97 386.95 55.79Q385.08 54.61 384.40 52.42L384.21 52.42Q383.11 53.52 382.10 54.29Q381.08 55.07 379.92 55.61Q378.41 56.32 377.01 56.66Q375.60 57 373.09 57Q369.35 57 366.71 54.79Q364.07 52.58 364.07 48.94Q364.07 46.85 364.65 45.38Q365.23 43.92 366.29 42.79Q367.26 41.76 368.53 41.08Q369.80 40.40 371.32 39.82Q374.22 38.76 378.28 37.61Q382.34 36.47 384.21 35.57L384.21 32.47Q384.21 31.67 384.08 30.35Q383.95 29.03 383.53 28.12Q383.08 27.09 382.11 26.38Q381.15 25.67 379.57 25.67Q378.15 25.67 377.20 26.08Q376.25 26.48 375.67 26.90Q375.76 27.54 376.22 28.87Q376.67 30.19 376.67 31.41Q376.67 31.96 376.38 32.78Q376.09 33.60 375.54 34.09Q374.80 34.73 373.88 35.08Q372.96 35.44 371.06 35.44Q368.35 35.44 366.97 34.13Q365.58 32.83 365.58 30.73Q365.58 28.93 367.02 27.50Q368.45 26.06 370.51 25.13Q372.54 24.16 375.18 23.63Q377.83 23.10 380.08 23.10Q383.21 23.10 385.82 23.47Q388.43 23.84 390.52 25Q392.52 26.13 393.70 28.27Q394.88 30.41 394.88 33.86Q394.88 37.50 394.73 42.50Q394.58 47.49 394.58 49.07Q394.58 50.52 395.02 51.36Q395.46 52.20 396.36 52.62Q396.91 52.87 398.08 52.92Q399.26 52.97 400.22 52.97M384.08 49.46L384.21 38.53Q382.40 39.15 380.63 39.94Q378.86 40.72 377.73 41.59Q376.54 42.50 375.86 43.90Q375.18 45.30 375.18 47.20Q375.18 49.72 376.33 50.84Q377.47 51.97 379.15 51.97Q380.92 51.97 382.06 51.25Q383.21 50.52 384.08 49.46" fill="#1a2332"/>
  <g transform="translate(258.12 -57.11) scale(0.14)"><path d="M662.5 448.8C664.45 453.16 665.69 457.84 667.22 462.36C669.23 468.3 671.42 474.17 673.42 480.11C674.21 482.47 675.91 489.64 677.29 491.22C679.16 493.36 686.6 494.95 689.5 496.01C699.6 499.72 709.91 502.92 720.06 506.5C719.72 506.83 719.64 507.4 719.26 507.68C717.09 509.29 711.42 510.37 708.68 511.27C701.5 513.64 694.43 516.31 687.25 518.67C684.96 519.43 679.31 520.57 677.71 522.13C675.71 524.09 674.32 530.99 673.38 533.83C671.47 539.53 669.36 545.16 667.43 550.86C665.83 555.61 664.52 560.52 662.5 565.1C660.78 562.17 659.86 558.91 658.74 555.71C656.13 548.29 653.8 540.78 651.18 533.37C650.24 530.71 648.56 523.53 646.55 521.91C644.67 520.38 639.41 519.33 636.95 518.52C630.01 516.23 623.17 513.64 616.22 511.37C613.37 510.44 607.95 509.42 605.62 507.77C605.17 507.44 604.96 506.86 604.54 506.5C614.49 502.83 624.65 499.79 634.62 496.17C637.21 495.23 645.42 493.12 647 491.47C648.78 489.62 650.19 483.21 651.14 480.58C653.8 473.19 656.07 465.65 658.69 458.25C659.83 455.02 660.76 451.74 662.5 448.8Z" fill="#c1a374"/></g>
  <path d="M136.55 84.48Q134.69 84.48 132.99 83.75Q131.28 83.02 129.96 81.64Q128.66 80.26 127.88 78.28Q127.10 76.29 127.10 73.80Q127.10 71.31 127.87 69.29Q128.63 67.26 129.98 65.79Q131.31 64.34 133.13 63.55Q134.94 62.76 137.01 62.76Q138.54 62.76 139.79 63.14Q141.04 63.52 142.16 64.21L142.76 63.21L143.94 63.21L144.07 70.63L142.87 70.63Q142.63 69.54 142.16 68.27Q141.69 67.01 141.06 66.13Q140.36 65.13 139.39 64.57Q138.43 64 137.18 64Q135.76 64 134.54 64.63Q133.32 65.26 132.42 66.50Q131.57 67.68 131.09 69.51Q130.61 71.34 130.61 73.60Q130.61 75.59 131.11 77.25Q131.62 78.92 132.55 80.18Q133.49 81.42 134.77 82.13Q136.05 82.83 137.64 82.83Q138.82 82.83 139.82 82.45Q140.82 82.08 141.55 81.47Q142.28 80.82 142.84 80Q143.39 79.18 143.75 78.21L144.84 78.74Q143.58 81.83 141.50 83.16Q139.42 84.48 136.55 84.48M161.97 83.03L161.97 84L154.88 84L154.88 83.03Q155.21 83 155.63 82.97Q156.04 82.95 156.30 82.86Q156.71 82.73 156.91 82.40Q157.10 82.07 157.10 81.54L157.10 74.11Q157.10 72.57 156.38 71.74Q155.65 70.90 154.61 70.90Q153.85 70.90 153.20 71.15Q152.55 71.39 152.04 71.74Q151.54 72.11 151.27 72.47Q151.01 72.84 150.86 73.09L150.86 81.39Q150.86 81.89 151.06 82.21Q151.26 82.54 151.67 82.71Q151.99 82.86 152.34 82.93Q152.68 83 153.09 83.03L153.09 84L146 84L146 83.03Q146.34 83 146.70 82.97Q147.07 82.93 147.32 82.86Q147.73 82.73 147.93 82.40Q148.14 82.07 148.14 81.54L148.14 64.72Q148.14 64.22 147.91 63.73Q147.69 63.23 147.32 62.98Q147.06 62.79 146.39 62.71Q145.72 62.63 145.31 62.60L145.31 61.66L150.66 61.32L150.86 61.54L150.86 71.62L150.92 71.62Q151.41 71.14 151.80 70.77Q152.20 70.39 152.84 69.98Q153.40 69.63 154.15 69.40Q154.91 69.16 155.84 69.16Q157.78 69.16 158.82 70.38Q159.86 71.61 159.86 73.91L159.86 81.42Q159.86 81.93 160.04 82.25Q160.22 82.56 160.65 82.74Q160.99 82.87 161.26 82.94Q161.53 83 161.97 83.03M177.42 82.80L177.42 83.74Q176.73 83.99 176.21 84.14Q175.69 84.29 175.03 84.29Q173.89 84.29 173.21 83.76Q172.53 83.22 172.34 82.20L172.25 82.20Q171.30 83.25 170.21 83.81Q169.12 84.37 167.58 84.37Q165.95 84.37 164.90 83.37Q163.86 82.37 163.86 80.76Q163.86 79.93 164.09 79.27Q164.33 78.61 164.79 78.08Q165.16 77.64 165.76 77.30Q166.36 76.95 166.89 76.75Q167.55 76.50 169.56 75.83Q171.58 75.15 172.28 74.77L172.28 73.32Q172.28 73.13 172.20 72.59Q172.12 72.05 171.86 71.56Q171.56 71.02 171.03 70.62Q170.49 70.22 169.51 70.22Q168.84 70.22 168.26 70.44Q167.68 70.67 167.45 70.92Q167.45 71.21 167.59 71.78Q167.72 72.35 167.72 72.84Q167.72 73.35 167.26 73.78Q166.80 74.20 165.98 74.20Q165.25 74.20 164.90 73.68Q164.56 73.16 164.56 72.52Q164.56 71.84 165.04 71.23Q165.51 70.61 166.27 70.13Q166.93 69.72 167.87 69.43Q168.81 69.15 169.70 69.15Q170.93 69.15 171.85 69.31Q172.76 69.48 173.51 70.04Q174.26 70.58 174.65 71.51Q175.03 72.44 175.03 73.91Q175.03 76 174.99 77.62Q174.95 79.24 174.95 81.16Q174.95 81.73 175.14 82.07Q175.34 82.40 175.75 82.64Q175.97 82.77 176.45 82.78Q176.92 82.80 177.42 82.80M172.22 81.06L172.31 76Q171.06 76.37 170.13 76.72Q169.19 77.07 168.38 77.60Q167.65 78.10 167.23 78.78Q166.80 79.46 166.80 80.40Q166.80 81.61 167.44 82.18Q168.08 82.75 169.06 82.75Q170.10 82.75 170.89 82.25Q171.68 81.74 172.22 81.06M189.92 71.42Q189.92 72.16 189.55 72.74Q189.18 73.32 188.42 73.32Q187.60 73.32 187.17 72.90Q186.74 72.47 186.74 71.96Q186.74 71.64 186.79 71.37Q186.84 71.11 186.88 70.85Q186.20 70.85 185.27 71.40Q184.35 71.96 183.71 72.98L183.71 81.39Q183.71 81.91 183.90 82.23Q184.10 82.55 184.53 82.71Q184.89 82.86 185.47 82.93Q186.05 83 186.47 83.03L186.47 84L178.86 84L178.86 83.03Q179.19 83 179.55 82.97Q179.91 82.95 180.18 82.86Q180.59 82.73 180.78 82.40Q180.98 82.07 180.98 81.54L180.98 72.62Q180.98 72.16 180.77 71.72Q180.56 71.29 180.18 71.02Q179.90 70.85 179.52 70.77Q179.14 70.68 178.70 70.66L178.70 69.70L183.50 69.38L183.71 69.59L183.71 71.62L183.78 71.62Q184.69 70.44 185.80 69.82Q186.91 69.21 187.84 69.21Q188.76 69.21 189.34 69.81Q189.92 70.41 189.92 71.42M200.07 82.30L200.07 83.37Q199.12 83.77 198.27 84.04Q197.42 84.31 196.19 84.31Q194.37 84.31 193.63 83.39Q192.89 82.48 192.89 80.81L192.89 71.02L190.28 71.02L190.28 69.62L192.95 69.62L192.95 65.12L195.62 65.12L195.62 69.62L199.76 69.62L199.76 71.02L195.64 71.02L195.64 79.09Q195.64 80 195.71 80.61Q195.78 81.22 196.03 81.67Q196.26 82.10 196.73 82.32Q197.20 82.54 197.99 82.54Q198.35 82.54 199.06 82.47Q199.78 82.40 200.07 82.30M207.64 88.72Q207.64 87.98 208.04 87.52Q208.45 87.06 209.05 87.06Q209.52 87.06 209.85 87.24Q210.19 87.41 210.45 87.69Q210.67 87.91 210.92 88.29Q211.17 88.67 211.32 88.92Q212.05 88.53 213.07 86.86Q214.09 85.19 214.54 83.93Q213.15 80.46 212.02 77.72Q210.89 74.98 209.66 72.05Q209.38 71.37 208.73 71Q208.07 70.63 207.41 70.52L207.41 69.56L214 69.56L214 70.58Q213.56 70.60 212.94 70.77Q212.33 70.93 212.33 71.15Q212.33 71.24 212.40 71.45Q212.46 71.65 212.55 71.87Q213.11 73.32 214.25 76.05Q215.39 78.79 216.02 80.43Q216.68 78.86 217.39 77.18Q218.10 75.50 218.98 73.22Q219.08 72.94 219.27 72.45Q219.46 71.96 219.46 71.61Q219.46 71.23 218.80 70.90Q218.13 70.57 217.53 70.49L217.53 69.56L222.89 69.56L222.89 70.46Q222.45 70.54 221.73 70.97Q221.02 71.40 220.66 72.19Q218.92 76.24 217.57 79.56Q216.21 82.89 215.51 84.45Q214.58 86.50 213.86 87.65Q213.13 88.80 212.45 89.46Q211.77 90.08 211.22 90.29Q210.67 90.50 210.09 90.50Q208.95 90.50 208.29 89.96Q207.64 89.42 207.64 88.72M237.58 76.63Q237.58 78.16 237.10 79.63Q236.62 81.10 235.72 82.13Q234.71 83.30 233.38 83.87Q232.05 84.44 230.39 84.44Q229.01 84.44 227.77 83.92Q226.52 83.40 225.56 82.40Q224.60 81.42 224.04 80.01Q223.48 78.59 223.48 76.84Q223.48 73.45 225.45 71.30Q227.42 69.15 230.61 69.15Q233.64 69.15 235.61 71.19Q237.58 73.23 237.58 76.63M234.55 76.66Q234.55 75.56 234.33 74.34Q234.11 73.12 233.67 72.27Q233.20 71.36 232.44 70.81Q231.68 70.26 230.58 70.26Q229.45 70.26 228.65 70.82Q227.86 71.37 227.36 72.34Q226.89 73.23 226.70 74.38Q226.51 75.52 226.51 76.59Q226.51 77.99 226.74 79.19Q226.96 80.38 227.46 81.32Q227.96 82.26 228.71 82.79Q229.47 83.33 230.58 83.33Q232.41 83.33 233.48 81.55Q234.55 79.78 234.55 76.66M255.16 82.78L255.16 83.74L250.46 84.06L250.24 83.85L250.24 82.02L250.15 82.02Q249.80 82.39 249.36 82.81Q248.92 83.22 248.35 83.56Q247.69 83.96 247.08 84.16Q246.46 84.37 245.33 84.37Q243.41 84.37 242.41 83.11Q241.41 81.86 241.41 79.47L241.41 72.56Q241.41 72.03 241.21 71.67Q241.01 71.31 240.63 71.05Q240.37 70.88 239.97 70.79Q239.58 70.71 239.14 70.68L239.14 69.73L243.96 69.38L244.17 69.59L244.17 79.62Q244.17 81.19 244.88 81.98Q245.58 82.77 246.56 82.77Q247.37 82.77 248 82.52Q248.63 82.27 249.05 81.93Q249.45 81.63 249.75 81.28Q250.05 80.94 250.21 80.65L250.21 72.46Q250.21 71.97 250 71.60Q249.80 71.23 249.43 70.96Q249.17 70.79 248.65 70.75Q248.13 70.71 247.49 70.68L247.49 69.73L252.73 69.38L252.95 69.59L252.95 81.06Q252.95 81.55 253.15 81.91Q253.36 82.26 253.73 82.51Q253.99 82.67 254.36 82.72Q254.72 82.77 255.16 82.78M267.99 71.42Q267.99 72.16 267.63 72.74Q267.26 73.32 266.50 73.32Q265.68 73.32 265.25 72.90Q264.81 72.47 264.81 71.96Q264.81 71.64 264.87 71.37Q264.92 71.11 264.96 70.85Q264.27 70.85 263.35 71.40Q262.43 71.96 261.78 72.98L261.78 81.39Q261.78 81.91 261.98 82.23Q262.18 82.55 262.60 82.71Q262.97 82.86 263.55 82.93Q264.13 83 264.55 83.03L264.55 84L256.93 84L256.93 83.03Q257.27 83 257.63 82.97Q257.99 82.95 258.25 82.86Q258.66 82.73 258.86 82.40Q259.06 82.07 259.06 81.54L259.06 72.62Q259.06 72.16 258.85 71.72Q258.63 71.29 258.25 71.02Q257.97 70.85 257.59 70.77Q257.21 70.68 256.77 70.66L256.77 69.70L261.58 69.38L261.78 69.59L261.78 71.62L261.86 71.62Q262.76 70.44 263.88 69.82Q264.99 69.21 265.91 69.21Q266.84 69.21 267.41 69.81Q267.99 70.41 267.99 71.42M281.72 69.59L281.72 83.12Q281.72 84.73 281.25 86.15Q280.78 87.56 280 88.48Q279.17 89.46 278.12 89.98Q277.08 90.50 275.82 90.50Q274.51 90.50 273.85 89.98Q273.19 89.46 273.19 88.76Q273.19 88.13 273.54 87.65Q273.90 87.18 274.57 87.18Q275.02 87.18 275.38 87.37Q275.73 87.56 275.99 87.87Q276.23 88.13 276.47 88.52Q276.71 88.91 276.93 89.27Q278.04 89.27 278.52 87.93Q278.99 86.58 278.99 83.60L278.99 72.74Q278.99 72.27 278.77 71.83Q278.54 71.40 278.17 71.14Q277.94 70.98 277.05 70.82Q276.17 70.66 275.71 70.61L275.71 69.70L281.51 69.38L281.72 69.59M281.94 63.67Q281.94 64.50 281.39 65.13Q280.84 65.75 280.03 65.75Q279.29 65.75 278.74 65.15Q278.19 64.56 278.19 63.80Q278.19 62.99 278.74 62.39Q279.29 61.79 280.03 61.79Q280.87 61.79 281.40 62.36Q281.94 62.92 281.94 63.67M299.30 76.63Q299.30 78.16 298.81 79.63Q298.33 81.10 297.44 82.13Q296.43 83.30 295.09 83.87Q293.76 84.44 292.10 84.44Q290.73 84.44 289.48 83.92Q288.24 83.40 287.27 82.40Q286.32 81.42 285.75 80.01Q285.19 78.59 285.19 76.84Q285.19 73.45 287.16 71.30Q289.13 69.15 292.32 69.15Q295.36 69.15 297.33 71.19Q299.30 73.23 299.30 76.63M296.26 76.66Q296.26 75.56 296.04 74.34Q295.83 73.12 295.39 72.27Q294.92 71.36 294.16 70.81Q293.39 70.26 292.29 70.26Q291.17 70.26 290.37 70.82Q289.57 71.37 289.07 72.34Q288.60 73.23 288.41 74.38Q288.22 75.52 288.22 76.59Q288.22 77.99 288.45 79.19Q288.68 80.38 289.17 81.32Q289.67 82.26 290.43 82.79Q291.18 83.33 292.29 83.33Q294.13 83.33 295.20 81.55Q296.26 79.78 296.26 76.66M316.88 82.78L316.88 83.74L312.17 84.06L311.95 83.85L311.95 82.02L311.87 82.02Q311.51 82.39 311.07 82.81Q310.63 83.22 310.06 83.56Q309.40 83.96 308.79 84.16Q308.17 84.37 307.05 84.37Q305.13 84.37 304.12 83.11Q303.12 81.86 303.12 79.47L303.12 72.56Q303.12 72.03 302.92 71.67Q302.72 71.31 302.34 71.05Q302.08 70.88 301.68 70.79Q301.29 70.71 300.85 70.68L300.85 69.73L305.67 69.38L305.89 69.59L305.89 79.62Q305.89 81.19 306.59 81.98Q307.29 82.77 308.28 82.77Q309.08 82.77 309.71 82.52Q310.34 82.27 310.77 81.93Q311.16 81.63 311.46 81.28Q311.76 80.94 311.92 80.65L311.92 72.46Q311.92 71.97 311.72 71.60Q311.51 71.23 311.15 70.96Q310.88 70.79 310.36 70.75Q309.84 70.71 309.20 70.68L309.20 69.73L314.44 69.38L314.66 69.59L314.66 81.06Q314.66 81.55 314.87 81.91Q315.07 82.26 315.44 82.51Q315.70 82.67 316.07 82.72Q316.44 82.77 316.88 82.78M329.71 71.42Q329.71 72.16 329.34 72.74Q328.97 73.32 328.21 73.32Q327.39 73.32 326.96 72.90Q326.53 72.47 326.53 71.96Q326.53 71.64 326.58 71.37Q326.63 71.11 326.67 70.85Q325.99 70.85 325.06 71.40Q324.14 71.96 323.50 72.98L323.50 81.39Q323.50 81.91 323.69 82.23Q323.89 82.55 324.32 82.71Q324.68 82.86 325.26 82.93Q325.84 83 326.26 83.03L326.26 84L318.65 84L318.65 83.03Q318.98 83 319.34 82.97Q319.70 82.95 319.97 82.86Q320.38 82.73 320.57 82.40Q320.77 82.07 320.77 81.54L320.77 72.62Q320.77 72.16 320.56 71.72Q320.35 71.29 319.97 71.02Q319.69 70.85 319.31 70.77Q318.93 70.68 318.49 70.66L318.49 69.70L323.29 69.38L323.50 69.59L323.50 71.62L323.57 71.62Q324.48 70.44 325.59 69.82Q326.70 69.21 327.63 69.21Q328.55 69.21 329.13 69.81Q329.71 70.41 329.71 71.42M346.89 83.03L346.89 84L339.81 84L339.81 83.03Q340.15 83 340.55 82.97Q340.96 82.95 341.22 82.86Q341.63 82.73 341.83 82.40Q342.03 82.07 342.03 81.54L342.03 74.11Q342.03 72.57 341.30 71.74Q340.58 70.90 339.54 70.90Q338.76 70.90 338.12 71.15Q337.47 71.39 336.97 71.74Q336.49 72.08 336.20 72.46Q335.92 72.85 335.79 73.09L335.79 81.39Q335.79 81.89 335.99 82.21Q336.20 82.54 336.61 82.71Q336.91 82.86 337.27 82.93Q337.63 83 338.01 83.03L338.01 84L330.94 84L330.94 83.03Q331.27 83 331.63 82.97Q331.99 82.95 332.26 82.86Q332.67 82.73 332.86 82.40Q333.06 82.07 333.06 81.54L333.06 72.62Q333.06 72.12 332.85 71.70Q332.64 71.29 332.26 71.02Q331.98 70.85 331.60 70.77Q331.22 70.68 330.78 70.66L330.78 69.70L335.58 69.38L335.79 69.59L335.79 71.62L335.86 71.62Q336.21 71.27 336.74 70.78Q337.27 70.29 337.73 69.98Q338.28 69.63 339.02 69.40Q339.77 69.16 340.71 69.16Q342.79 69.16 343.79 70.46Q344.79 71.75 344.79 73.91L344.79 81.42Q344.79 81.93 344.97 82.25Q345.15 82.56 345.57 82.74Q345.92 82.89 346.18 82.95Q346.44 83 346.89 83.03M360.47 79.97L361.49 80.60Q360.59 82.33 359.06 83.36Q357.54 84.38 355.56 84.38Q353.82 84.38 352.51 83.77Q351.20 83.15 350.35 82.10Q349.50 81.04 349.08 79.63Q348.66 78.23 348.66 76.66Q348.66 75.25 349.11 73.90Q349.56 72.54 350.42 71.46Q351.25 70.42 352.49 69.78Q353.73 69.15 355.27 69.15Q356.85 69.15 357.98 69.64Q359.11 70.14 359.81 71.01Q360.48 71.83 360.81 72.94Q361.14 74.05 361.14 75.36L361.14 76.32L351.58 76.32Q351.58 77.75 351.85 78.90Q352.12 80.06 352.71 80.94Q353.28 81.79 354.20 82.28Q355.12 82.77 356.40 82.77Q357.70 82.77 358.65 82.16Q359.59 81.55 360.47 79.97M351.58 75.09L358.26 75.09Q358.26 74.27 358.12 73.34Q357.98 72.40 357.67 71.77Q357.33 71.09 356.75 70.67Q356.16 70.25 355.24 70.25Q353.70 70.25 352.68 71.53Q351.67 72.81 351.58 75.09M362.07 88.72Q362.07 87.98 362.47 87.52Q362.87 87.06 363.47 87.06Q363.94 87.06 364.28 87.24Q364.61 87.41 364.88 87.69Q365.10 87.91 365.35 88.29Q365.60 88.67 365.74 88.92Q366.47 88.53 367.49 86.86Q368.51 85.19 368.96 83.93Q367.57 80.46 366.45 77.72Q365.32 74.98 364.09 72.05Q363.81 71.37 363.15 71Q362.49 70.63 361.83 70.52L361.83 69.56L368.42 69.56L368.42 70.58Q367.98 70.60 367.37 70.77Q366.75 70.93 366.75 71.15Q366.75 71.24 366.82 71.45Q366.88 71.65 366.97 71.87Q367.53 73.32 368.67 76.05Q369.81 78.79 370.44 80.43Q371.10 78.86 371.81 77.18Q372.52 75.50 373.40 73.22Q373.51 72.94 373.70 72.45Q373.89 71.96 373.89 71.61Q373.89 71.23 373.22 70.90Q372.55 70.57 371.95 70.49L371.95 69.56L377.31 69.56L377.31 70.46Q376.88 70.54 376.16 70.97Q375.44 71.40 375.09 72.19Q373.34 76.24 371.99 79.56Q370.63 82.89 369.93 84.45Q369.01 86.50 368.28 87.65Q367.56 88.80 366.87 89.46Q366.20 90.08 365.65 90.29Q365.10 90.50 364.51 90.50Q363.37 90.50 362.72 89.96Q362.07 89.42 362.07 88.72" fill="#7a6e5f"/>
</svg>
