<svg xmlns="http://www.w3.org/2000/svg" viewBox="0 0 100 100"><style>.t{fill:#1a2332;stroke:#1a2332}@media(prefers-color-scheme:dark){.t{fill:#2b231b;stroke:#2b231b}}</style><path class="t" d="M16 14 Q50 7 84 14 L84 52 Q84 76 50 92 Q16 76 16 52 Z" stroke-width="6" stroke-linejoin="round" stroke-linecap="round"/><path d="M16 14 Q50 7 84 14 L84 52 Q84 76 50 92 Q16 76 16 52 Z" fill="none" stroke="#c1a374" stroke-width="3" stroke-linejoin="round" stroke-linecap="round"/><g transform="translate(-9.99 -20.24) scale(0.1180)"><path fill="#c1a374" d="M373.5 324.08C470.69 324.08 567.88 324.08 665.06 324.08C665.12 327.25 665.74 331.19 664.71 334.23C663.14 338.85 651.54 353.68 648.08 358.64C632.14 381.43 616.69 404.55 600.98 427.51C561.05 485.88 521.8 544.81 481.09 602.64C467.71 621.65 454.78 641.01 441.7 660.22C434.64 670.59 428.11 681.84 420.13 691.5C425.35 692.57 431.13 691.99 436.5 691.99C446.83 691.99 457.17 691.99 467.5 691.99C497.09 691.99 527.19 693.41 556.55 689.25C568.65 687.53 582.08 687.01 592.77 680.3C601.69 674.71 609.25 664.33 615.54 656.05C630.34 636.54 643.55 614.93 652.5 592.07C658.83 592.07 665.17 592.07 671.5 592.07C667.26 632.68 663.03 673.29 658.79 713.9C554.52 713.9 450.24 713.9 345.96 713.9C345.84 710.68 345.24 706.78 346.17 703.67C347.43 699.49 359.14 684.53 362.34 679.81C377.92 656.76 393.86 633.98 409.44 610.92C450.11 550.72 491.82 491.2 532.51 431.02C545.14 412.33 557.9 393.78 570.67 375.2C577.21 365.68 584.22 356.36 590.23 346.5C585.19 345.41 579.7 345.9 574.5 345.89C565.17 345.87 555.83 345.88 546.5 345.88C525.84 345.88 505.16 345.69 484.5 346.04C470.52 346.27 455.47 346.59 442.98 353.49C421.48 365.35 403.84 390.43 391.61 411.15C387.24 418.55 384.2 426.52 380.5 434.23C374.17 434.23 367.83 434.23 361.5 434.23C365.5 397.51 369.5 360.8 373.5 324.08Z"/></g></svg>
