<svg xmlns="http://www.w3.org/2000/svg" viewBox="178 243 653 762"><style>.t{fill:#1a2332}.g{fill:#C4A572}@media(prefers-color-scheme:dark){.t{fill:#232E42}}</style><path class="t" fill-rule="evenodd" d="M214.57 255.4C220.49 254.92 226.56 255.28 232.5 255.28C243.17 255.28 253.83 255.28 264.5 255.28C296.83 255.28 329.17 255.28 361.5 255.28C459.5 255.28 557.5 255.28 655.5 255.28C691.83 255.28 728.17 255.28 764.5 255.28C770.5 255.28 776.5 255.28 782.5 255.28C792.01 255.28 801.53 254.76 809.25 261.25C818.82 269.3 818.3 279 818.3 290.5C818.3 299.5 818.3 308.5 818.3 317.5C818.3 367.83 818.3 418.17 818.3 468.5C818.3 509.5 818.3 550.5 818.3 591.5C818.3 615.09 819.39 638.99 817.12 662.5C815.51 679.08 812 695.17 807.59 711.2C801.26 734.2 790.62 756.45 778.37 776.84C745.36 831.74 697.74 875.45 646.33 912.87C633.3 922.35 619.61 930.78 606.18 939.65C585.87 953.05 564.33 965.04 542.75 976.28C536.17 979.71 529.65 983.21 523.01 986.52C519.68 988.17 516.41 990.18 512.89 991.43C502.9 994.97 494.83 990.87 486.05 986.47C481.17 984.04 476.34 981.58 471.54 979C455.98 970.62 440.42 962.29 425.17 953.35C410.57 944.8 396.43 935.5 382.28 926.23C368.68 917.32 355.65 907.63 342.73 897.77C278.07 848.37 217.41 780.43 198.35 699.29C194.8 684.21 192.34 668.96 191.23 653.5C189.74 632.63 190.73 611.41 190.73 590.5C190.73 546.83 190.73 503.17 190.73 459.5C190.73 407.83 190.73 356.17 190.73 304.5C190.73 287.91 186.84 265.32 205.98 257.49C208.71 256.36 211.62 255.64 214.57 255.4ZM213.7 268.35C208.1 269.42 204.5 274.08 203.72 279.5C203.15 283.42 203.49 287.55 203.49 291.5C203.49 298.83 203.49 306.17 203.49 313.5C203.49 361.83 203.49 410.17 203.49 458.5C203.49 503.83 203.49 549.17 203.49 594.5C203.49 629.32 202.21 664.46 211.2 698.44C235.07 788.74 304.13 856.07 378.37 908.09C409 929.55 441.27 948.76 474.39 966.12C480.97 969.57 487.53 973.05 494.19 976.34C499.62 979.03 504.22 981.23 510.22 978.69C518.61 975.14 526.61 970.39 534.66 966.17C551.8 957.18 568.57 947.57 585.17 937.64C643.62 902.68 700.97 859.69 743.09 805.62C765.88 776.37 785.54 743.12 795.56 707.15C799.89 691.61 803.32 675.57 804.69 659.49C806.61 636.93 805.78 614.12 805.78 591.5C805.78 550.5 805.78 509.5 805.78 468.5C805.78 419.83 805.78 371.17 805.78 322.5C805.78 310.83 805.78 299.17 805.78 287.5C805.78 281.6 806.15 275.45 801.29 271.18C797.4 267.77 792.35 268.02 787.5 268.02C778.83 268.02 770.17 268.02 761.5 268.02C726.17 268.02 690.83 268.02 655.5 268.02C555.83 268.02 456.17 268.02 356.5 268.02C324.5 268.02 292.5 268.02 260.5 268.02C250.17 268.02 239.83 268.02 229.5 268.02C224.37 268.02 218.75 267.38 213.7 268.35ZM229.5 293.51C412.83 293.51 596.17 293.51 779.5 293.51C780.84 300.55 780.07 308.3 780.07 315.5C780.07 328.17 780.07 340.83 780.07 353.5C780.07 393.5 780.07 433.5 780.07 473.5C780.07 514.5 780.07 555.5 780.07 596.5C780.07 628.15 781.29 659.34 773.71 690.34C754.15 770.24 692.29 831.46 628.16 878.64C599.55 899.69 569.17 918.52 537.95 935.46C530.15 939.69 522.35 943.93 514.45 947.96C512.14 949.14 506.88 952.74 504.51 952.72C502.17 952.69 496.87 949.09 494.59 947.92C486.68 943.9 478.9 939.64 471.1 935.42C439.94 918.54 409.27 899.83 380.88 878.6C369.1 869.78 357.3 861.01 346.1 851.44C293.53 806.54 247.24 749.75 233.21 680.44C227.56 652.53 228.98 623.82 228.98 595.5C228.98 555.17 228.98 514.83 228.98 474.5C228.98 434.17 228.98 393.83 228.98 353.5C228.98 340.83 228.98 328.17 228.98 315.5C228.98 308.28 228.26 300.6 229.5 293.51ZM665.46 324.03C567.99 324.03 470.52 324.03 373.05 324.03C369.2 360.77 365.35 397.52 361.5 434.26C367.83 434.26 374.17 434.26 380.5 434.26C383.93 426.66 387.21 419.07 391.29 411.76C399.4 397.22 409.68 383.69 421.08 371.58C429.48 362.65 439.94 353.07 451.96 349.49C462.52 346.35 474.56 346.2 485.5 346.02C501.49 345.76 517.5 345.93 533.5 345.93C545.83 345.93 558.17 345.93 570.5 345.93C577.06 345.93 584.5 345 590.84 346.5C584 355.68 577.79 365.4 571.4 374.89C557.86 394.95 544.12 414.91 530.36 434.82C489.6 493.81 449.46 553.23 408.86 612.33C393.38 634.86 377.61 657.22 362.49 679.99C358.51 685.98 354.3 691.81 350.34 697.81C348.98 699.86 346.67 702.18 345.98 704.55C345.17 707.32 345.58 710.64 345.54 713.5C350.59 714.87 356.2 714.3 361.5 714.3C370.83 714.3 380.17 714.3 389.5 714.3C411.83 714.3 434.17 714.3 456.5 714.3C468.28 714.3 480.29 713.65 492.03 714.5C492.03 746.69 492.03 778.88 492.03 811.07C471.57 811.38 445.55 804.52 426.53 796.92C419.29 794.03 409.78 791.34 404.37 785.5C410.94 778.5 417.5 771.5 424.07 764.5C423.72 764.18 423.63 763.6 423.24 763.33C421.88 762.39 419.35 762.12 417.77 761.64C412.69 760.1 407.58 758.58 402.53 756.93C384.72 751.12 366.57 746.3 348.67 740.75C343.32 739.09 337.98 737.41 332.62 735.79C329.73 734.92 327.34 733.79 324.46 734.5C336.45 766.83 348.44 799.17 360.43 831.5C367.79 823.98 375.14 816.46 382.5 808.93C385.31 810.76 387.7 813.24 390.57 814.99C402.98 822.53 422.65 829.79 436.69 833.68C445.26 836.06 454 838.01 462.73 839.65C465.47 840.17 469.76 839.86 472.18 841.36C473.6 842.24 474.38 844.96 475.1 846.4C477.42 851.07 479.84 855.69 482.13 860.38C490.41 877.37 498.89 894.3 507.5 911.13C511.3 906.44 513.43 900.07 516.18 894.67C522.02 883.18 527.92 871.68 533.56 860.08C535.73 855.6 538.01 851.17 540.24 846.72C541.07 845.08 541.91 842.01 543.28 840.79C545.13 839.16 549.02 839.17 551.36 838.71C558.4 837.31 565.49 835.73 572.4 833.78C583.81 830.56 595.21 826.41 606 821.48C611.66 818.89 617.03 815.65 622.5 812.83C629.5 820.3 636.5 827.77 643.5 835.25C656.18 803 668.86 770.75 681.54 738.5C648.18 747.5 614.81 756.5 581.45 765.5C587.94 773.17 594.43 780.83 600.92 788.5C595.1 793.16 586.66 795.63 579.72 798.25C567.67 802.81 555.3 805.93 542.64 808.32C536.39 809.5 529.75 810.99 523.41 810.5C523.41 778.5 523.41 746.5 523.41 714.5C534.7 713.79 546.18 714.3 557.5 714.3C577.83 714.3 598.17 714.3 618.5 714.3C627.17 714.3 635.83 714.3 644.5 714.3C649.41 714.3 654.63 714.85 659.27 713.5C660.72 704.59 661.28 695.48 662.24 686.5C664 670.19 665.52 653.84 667.29 637.53C668.27 628.53 669.21 619.51 670.25 610.51C670.93 604.59 672.35 598.32 671.52 592.44C665.5 592.44 659.48 592.44 653.46 592.44C649.22 599.22 646.56 607.2 642.81 614.31C633.73 631.5 623.21 648.3 610.68 663.2C605.91 668.88 599.98 676.18 593.91 680.42C589.47 683.52 583.92 685.02 578.74 686.34C567.87 689.11 556.65 690.18 545.5 691.14C521.55 693.2 497.52 692.73 473.5 692.7C456.14 692.67 438.58 693.4 421.25 692.5C421.94 688.51 425.02 685.23 427.41 681.88C431.02 676.8 434.4 671.53 437.96 666.41C451.22 647.31 464.02 627.89 477.37 608.86C490.04 590.8 502.2 572.38 514.66 554.18C536.86 521.72 559.2 489.34 581.39 456.87C590.31 443.82 598.99 430.58 608.09 417.65C622.04 397.84 635.22 377.5 649.15 357.69C652.87 352.39 656.39 346.95 660.11 341.65C661.8 339.24 664.61 336.4 665.3 333.49C666 330.57 665.49 327.02 665.46 324.03ZM662.5 448.8C660.76 451.74 659.83 455.02 658.69 458.25C656.07 465.65 653.8 473.19 651.14 480.58C650.19 483.21 648.78 489.62 647 491.47C645.42 493.12 637.21 495.23 634.62 496.17C624.65 499.79 614.49 502.83 604.54 506.5C604.96 506.86 605.17 507.44 605.62 507.77C607.95 509.42 613.37 510.44 616.22 511.37C623.17 513.64 630.01 516.23 636.95 518.52C639.41 519.33 644.67 520.38 646.55 521.91C648.56 523.53 650.24 530.71 651.18 533.37C653.8 540.78 656.13 548.29 658.74 555.71C659.86 558.91 660.78 562.17 662.5 565.1C664.52 560.52 665.83 555.61 667.43 550.86C669.36 545.16 671.47 539.53 673.38 533.83C674.32 530.99 675.71 524.09 677.71 522.13C679.31 520.57 684.96 519.43 687.25 518.67C694.43 516.31 701.5 513.64 708.68 511.27C711.42 510.37 717.09 509.29 719.26 507.68C719.64 507.4 719.72 506.83 720.06 506.5C709.91 502.92 699.6 499.72 689.5 496.01C686.6 494.95 679.16 493.36 677.29 491.22C675.91 489.64 674.21 482.47 673.42 480.11C671.42 474.17 669.23 468.3 667.22 462.36C665.69 457.84 664.45 453.16 662.5 448.8Z"/><path class="g" fill-rule="evenodd" d="M213.7 268.35C218.75 267.38 224.37 268.02 229.5 268.02C239.83 268.02 250.17 268.02 260.5 268.02C292.5 268.02 324.5 268.02 356.5 268.02C456.17 268.02 555.83 268.02 655.5 268.02C690.83 268.02 726.17 268.02 761.5 268.02C770.17 268.02 778.83 268.02 787.5 268.02C792.35 268.02 797.4 267.77 801.29 271.18C806.15 275.45 805.78 281.6 805.78 287.5C805.78 299.17 805.78 310.83 805.78 322.5C805.78 371.17 805.78 419.83 805.78 468.5C805.78 509.5 805.78 550.5 805.78 591.5C805.78 614.12 806.61 636.93 804.69 659.49C803.32 675.57 799.89 691.61 795.56 707.15C785.54 743.12 765.88 776.37 743.09 805.62C700.97 859.69 643.62 902.68 585.17 937.64C568.57 947.57 551.8 957.18 534.66 966.17C526.61 970.39 518.61 975.14 510.22 978.69C504.22 981.23 499.62 979.03 494.19 976.34C487.53 973.05 480.97 969.57 474.39 966.12C441.27 948.76 409 929.55 378.37 908.09C304.13 856.07 235.07 788.74 211.2 698.44C202.21 664.46 203.49 629.32 203.49 594.5C203.49 549.17 203.49 503.83 203.49 458.5C203.49 410.17 203.49 361.83 203.49 313.5C203.49 306.17 203.49 298.83 203.49 291.5C203.49 287.55 203.15 283.42 203.72 279.5C204.5 274.08 208.1 269.42 213.7 268.35ZM229.5 293.51C228.26 300.6 228.98 308.28 228.98 315.5C228.98 328.17 228.98 340.83 228.98 353.5C228.98 393.83 228.98 434.17 228.98 474.5C228.98 514.83 228.98 555.17 228.98 595.5C228.98 623.82 227.56 652.53 233.21 680.44C247.24 749.75 293.53 806.54 346.1 851.44C357.3 861.01 369.1 869.78 380.88 878.6C409.27 899.83 439.94 918.54 471.1 935.42C478.9 939.64 486.68 943.9 494.59 947.92C496.87 949.09 502.17 952.69 504.51 952.72C506.88 952.74 512.14 949.14 514.45 947.96C522.35 943.93 530.15 939.69 537.95 935.46C569.17 918.52 599.55 899.69 628.16 878.64C692.29 831.46 754.15 770.24 773.71 690.34C781.29 659.34 780.07 628.15 780.07 596.5C780.07 555.5 780.07 514.5 780.07 473.5C780.07 433.5 780.07 393.5 780.07 353.5C780.07 340.83 780.07 328.17 780.07 315.5C780.07 308.3 780.84 300.55 779.5 293.51C596.17 293.51 412.83 293.51 229.5 293.51ZM665.46 324.03C665.49 327.02 666 330.57 665.3 333.49C664.61 336.4 661.8 339.24 660.11 341.65C656.39 346.95 652.87 352.39 649.15 357.69C635.22 377.5 622.04 397.84 608.09 417.65C598.99 430.58 590.31 443.82 581.39 456.87C559.2 489.34 536.86 521.72 514.66 554.18C502.2 572.38 490.04 590.8 477.37 608.86C464.02 627.89 451.22 647.31 437.96 666.41C434.4 671.53 431.02 676.8 427.41 681.88C425.02 685.23 421.94 688.51 421.25 692.5C438.58 693.4 456.14 692.67 473.5 692.7C497.52 692.73 521.55 693.2 545.5 691.14C556.65 690.18 567.87 689.11 578.74 686.34C583.92 685.02 589.47 683.52 593.91 680.42C599.98 676.18 605.91 668.88 610.68 663.2C623.21 648.3 633.73 631.5 642.81 614.31C646.56 607.2 649.22 599.22 653.46 592.44C659.48 592.44 665.5 592.44 671.52 592.44C672.35 598.32 670.93 604.59 670.25 610.51C669.21 619.51 668.27 628.53 667.29 637.53C665.52 653.84 664 670.19 662.24 686.5C661.28 695.48 660.72 704.59 659.27 713.5C654.63 714.85 649.41 714.3 644.5 714.3C635.83 714.3 627.17 714.3 618.5 714.3C598.17 714.3 577.83 714.3 557.5 714.3C546.18 714.3 534.7 713.79 523.41 714.5C523.41 746.5 523.41 778.5 523.41 810.5C529.75 810.99 536.39 809.5 542.64 808.32C555.3 805.93 567.67 802.81 579.72 798.25C586.66 795.63 595.1 793.16 600.92 788.5C594.43 780.83 587.94 773.17 581.45 765.5C614.81 756.5 648.18 747.5 681.54 738.5C668.86 770.75 656.18 803 643.5 835.25C636.5 827.77 629.5 820.3 622.5 812.83C617.03 815.65 611.66 818.89 606 821.48C595.21 826.41 583.81 830.56 572.4 833.78C565.49 835.73 558.4 837.31 551.36 838.71C549.02 839.17 545.13 839.16 543.28 840.79C541.91 842.01 541.07 845.08 540.24 846.72C538.01 851.17 535.73 855.6 533.56 860.08C527.92 871.68 522.02 883.18 516.18 894.67C513.43 900.07 511.3 906.44 507.5 911.13C498.89 894.3 490.41 877.37 482.13 860.38C479.84 855.69 477.42 851.07 475.1 846.4C474.38 844.96 473.6 842.24 472.18 841.36C469.76 839.86 465.47 840.17 462.73 839.65C454 838.01 445.26 836.06 436.69 833.68C422.65 829.79 402.98 822.53 390.57 814.99C387.7 813.24 385.31 810.76 382.5 808.93C375.14 816.46 367.79 823.98 360.43 831.5C348.44 799.17 336.45 766.83 324.46 734.5C327.34 733.79 329.73 734.92 332.62 735.79C337.98 737.41 343.32 739.09 348.67 740.75C366.57 746.3 384.72 751.12 402.53 756.93C407.58 758.58 412.69 760.1 417.77 761.64C419.35 762.12 421.88 762.39 423.24 763.33C423.63 763.6 423.72 764.18 424.07 764.5C417.5 771.5 410.94 778.5 404.37 785.5C409.78 791.34 419.29 794.03 426.53 796.92C445.55 804.52 471.57 811.38 492.03 811.07C492.03 778.88 492.03 746.69 492.03 714.5C480.29 713.65 468.28 714.3 456.5 714.3C434.17 714.3 411.83 714.3 389.5 714.3C380.17 714.3 370.83 714.3 361.5 714.3C356.2 714.3 350.59 714.87 345.54 713.5C345.58 710.64 345.17 707.32 345.98 704.55C346.67 702.18 348.98 699.86 350.34 697.81C354.3 691.81 358.51 685.98 362.49 679.99C377.61 657.22 393.38 634.86 408.86 612.33C449.46 553.23 489.6 493.81 530.36 434.82C544.12 414.91 557.86 394.95 571.4 374.89C577.79 365.4 584 355.68 590.84 346.5C584.5 345 577.06 345.93 570.5 345.93C558.17 345.93 545.83 345.93 533.5 345.93C517.5 345.93 501.49 345.76 485.5 346.02C474.56 346.2 462.52 346.35 451.96 349.49C439.94 353.07 429.48 362.65 421.08 371.58C409.68 383.69 399.4 397.22 391.29 411.76C387.21 419.07 383.93 426.66 380.5 434.26C374.17 434.26 367.83 434.26 361.5 434.26C365.35 397.52 369.2 360.77 373.05 324.03C470.52 324.03 567.99 324.03 665.46 324.03ZM662.5 448.8C664.45 453.16 665.69 457.84 667.22 462.36C669.23 468.3 671.42 474.17 673.42 480.11C674.21 482.47 675.91 489.64 677.29 491.22C679.16 493.36 686.6 494.95 689.5 496.01C699.6 499.72 709.91 502.92 720.06 506.5C719.72 506.83 719.64 507.4 719.26 507.68C717.09 509.29 711.42 510.37 708.68 511.27C701.5 513.64 694.43 516.31 687.25 518.67C684.96 519.43 679.31 520.57 677.71 522.13C675.71 524.09 674.32 530.99 673.38 533.83C671.47 539.53 669.36 545.16 667.43 550.86C665.83 555.61 664.52 560.52 662.5 565.1C660.78 562.17 659.86 558.91 658.74 555.71C656.13 548.29 653.8 540.78 651.18 533.37C650.24 530.71 648.56 523.53 646.55 521.91C644.67 520.38 639.41 519.33 636.95 518.52C630.01 516.23 623.17 513.64 616.22 511.37C613.37 510.44 607.95 509.42 605.62 507.77C605.17 507.44 604.96 506.86 604.54 506.5C614.49 502.83 624.65 499.79 634.62 496.17C637.21 495.23 645.42 493.12 647 491.47C648.78 489.62 650.19 483.21 651.14 480.58C653.8 473.19 656.07 465.65 658.69 458.25C659.83 455.02 660.76 451.74 662.5 448.8Z"/></svg>