<svg xmlns="http://www.w3.org/2000/svg" viewBox="0 0 680.1 689.5"><style>path{fill:#2b4a2b}@media(prefers-color-scheme:dark){path{fill:#9fbf9f}}</style><path fill-rule="evenodd" d="M345.66 424.97C320.90 411.14 299.99 390.31 280.49 370.02C254.99 343.48 232.75 314.72 212.33 284.15C195.51 258.97 182.01 230.42 177.26 200.34C174.60 183.50 175.51 165.86 178.80 149.19C194.46 69.82 262.56 9.20 344.66 8.41C386.22 8.00 423.99 23.54 455.54 49.92C458.73 52.59 462.16 55.58 464.42 59.11C474.78 75.36 468.53 98.91 450.89 107.11C428.33 117.61 417.40 101.33 401.08 90.41C389.96 82.97 376.59 77.53 363.39 75.28C352.00 73.34 339.44 73.10 328.09 75.33C263.86 87.96 227.06 157.26 250.62 217.94C272.47 274.22 338.61 301.32 392.75 272.90C406.40 265.74 419.29 255.09 428.25 242.49C431.13 238.44 435.40 233.43 435.83 228.29C437.06 213.51 413.91 217.83 404.66 217.82C392.33 217.82 379.99 217.83 367.66 217.83C360.17 217.83 352.20 218.59 344.91 216.53C329.31 212.11 319.29 195.22 323.26 179.39C326.38 166.93 336.80 156.79 349.70 155.00C357.14 153.97 365.15 154.74 372.66 154.74C389.66 154.73 406.66 154.75 423.66 154.72C449.03 154.68 470.07 154.09 489.91 172.58C506.28 187.82 511.70 210.89 506.12 232.31C503.34 243.00 497.68 252.96 492.46 262.61C487.31 272.13 481.07 281.19 474.85 290.04C453.83 319.94 430.96 348.40 405.19 374.37C387.22 392.47 368.28 412.66 345.66 424.97ZM585.35 460.04C585.35 500.14 585.35 540.24 585.35 580.34C581.04 581.21 571.65 582.55 567.96 579.54C565.57 577.58 565.23 573.93 563.66 571.53C550.75 585.71 527.16 585.99 515.80 569.66C500.48 547.63 506.02 500.31 537.66 495.77C544.08 494.85 551.20 495.60 557.11 498.36C559.51 499.49 561.36 501.04 563.83 501.89C563.83 487.94 563.83 473.99 563.83 460.04C571.01 460.04 578.18 460.04 585.35 460.04ZM91.45 499.34C94.11 511.26 91.10 511.29 81.66 513.61C82.31 517.54 83.24 521.09 82.80 525.20C81.30 539.22 70.16 548.02 56.66 549.87C50.97 550.65 45.14 548.98 39.66 549.57C37.89 551.58 37.48 552.68 37.17 555.34C40.38 560.47 49.18 559.32 54.66 559.52C70.62 560.11 93.01 561.44 90.58 583.47C90.16 587.28 89.21 590.99 87.10 594.23C74.69 613.33 43.71 614.41 24.83 605.71C15.29 601.30 8.00 589.54 14.26 579.50C16.27 576.28 19.83 574.28 22.98 572.34C21.68 569.82 19.38 567.87 18.54 565.01C15.87 555.96 21.19 550.24 26.97 544.34C9.21 530.61 12.57 506.00 33.84 498.03C41.20 495.28 49.87 494.80 57.59 496.09C61.34 496.72 64.93 498.50 68.66 498.95C76.17 499.85 83.93 498.65 91.45 499.34ZM171.66 542.36C154.28 542.36 136.91 542.36 119.53 542.36C116.63 558.55 133.24 567.64 147.42 564.47C152.81 563.26 158.07 557.20 163.63 557.91C167.90 558.46 170.77 564.34 173.26 567.34C161.04 587.11 124.86 586.19 109.50 571.00C96.04 557.69 94.72 533.82 101.90 517.15C110.26 497.75 136.84 489.64 155.31 499.21C166.67 505.09 172.08 516.06 173.53 528.29C174.12 533.36 174.24 537.89 171.66 542.36ZM214.83 496.15C229.79 493.29 246.99 497.55 256.61 509.91C274.37 532.73 265.32 573.82 235.67 580.97C219.09 584.98 198.97 580.11 189.58 564.91C174.48 540.44 184.57 501.94 214.83 496.15ZM328.89 497.34C329.62 502.85 328.89 512.58 325.66 517.21C320.32 517.56 315.27 515.00 310.06 517.31C300.89 521.36 300.17 530.58 300.15 539.34C300.13 552.26 301.58 568.35 299.66 580.86C292.58 580.86 285.49 580.86 278.41 580.86C278.41 552.90 278.41 524.94 278.41 496.98C284.16 496.98 289.91 496.98 295.66 496.98C296.99 500.93 298.33 504.88 299.66 508.82C305.15 497.71 317.27 492.84 328.89 497.34ZM412.04 580.81C405.05 580.81 398.07 580.81 391.08 580.81C390.44 563.67 391.57 546.47 390.86 529.34C390.49 520.38 386.78 512.46 376.66 512.51C372.08 512.54 362.70 516.23 360.72 520.86C359.21 524.38 360.41 534.16 360.41 538.34C360.42 552.49 360.83 566.71 360.25 580.84C353.20 580.84 346.15 580.84 339.10 580.84C339.10 553.01 339.10 525.17 339.10 497.34C342.56 496.72 353.62 495.76 356.18 498.29C358.09 500.18 358.33 503.24 359.66 505.48C375.38 491.69 402.46 490.42 410.05 513.44C413.38 523.54 412.39 534.87 412.25 545.34C412.10 557.15 412.65 569.01 412.04 580.81ZM494.93 580.34C490.84 581.29 481.73 582.47 478.41 579.08C476.90 577.54 476.48 574.98 475.66 573.04C471.23 574.72 467.84 578.70 463.14 580.33C448.88 585.25 428.12 581.62 424.92 564.34C421.45 545.61 439.04 536.01 454.67 532.84C460.94 531.57 467.35 531.59 473.66 530.72C473.97 528.18 474.04 525.55 473.57 522.99C471.56 511.97 459.93 510.11 450.95 514.20C446.18 516.37 443.50 520.29 437.72 519.58C432.25 518.91 430.51 513.82 428.72 509.34C441.39 491.60 480.16 489.41 491.18 510.36C495.45 518.48 495.14 528.45 495.16 537.34C495.18 551.62 495.73 566.09 494.93 580.34ZM668.66 580.77C664.43 580.96 656.43 582.40 652.88 579.64C650.74 577.98 650.22 574.70 648.66 572.68C645.09 575.70 641.44 578.56 637.01 580.23C620.91 586.31 599.40 579.63 598.59 560.15C597.55 535.15 630.07 532.57 647.66 530.86C648.07 528.18 648.14 525.45 647.67 522.71C645.82 511.90 633.71 509.85 624.95 514.18C620.27 516.50 617.43 520.27 611.71 519.62C606.28 518.99 604.40 513.76 602.66 509.33C615.38 491.49 653.32 489.63 664.66 509.86C672.11 523.15 669.16 541.73 669.17 556.34C669.18 564.20 670.25 573.13 668.66 580.77ZM44.79 511.13C36.19 512.97 32.86 523.69 37.78 530.71C41.80 536.46 51.27 537.33 57.15 534.29C64.07 530.70 65.80 519.06 59.72 513.79C55.89 510.48 49.51 510.12 44.79 511.13ZM154.34 528.86C153.98 524.47 153.25 520.60 150.49 517.02C148.22 514.08 145.24 512.58 141.70 511.70C129.70 508.71 120.70 517.48 119.45 528.86C131.08 528.86 142.71 528.86 154.34 528.86ZM221.89 512.29C211.71 513.29 206.48 521.91 205.19 531.34C202.99 547.48 206.90 567.58 227.66 564.93C236.89 563.75 241.05 555.94 242.53 547.58C245.18 532.62 241.92 510.31 221.89 512.29ZM544.96 512.30C523.96 515.64 522.95 567.10 548.66 564.83C565.65 563.32 563.73 549.86 563.73 537.34C563.74 532.07 564.97 524.54 562.95 519.56C560.51 513.53 550.51 511.42 544.96 512.30ZM473.66 545.79C464.88 545.33 438.57 547.10 446.70 562.83C451.05 571.24 469.44 566.55 473.30 559.53C475.17 556.13 474.18 549.51 473.66 545.79ZM647.66 545.52C639.36 545.75 621.68 545.01 619.95 556.34C619.59 558.69 619.83 561.32 621.13 563.36C625.95 570.87 644.66 566.41 647.63 558.88C649.05 555.29 648.10 549.27 647.66 545.52ZM37.78 576.21C32.02 577.27 29.14 586.27 33.05 590.44C38.42 596.17 54.71 595.55 61.61 593.64C65.35 592.60 69.44 590.91 70.58 586.78C71.82 582.28 68.54 579.24 64.61 577.97C59.38 576.27 43.27 575.20 37.78 576.21ZM184.76 618.45C184.76 635.48 184.76 652.51 184.76 669.54C182.84 669.54 180.93 669.54 179.01 669.54C177.03 659.90 178.48 643.64 178.59 633.34C178.64 628.74 177.61 622.34 179.60 618.45C181.32 618.45 183.04 618.45 184.76 618.45ZM351.66 618.81C358.29 621.52 357.11 628.24 349.66 627.47C346.61 624.06 347.75 620.57 351.66 618.81ZM591.64 626.34C590.64 627.65 589.65 628.95 588.66 630.26C585.07 628.44 581.73 626.44 577.56 626.30C556.93 625.62 557.77 665.67 578.66 664.13C581.36 663.94 583.55 662.92 585.89 661.66C585.89 658.06 585.89 654.47 585.89 650.87C583.49 650.87 581.08 650.87 578.68 650.87C578.68 648.94 578.68 647.02 578.68 645.09C583.15 645.09 587.61 645.09 592.07 645.09C592.07 651.84 592.07 658.59 592.07 665.34C572.85 677.43 555.04 665.04 555.94 643.34C556.23 636.38 558.33 629.59 563.64 624.82C571.13 618.09 585.68 617.38 591.64 626.34ZM81.95 620.44C90.22 620.42 100.63 618.82 108.40 621.34C108.38 622.76 108.71 624.73 107.87 625.99C107.28 626.87 103.60 626.39 102.66 626.40C98.11 626.48 93.56 626.33 89.01 626.34C89.01 631.46 89.01 636.59 89.01 641.71C94.18 641.71 99.35 641.71 104.52 641.71C104.53 643.09 105.09 645.85 104.00 647.02C103.25 647.81 90.55 647.32 88.88 647.34C88.88 652.81 88.88 658.28 88.88 663.76C95.40 663.76 101.93 663.76 108.46 663.76C108.48 665.08 109.05 667.89 108.03 669.02C106.98 670.18 103.10 669.54 101.66 669.57C95.12 669.67 88.46 669.90 81.95 669.34C81.95 653.04 81.95 636.74 81.95 620.44ZM306.91 620.44C316.43 620.47 327.23 618.88 335.18 625.29C346.04 634.05 344.56 658.57 333.08 666.30C325.91 671.12 315.06 670.01 306.91 669.34C306.91 653.04 306.91 636.74 306.91 620.44ZM313.35 663.38C318.13 663.87 324.27 664.56 328.55 661.78C338.22 655.48 338.35 635.94 329.44 629.03C325.20 625.73 318.43 626.03 313.35 626.53C313.35 638.81 313.35 651.09 313.35 663.38ZM151.54 667.92C151.54 672.44 151.54 676.95 151.54 681.46C149.45 681.46 147.36 681.46 145.27 681.46C145.27 665.58 145.27 649.69 145.27 633.81C149.37 633.84 150.15 634.07 151.66 637.80C171.29 618.21 181.77 664.65 162.42 669.54C158.32 670.58 155.27 668.81 151.54 667.92ZM204.88 633.25C224.42 631.85 226.29 667.89 207.66 670.00C186.76 672.37 184.96 634.68 204.88 633.25ZM243.57 634.34C243.45 635.81 243.78 638.75 242.41 639.75C239.58 641.79 235.76 638.06 233.49 644.58C230.73 652.46 234.22 661.56 232.28 669.49C230.39 669.49 228.50 669.49 226.61 669.49C226.61 657.72 226.61 645.95 226.61 634.18C231.15 633.74 231.17 634.57 232.66 638.46C235.67 634.63 238.68 631.83 243.57 634.34ZM272.13 652.18C265.57 652.18 259.01 652.18 252.44 652.18C252.28 654.01 252.07 655.42 252.44 657.29C253.54 662.78 258.28 665.79 263.70 664.01C265.20 663.52 267.12 661.69 268.67 661.72C270.01 661.74 270.44 662.58 271.36 663.34C272.33 669.36 260.78 670.57 256.78 669.67C244.63 666.93 243.00 650.27 247.61 640.77C251.36 633.05 262.44 630.50 268.46 637.05C272.17 641.08 272.17 647.05 272.13 652.18ZM382.33 637.34C378.14 644.60 371.91 632.93 367.66 642.45C369.28 652.06 385.34 647.02 383.09 661.30C381.44 671.79 366.78 672.40 361.04 665.34C365.50 658.61 367.72 667.85 375.92 663.34C381.63 651.52 360.62 656.82 361.79 642.34C362.64 631.89 376.32 631.14 382.33 637.34ZM411.25 639.34C410.62 639.87 410.47 640.56 409.55 640.76C407.91 641.11 406.20 639.35 404.60 639.04C400.02 638.16 395.96 640.09 394.63 644.70C392.91 650.67 392.83 664.34 401.67 664.62C405.03 664.73 406.99 662.46 409.66 661.14C410.53 662.20 411.41 663.27 412.28 664.34C402.18 677.99 387.35 667.19 387.27 652.34C387.24 646.37 388.52 639.45 393.74 635.87C399.02 632.26 409.78 631.89 411.25 639.34ZM428.86 633.22C448.76 631.81 450.33 668.92 430.66 670.05C410.55 671.21 409.28 634.61 428.86 633.22ZM503.66 652.19C497.28 652.19 490.90 652.19 484.52 652.19C484.23 658.63 486.88 665.61 494.61 664.61C498.60 664.09 499.77 660.34 503.49 663.34C504.72 669.33 492.88 670.45 488.84 669.59C477.64 667.20 475.25 651.38 479.16 642.36C486.64 625.10 509.22 634.48 503.66 652.19ZM527.72 634.05C527.72 635.81 527.72 637.58 527.72 639.34C525.31 639.86 522.11 639.56 520.12 641.28C515.05 645.67 517.60 662.83 516.86 669.50C514.77 669.50 512.68 669.50 510.59 669.50C510.59 657.74 510.59 645.97 510.59 634.20C515.41 633.62 515.91 634.24 516.66 638.92C519.91 635.03 522.41 632.32 527.72 634.05ZM610.88 633.23C630.70 631.49 632.59 668.03 613.66 670.02C593.30 672.16 591.30 634.96 610.88 633.23ZM126.66 645.97C128.08 643.76 132.01 635.01 133.90 634.15C135.68 633.33 137.75 634.03 139.51 634.34C136.45 640.01 133.40 645.67 130.34 651.34C133.61 657.34 136.88 663.34 140.15 669.34C129.72 670.55 131.51 662.46 125.95 656.34C120.48 662.15 122.36 669.96 112.39 669.34C115.51 663.34 118.63 657.34 121.75 651.34C118.57 645.67 115.39 640.01 112.22 634.34C122.25 631.81 120.72 641.09 126.66 645.97ZM355.08 633.86C355.08 645.72 355.08 657.58 355.08 669.44C352.99 669.44 350.90 669.44 348.81 669.44C348.81 657.58 348.81 645.72 348.81 633.86C350.90 633.86 352.99 633.86 355.08 633.86ZM460.66 659.50C463.85 656.23 465.65 645.36 467.31 640.48C467.86 638.88 468.44 635.13 469.98 634.22C471.67 633.22 473.88 634.03 475.58 634.34C471.61 646.08 467.63 657.82 463.66 669.56C461.66 669.56 459.66 669.56 457.66 669.56C453.91 657.82 450.16 646.08 446.42 634.34C448.19 633.94 450.50 633.21 452.16 634.45C453.56 635.50 454.03 639.39 454.59 641.01C456.73 647.14 459.05 653.21 460.66 659.50ZM156.88 639.17C150.35 640.79 151.57 648.34 151.60 653.34C151.64 658.53 151.42 665.08 158.63 664.60C169.20 663.91 168.56 636.26 156.88 639.17ZM203.75 639.09C194.92 640.80 194.79 666.80 207.41 664.43C217.01 662.64 217.20 636.48 203.75 639.09ZM266.76 647.68C265.40 635.51 253.47 635.54 252.24 647.68C257.08 647.68 261.92 647.68 266.76 647.68ZM427.82 639.15C419.18 641.00 418.80 665.50 430.64 664.69C440.35 664.02 441.26 636.29 427.82 639.15ZM498.26 647.68C497.21 634.70 485.50 636.05 484.36 647.68C489.00 647.68 493.63 647.68 498.26 647.68ZM609.88 639.18C601.34 641.48 601.17 666.14 613.54 664.49C622.82 663.25 623.12 635.62 609.88 639.18ZM282.66 660.93C286.01 663.83 285.95 666.95 282.66 669.88C274.75 669.39 275.05 661.53 282.66 660.93ZM532.66 660.66C538.19 662.53 538.29 668.15 532.66 669.97C527.74 667.70 527.85 663.00 532.66 660.66ZM635.66 660.82C639.56 662.47 640.66 666.02 637.66 669.38C630.21 670.29 628.90 663.04 635.66 660.82Z"/></svg>