<svg xmlns="http://www.w3.org/2000/svg" viewBox="0 0 676.1 166.4" fill="currentColor"><path fill-rule="evenodd" d="M583.35 6.00C583.35 46.10 583.35 86.20 583.35 126.30C579.04 127.17 569.65 128.51 565.96 125.50C563.57 123.54 563.23 119.89 561.66 117.49C548.75 131.67 525.16 131.95 513.80 115.62C498.48 93.59 504.02 46.27 535.66 41.73C542.08 40.81 549.20 41.56 555.11 44.32C557.51 45.45 559.36 47.00 561.83 47.85C561.83 33.90 561.83 19.95 561.83 6.00C569.01 6.00 576.18 6.00 583.35 6.00ZM89.45 45.30C92.11 57.22 89.10 57.25 79.66 59.57C80.31 63.50 81.24 67.05 80.80 71.16C79.30 85.18 68.16 93.98 54.66 95.83C48.97 96.61 43.14 94.94 37.66 95.53C35.89 97.54 35.48 98.64 35.17 101.30C38.38 106.43 47.18 105.28 52.66 105.48C68.62 106.07 91.01 107.40 88.58 129.43C88.16 133.24 87.21 136.95 85.10 140.19C72.69 159.29 41.71 160.37 22.83 151.67C13.29 147.26 6.00 135.50 12.26 125.46C14.27 122.24 17.83 120.24 20.98 118.30C19.68 115.78 17.38 113.83 16.54 110.97C13.87 101.92 19.19 96.20 24.97 90.30C7.21 76.57 10.57 51.96 31.84 43.99C39.20 41.24 47.87 40.76 55.59 42.05C59.34 42.68 62.93 44.46 66.66 44.91C74.17 45.81 81.93 44.61 89.45 45.30ZM169.66 88.32C152.28 88.32 134.91 88.32 117.53 88.32C114.63 104.51 131.24 113.60 145.42 110.43C150.81 109.22 156.07 103.16 161.63 103.87C165.90 104.42 168.77 110.30 171.26 113.30C159.04 133.07 122.86 132.15 107.50 116.96C94.04 103.65 92.72 79.78 99.90 63.11C108.26 43.71 134.84 35.60 153.31 45.17C164.67 51.05 170.08 62.02 171.53 74.25C172.12 79.32 172.24 83.85 169.66 88.32ZM212.83 42.11C227.79 39.25 244.99 43.51 254.61 55.87C272.37 78.69 263.32 119.78 233.67 126.93C217.09 130.94 196.97 126.07 187.58 110.87C172.48 86.40 182.57 47.90 212.83 42.11ZM326.89 43.30C327.62 48.81 326.89 58.54 323.66 63.17C318.32 63.52 313.27 60.96 308.06 63.27C298.89 67.32 298.17 76.54 298.15 85.30C298.13 98.22 299.58 114.31 297.66 126.82C290.58 126.82 283.49 126.82 276.41 126.82C276.41 98.86 276.41 70.90 276.41 42.94C282.16 42.94 287.91 42.94 293.66 42.94C294.99 46.89 296.33 50.84 297.66 54.78C303.15 43.67 315.27 38.80 326.89 43.30ZM410.04 126.77C403.05 126.77 396.07 126.77 389.08 126.77C388.44 109.63 389.57 92.43 388.86 75.30C388.49 66.34 384.78 58.42 374.66 58.47C370.08 58.50 360.70 62.19 358.72 66.82C357.21 70.34 358.41 80.12 358.41 84.30C358.42 98.45 358.83 112.67 358.25 126.80C351.20 126.80 344.15 126.80 337.10 126.80C337.10 98.97 337.10 71.13 337.10 43.30C340.56 42.68 351.62 41.72 354.18 44.25C356.09 46.14 356.33 49.20 357.66 51.44C373.38 37.65 400.46 36.38 408.05 59.40C411.38 69.50 410.39 80.83 410.25 91.30C410.10 103.11 410.65 114.97 410.04 126.77ZM492.93 126.30C488.84 127.25 479.73 128.43 476.41 125.04C474.90 123.50 474.48 120.94 473.66 119.00C469.23 120.68 465.84 124.66 461.14 126.29C446.88 131.21 426.12 127.58 422.92 110.30C419.45 91.57 437.04 81.97 452.67 78.80C458.94 77.53 465.35 77.55 471.66 76.68C471.97 74.14 472.04 71.51 471.57 68.95C469.56 57.93 457.93 56.07 448.95 60.16C444.18 62.33 441.50 66.25 435.72 65.54C430.25 64.87 428.51 59.78 426.72 55.30C439.39 37.56 478.16 35.37 489.18 56.32C493.45 64.44 493.14 74.41 493.16 83.30C493.18 97.58 493.73 112.05 492.93 126.30ZM666.66 126.73C662.43 126.92 654.43 128.36 650.88 125.60C648.74 123.94 648.22 120.66 646.66 118.64C643.09 121.66 639.44 124.52 635.01 126.19C618.91 132.27 597.40 125.59 596.59 106.11C595.55 81.11 628.07 78.53 645.66 76.82C646.07 74.14 646.14 71.41 645.67 68.67C643.82 57.86 631.71 55.81 622.95 60.14C618.27 62.46 615.43 66.23 609.71 65.58C604.28 64.95 602.40 59.72 600.66 55.29C613.38 37.45 651.32 35.59 662.66 55.82C670.11 69.11 667.16 87.69 667.17 102.30C667.18 110.16 668.25 119.09 666.66 126.73ZM42.79 57.09C34.19 58.93 30.86 69.65 35.78 76.67C39.80 82.42 49.27 83.29 55.15 80.25C62.07 76.66 63.80 65.02 57.72 59.75C53.89 56.44 47.51 56.08 42.79 57.09ZM152.34 74.82C151.98 70.43 151.25 66.56 148.49 62.98C146.22 60.04 143.24 58.54 139.70 57.66C127.70 54.67 118.70 63.44 117.45 74.82C129.08 74.82 140.71 74.82 152.34 74.82ZM219.89 58.25C209.71 59.25 204.48 67.87 203.19 77.30C200.99 93.44 204.90 113.54 225.66 110.89C234.89 109.71 239.05 101.90 240.53 93.54C243.18 78.58 239.92 56.27 219.89 58.25ZM542.96 58.26C521.96 61.60 520.95 113.06 546.66 110.79C563.65 109.28 561.73 95.82 561.73 83.30C561.74 78.03 562.97 70.50 560.95 65.52C558.51 59.49 548.51 57.38 542.96 58.26ZM471.66 91.75C462.88 91.29 436.57 93.06 444.70 108.79C449.05 117.20 467.44 112.51 471.30 105.49C473.17 102.09 472.18 95.47 471.66 91.75ZM645.66 91.48C637.36 91.71 619.68 90.97 617.95 102.30C617.59 104.65 617.83 107.28 619.13 109.32C623.95 116.83 642.66 112.37 645.63 104.84C647.05 101.25 646.10 95.23 645.66 91.48ZM35.78 122.17C30.02 123.23 27.14 132.23 31.05 136.40C36.42 142.13 52.71 141.51 59.61 139.60C63.35 138.56 67.44 136.87 68.58 132.74C69.82 128.24 66.54 125.20 62.61 123.93C57.38 122.23 41.27 121.16 35.78 122.17Z"/></svg>