<svg xmlns="http://www.w3.org/2000/svg" viewBox="0 0 353.1 433.0"><path fill="#2b4a2b" fill-rule="evenodd" d="M179.06 424.97C154.30 411.14 133.39 390.31 113.89 370.02C88.39 343.48 66.15 314.72 45.73 284.15C28.91 258.97 15.41 230.42 10.66 200.34C8.00 183.50 8.91 165.86 12.20 149.19C27.86 69.82 95.96 9.20 178.06 8.41C219.62 8.00 257.39 23.54 288.94 49.92C292.13 52.59 295.56 55.58 297.82 59.11C308.18 75.36 301.93 98.91 284.29 107.11C261.73 117.61 250.80 101.33 234.48 90.41C223.36 82.97 209.99 77.53 196.79 75.28C185.40 73.34 172.84 73.10 161.49 75.33C97.26 87.96 60.46 157.26 84.02 217.94C105.87 274.22 172.01 301.32 226.15 272.90C239.80 265.74 252.69 255.09 261.65 242.49C264.53 238.44 268.80 233.43 269.23 228.29C270.46 213.51 247.31 217.83 238.06 217.82C225.73 217.82 213.39 217.83 201.06 217.83C193.57 217.83 185.60 218.59 178.31 216.53C162.71 212.11 152.69 195.22 156.66 179.39C159.78 166.93 170.20 156.79 183.10 155.00C190.54 153.97 198.55 154.74 206.06 154.74C223.06 154.73 240.06 154.75 257.06 154.72C282.43 154.68 303.47 154.09 323.31 172.58C339.68 187.82 345.10 210.89 339.52 232.31C336.74 243.00 331.08 252.96 325.86 262.61C320.71 272.13 314.47 281.19 308.25 290.04C287.23 319.94 264.36 348.40 238.59 374.37C220.62 392.47 201.68 412.66 179.06 424.97Z"/></svg>