<svg xmlns="http://www.w3.org/2000/svg" viewBox="0 0 349.1 429.0" fill="currentColor"><path fill-rule="evenodd" d="M177.06 422.97C152.30 409.14 131.39 388.31 111.89 368.02C86.39 341.48 64.15 312.72 43.73 282.15C26.91 256.97 13.41 228.42 8.66 198.34C6.00 181.50 6.91 163.86 10.20 147.19C25.86 67.82 93.96 7.20 176.06 6.41C217.62 6.00 255.39 21.54 286.94 47.92C290.13 50.59 293.56 53.58 295.82 57.11C306.18 73.36 299.93 96.91 282.29 105.11C259.73 115.61 248.80 99.33 232.48 88.41C221.36 80.97 207.99 75.53 194.79 73.28C183.40 71.34 170.84 71.10 159.49 73.33C95.26 85.96 58.46 155.26 82.02 215.94C103.87 272.22 170.01 299.32 224.15 270.90C237.80 263.74 250.69 253.09 259.65 240.49C262.53 236.44 266.80 231.43 267.23 226.29C268.46 211.51 245.31 215.83 236.06 215.82C223.73 215.82 211.39 215.83 199.06 215.83C191.57 215.83 183.60 216.59 176.31 214.53C160.71 210.11 150.69 193.22 154.66 177.39C157.78 164.93 168.20 154.79 181.10 153.00C188.54 151.97 196.55 152.74 204.06 152.74C221.06 152.73 238.06 152.75 255.06 152.72C280.43 152.68 301.47 152.09 321.31 170.58C337.68 185.82 343.10 208.89 337.52 230.31C334.74 241.00 329.08 250.96 323.86 260.61C318.71 270.13 312.47 279.19 306.25 288.04C285.23 317.94 262.36 346.40 236.59 372.37C218.62 390.47 199.68 410.66 177.06 422.97Z"/></svg>