<svg xmlns="http://www.w3.org/2000/svg" viewBox="12 6 396.84 90" role="img" aria-label="Zarparia — Chart your journey.">
  <g transform="translate(16 9.88) scale(0.07)"><path d="M33.321 2.764 C41.507 0.991 50.688 1.986 59.004 1.986 C75.333 1.986 91.677 2.144 108.007 2.144 C158.927 2.144 209.861 2.144 260.781 2.144 C422.679 2.144 584.591 2.144 746.488 2.144 C802.698 2.144 858.907 2.144 915.117 2.144 C927.598 2.144 940.108 1.842 952.589 2.116 C963.932 2.361 975.275 3.441 984.341 11.008 C999.748 23.879 999.532 40.741 999.532 59.348 C999.532 72.795 999.532 86.257 999.532 99.704 C999.532 179.939 999.532 260.16 999.532 340.395 C999.532 403.335 999.532 466.261 999.532 529.201 C999.532 569.456 1001.448 610.114 997.528 650.21 C994.891 677.032 988.65 703.335 981.79 729.336 C970.735 771.204 947.329 814.961 923.26 850.834 C870.25 929.83 800.118 994.543 722.967 1049.7 C703.481 1063.623 683.087 1076.148 663.111 1089.306 C634.257 1108.302 604.365 1125.194 573.911 1141.423 C559.138 1149.292 544.379 1157.161 529.405 1164.685 C525.297 1166.746 521.406 1169.311 517.168 1171.113 C493.402 1181.288 471.221 1164.685 450.654 1154.365 C439.902 1148.96 429.381 1143.037 418.874 1137.171 C390.928 1121.605 362.895 1106.27 335.987 1088.86 C322.309 1080.01 308.891 1070.7 295.242 1061.793 C268.78 1044.555 244.221 1024.594 219.431 1005.093 C203.909 992.886 189.367 979.525 174.911 966.02 C98.307 894.375 33.753 804.382 11.053 700.51 C5.605 675.605 1.987 649.864 0.705 624.325 C-0.838 593.669 0.633 562.768 0.633 532.084 C0.633 461.462 0.633 390.84 0.633 320.218 C0.633 240.948 0.791 161.678 0.633 82.409 C0.575 57.071 -5.262 21.14 21.805 7.059 C25.408 5.185 29.357 3.614 33.321 2.764 ZM43.496 21.702 C40.426 22.048 36.722 22.308 33.839 23.389 C19.124 28.851 20.767 46.838 20.767 59.348 C20.767 71.844 20.767 84.325 20.767 96.821 C20.767 178.008 20.767 259.209 20.767 340.395 C20.767 405.728 20.767 471.075 20.767 536.408 C20.767 572.036 19.499 607.981 23.145 643.378 C23.621 648.034 23.289 652.819 23.866 657.474 C25.624 671.843 28.319 686.198 31.418 700.352 C33.148 708.25 35.684 716.09 38.322 723.715 C42.271 735.115 45.499 746.761 50.126 757.959 C57.836 776.58 66.816 794.481 76.703 812.021 C131.586 909.335 218.105 984.137 308.948 1046.789 C329.832 1061.187 351.134 1074.923 372.941 1087.937 C378.908 1091.483 384.644 1095.792 390.784 1098.992 C402.933 1105.333 414.694 1112.669 426.772 1119.198 C434.252 1123.248 442.179 1126.578 449.385 1131.06 C458.653 1136.825 469.073 1141.336 478.787 1146.323 C487.377 1150.733 496.76 1156.426 506.906 1153.573 C511.591 1152.247 516.231 1149.321 520.57 1147.13 C528.828 1142.965 536.942 1138.598 544.985 1134.058 C552.407 1129.864 560.219 1126.361 567.714 1122.283 C593.887 1108.057 620.06 1093.198 645.124 1077.056 C661.756 1066.347 678.85 1056.273 695.122 1045.002 C718.254 1028.975 741.011 1012.314 762.933 994.644 C815.28 952.458 861.559 904.291 900.127 849.379 C910.36 834.808 920.204 819.862 928.304 804.036 C932.974 794.899 938.638 786.194 942.717 776.667 C950.557 758.319 957.576 739.871 963.5 720.832 C966.094 712.487 967.708 703.782 969.582 695.264 C974.079 674.74 977.149 655.384 979.051 634.414 C980.262 621.14 979.642 607.376 979.584 594.058 C979.541 577.729 979.685 561.385 979.527 545.055 C978.893 478.771 979.527 412.444 979.527 346.16 C979.527 266.891 979.527 187.621 979.527 108.351 C979.527 90.09 979.527 71.844 979.527 53.583 C979.527 43.768 980.046 33.377 971.729 26.531 C965.446 21.371 957.331 22.437 949.707 22.437 C935.77 22.437 921.847 22.437 907.91 22.437 C850.735 22.437 793.574 22.437 736.399 22.437 C579.777 22.437 423.169 22.437 266.546 22.437 C215.136 22.437 163.741 22.437 112.331 22.437 C95.511 22.437 78.706 22.495 61.886 22.437 C55.718 22.409 49.737 21.011 43.496 21.702 ZM937.571 62.951 C939.532 74.554 938.407 86.545 938.292 98.262 C938.076 118.44 938.292 138.618 938.292 158.796 C938.292 223.177 938.292 287.544 938.292 351.925 C938.292 417.748 938.292 483.556 938.292 549.379 C938.292 572.295 939.834 595.773 937.744 618.574 C937.298 623.359 937.816 628.202 937.413 632.972 C937.211 635.408 936.418 637.743 936.188 640.179 C935.813 644.387 936 648.668 935.467 652.876 C934.285 662.317 932.541 671.598 930.769 680.895 C929.644 686.905 928.708 693.088 927.093 699.011 C893.469 822.586 800.219 916.47 699.834 990.551 C653.685 1024.608 605.244 1054.442 555.074 1082.187 C542.347 1089.22 529.621 1096.311 516.621 1102.84 C511.677 1105.319 505.768 1110.623 500.032 1110.536 C494.526 1110.464 489.237 1105.521 484.509 1103.157 C471.206 1096.484 458.192 1089.263 445.047 1082.143 C425.489 1071.564 406.594 1060.078 387.339 1048.98 C378.072 1043.633 368.545 1038.113 359.652 1032.045 C341.074 1019.405 322.669 1006.722 304.48 993.549 C289.506 982.71 274.776 971.468 260.421 959.809 C257.956 957.805 254.613 956.984 252.912 955.542 C252.292 955.024 252.033 953.582 251.514 952.905 C249.41 950.109 245.922 947.428 243.227 945.223 C231.639 935.783 220.786 925.463 210.207 914.841 C205.883 910.474 201.329 906.496 197.207 901.913 C190.419 894.361 182.607 887.688 176.064 879.89 C167.301 869.427 158.235 859.136 149.919 848.283 C113.426 800.592 83.087 745.002 70.174 686.098 C60.07 640.049 61.959 593.439 61.959 546.496 C61.959 484.046 61.959 421.582 61.959 359.132 C61.959 293.799 61.959 228.452 61.959 163.119 C61.959 141.976 61.959 120.847 61.959 99.704 C61.959 87.467 61.051 75.13 62.564 62.951 C354.233 62.951 645.902 62.951 937.571 62.951 ZM841.612 77.004 C838.311 81.14 837.648 85.695 836.092 90.696 C832.878 101.058 828.655 111.147 825.311 121.481 C823.855 125.978 822.501 134.092 819.892 137.796 C817.514 141.183 808.434 142.812 804.485 144.095 C798.417 146.055 792.566 148.505 786.57 150.595 C777.101 153.867 767.444 156.504 758.134 160.237 C762.832 164.301 769.044 165.281 775.011 167.155 C784.322 170.095 793.56 173.439 802.727 176.797 C806.949 178.354 816.548 180.04 819.315 183.283 C822.385 186.886 823.798 195.663 825.369 200.304 C828.395 209.168 831.782 217.931 834.78 226.823 C836.827 232.877 837.677 239.29 841.612 244.436 C848.645 224.056 855.679 203.677 862.712 183.297 C867.944 179.896 874.487 178.613 880.368 176.61 C889.217 173.583 897.937 170.009 906.872 167.256 C912.767 165.454 919.873 164.489 924.369 160.237 C910.331 154.861 895.861 150.379 881.665 145.478 C877.73 144.124 866.171 141.342 863.606 139.007 C860.593 136.269 858.979 127.405 857.552 123.355 C852.104 107.948 847.06 92.425 841.612 77.004 ZM757.269 235.932 C598.052 235.932 438.821 235.932 279.59 235.932 C278.249 244.234 278.12 252.766 277.212 261.126 C275.338 278.406 273.45 295.73 271.663 313.011 C270.928 320.16 270.87 327.482 269.89 334.587 C267.887 348.928 266.849 363.427 265.451 377.854 C264.629 386.256 262.28 395.034 263.664 403.35 C273.753 403.35 283.842 403.35 293.93 403.35 C298.845 395.106 303.14 386.501 307.867 378.142 C318.547 359.29 329.645 340.655 342.011 322.855 C350.688 310.359 360.301 297.763 372.638 288.625 C385.955 278.738 404.533 273.881 420.82 272.425 C427.983 271.791 435.203 271.935 442.381 271.517 C467.3 270.105 492.378 270.84 517.327 270.84 C540.474 270.84 563.822 270.061 586.94 271.214 C585.268 276.504 581.348 280.612 578.091 285.18 C572.095 293.597 565.898 301.87 559.902 310.302 C542.347 334.947 524.303 359.247 506.69 383.878 C445.249 469.763 382.756 554.899 321.084 640.626 C302.203 666.871 283.121 692.972 264.211 719.204 C257.567 728.413 250.865 737.594 244.207 746.804 C241.555 750.45 235.271 757.195 234.276 761.332 C232.792 767.428 233.959 778.396 234.003 784.983 C314.742 784.983 395.482 784.983 476.222 784.983 C476.222 832.53 476.222 880.078 476.222 927.625 C464.576 927.322 453.479 924.786 442.15 922.336 C429.871 919.684 417.793 916.585 405.989 912.247 C394.949 908.197 383.995 904.666 374.137 898.166 C382.54 888.077 390.957 877.988 399.374 867.899 C396.246 865.247 392.023 864.815 388.045 863.719 C379.325 861.327 370.534 859.151 361.785 856.83 C340.224 851.094 318.85 844.68 297.159 839.29 C288.324 837.085 274.257 831.334 265.754 831.867 C282.833 874.687 299.912 917.522 316.991 960.342 C326.114 950.585 335.252 940.842 344.375 931.084 C353.873 934.024 362.866 940.553 372.105 944.646 C386.719 951.132 402.515 956.854 418.124 960.472 C425.172 962.115 432.335 964.277 439.498 965.329 C443.505 965.934 448.708 965.631 451.749 968.788 C453.882 970.993 454.906 974.538 456.275 977.262 C459.157 983.027 462.126 988.764 464.821 994.615 C471.567 1009.244 479.45 1023.325 486.599 1037.767 C490.692 1046.04 493.575 1055.696 500.032 1062.369 C506.301 1056.431 508.636 1047.265 512.527 1039.684 C521.189 1022.821 529.707 1005.872 538.225 988.937 C540.257 984.887 545.922 971.094 548.199 968.672 C551.153 965.545 556.63 965.948 560.565 965.314 C568.088 964.089 575.756 962.071 583.193 960.255 C600.084 956.105 617.106 949.777 632.859 942.413 C640.497 938.853 647.689 933.664 655.688 931.084 C664.812 940.813 673.949 950.541 683.073 960.284 C685.84 956.551 687.036 951.939 688.679 947.63 C691.288 940.741 694.156 933.923 696.851 927.063 C704.749 907.044 712.215 886.837 720.43 866.962 C723.846 858.733 727.002 850.474 730.202 842.158 C731.268 839.405 733.546 835.989 733.92 833.092 C734.007 832.444 733.517 831.824 733.517 831.161 C721.324 833.381 709.087 837.431 697.211 840.89 C677.682 846.583 657.807 851.411 638.177 856.758 C629.054 859.237 619.873 861.428 610.822 864.065 C607.161 865.132 603.529 865.276 600.762 867.899 C609.15 877.988 617.538 888.077 625.926 898.166 C616.255 904.824 605.086 908.427 594.089 912.29 C577.961 917.954 561.559 921.947 544.754 925.002 C537.678 926.299 531.076 927.495 523.841 927.51 C523.841 880.006 523.841 832.487 523.841 784.983 C598.845 784.983 673.848 784.983 748.852 784.983 C754.992 723.109 761.132 661.236 767.271 599.348 C757.946 599.348 748.607 599.348 739.282 599.348 C735.664 603.484 733.892 609.35 731.586 614.38 C728.285 621.529 724.696 628.62 721.035 635.581 C708.482 659.506 694.631 682.566 678.994 704.589 C672.796 713.309 666.411 722.922 658.528 730.229 C642.4 745.161 618.677 746.112 598.038 747.813 C577.903 749.456 557.711 749.283 537.505 749.283 C513.479 749.283 489.467 749.283 465.441 749.283 C451.994 749.283 438.533 749.283 425.086 749.283 C417.894 749.283 409.794 750.277 402.991 748.274 C414.103 734.928 423.702 719.996 433.834 705.872 C455.093 676.268 476.697 646.924 497.927 617.277 C554.194 538.656 611.427 460.741 667.968 382.293 C687.886 354.635 708.107 327.222 727.853 299.449 C734.439 290.196 741.17 281.03 747.886 271.877 C750.019 268.981 755.828 262.293 756.837 259.295 C758.552 254.179 757.298 241.798 757.269 235.932 Z" fill="#232E42" fill-rule="evenodd"/><path d="M43.496 21.702 C49.737 21.011 55.718 22.409 61.886 22.437 C78.706 22.495 95.511 22.437 112.331 22.437 C163.741 22.437 215.136 22.437 266.546 22.437 C423.169 22.437 579.777 22.437 736.399 22.437 C793.574 22.437 850.735 22.437 907.91 22.437 C921.847 22.437 935.77 22.437 949.707 22.437 C957.331 22.437 965.446 21.371 971.729 26.531 C980.046 33.377 979.527 43.768 979.527 53.583 C979.527 71.844 979.527 90.09 979.527 108.351 C979.527 187.621 979.527 266.891 979.527 346.16 C979.527 412.444 978.893 478.771 979.527 545.055 C979.685 561.385 979.541 577.729 979.584 594.058 C979.642 607.376 980.262 621.14 979.051 634.414 C977.149 655.384 974.079 674.74 969.582 695.264 C967.708 703.782 966.094 712.487 963.5 720.832 C957.576 739.871 950.557 758.319 942.717 776.667 C938.638 786.194 932.974 794.899 928.304 804.036 C920.204 819.862 910.36 834.808 900.127 849.379 C861.559 904.291 815.28 952.458 762.933 994.644 C741.011 1012.314 718.254 1028.975 695.122 1045.002 C678.85 1056.273 661.756 1066.347 645.124 1077.056 C620.06 1093.198 593.887 1108.057 567.714 1122.283 C560.219 1126.361 552.407 1129.864 544.985 1134.058 C536.942 1138.598 528.828 1142.965 520.57 1147.13 C516.231 1149.321 511.591 1152.247 506.906 1153.573 C496.76 1156.426 487.377 1150.733 478.787 1146.323 C469.073 1141.336 458.653 1136.825 449.385 1131.06 C442.179 1126.578 434.252 1123.248 426.772 1119.198 C414.694 1112.669 402.933 1105.333 390.784 1098.992 C384.644 1095.792 378.908 1091.483 372.941 1087.937 C351.134 1074.923 329.832 1061.187 308.948 1046.789 C218.105 984.137 131.586 909.335 76.703 812.021 C66.816 794.481 57.836 776.58 50.126 757.959 C45.499 746.761 42.271 735.115 38.322 723.715 C35.684 716.09 33.148 708.25 31.418 700.352 C28.319 686.198 25.624 671.843 23.866 657.474 C23.289 652.819 23.621 648.034 23.145 643.378 C19.499 607.981 20.767 572.036 20.767 536.408 C20.767 471.075 20.767 405.728 20.767 340.395 C20.767 259.209 20.767 178.008 20.767 96.821 C20.767 84.325 20.767 71.844 20.767 59.348 C20.767 46.838 19.124 28.851 33.839 23.389 C36.722 22.308 40.426 22.048 43.496 21.702 ZM937.571 62.951 C645.902 62.951 354.233 62.951 62.564 62.951 C61.051 75.13 61.959 87.467 61.959 99.704 C61.959 120.847 61.959 141.976 61.959 163.119 C61.959 228.452 61.959 293.799 61.959 359.132 C61.959 421.582 61.959 484.046 61.959 546.496 C61.959 593.439 60.07 640.049 70.174 686.098 C83.087 745.002 113.426 800.592 149.919 848.283 C158.235 859.136 167.301 869.427 176.064 879.89 C182.607 887.688 190.419 894.361 197.207 901.913 C201.329 906.496 205.883 910.474 210.207 914.841 C220.786 925.463 231.639 935.783 243.227 945.223 C245.922 947.428 249.41 950.109 251.514 952.905 C252.033 953.582 252.292 955.024 252.912 955.542 C254.613 956.984 257.956 957.805 260.421 959.809 C274.776 971.468 289.506 982.71 304.48 993.549 C322.669 1006.722 341.074 1019.405 359.652 1032.045 C368.545 1038.113 378.072 1043.633 387.339 1048.98 C406.594 1060.078 425.489 1071.564 445.047 1082.143 C458.192 1089.263 471.206 1096.484 484.509 1103.157 C489.237 1105.521 494.526 1110.464 500.032 1110.536 C505.768 1110.623 511.677 1105.319 516.621 1102.84 C529.621 1096.311 542.347 1089.22 555.074 1082.187 C605.244 1054.442 653.685 1024.608 699.834 990.551 C800.219 916.47 893.469 822.586 927.093 699.011 C928.708 693.088 929.644 686.905 930.769 680.895 C932.541 671.598 934.285 662.317 935.467 652.876 C936 648.668 935.813 644.387 936.188 640.179 C936.418 637.743 937.211 635.408 937.413 632.972 C937.816 628.202 937.298 623.359 937.744 618.574 C939.834 595.773 938.292 572.295 938.292 549.379 C938.292 483.556 938.292 417.748 938.292 351.925 C938.292 287.544 938.292 223.177 938.292 158.796 C938.292 138.618 938.076 118.44 938.292 98.262 C938.407 86.545 939.532 74.554 937.571 62.951 ZM841.612 77.004 C847.06 92.425 852.104 107.948 857.552 123.355 C858.979 127.405 860.593 136.269 863.606 139.007 C866.171 141.342 877.73 144.124 881.665 145.478 C895.861 150.379 910.331 154.861 924.369 160.237 C919.873 164.489 912.767 165.454 906.872 167.256 C897.937 170.009 889.217 173.583 880.368 176.61 C874.487 178.613 867.944 179.896 862.712 183.297 C855.679 203.677 848.645 224.056 841.612 244.436 C837.677 239.29 836.827 232.877 834.78 226.823 C831.782 217.931 828.395 209.168 825.369 200.304 C823.798 195.663 822.385 186.886 819.315 183.283 C816.548 180.04 806.949 178.354 802.727 176.797 C793.56 173.439 784.322 170.095 775.011 167.155 C769.044 165.281 762.832 164.301 758.134 160.237 C767.444 156.504 777.101 153.867 786.57 150.595 C792.566 148.505 798.417 146.055 804.485 144.095 C808.434 142.812 817.514 141.183 819.892 137.796 C822.501 134.092 823.855 125.978 825.311 121.481 C828.655 111.147 832.878 101.058 836.092 90.696 C837.648 85.695 838.311 81.14 841.612 77.004 ZM757.269 235.932 C757.298 241.798 758.552 254.179 756.837 259.295 C755.828 262.293 750.019 268.981 747.886 271.877 C741.17 281.03 734.439 290.196 727.853 299.449 C708.107 327.222 687.886 354.635 667.968 382.293 C611.427 460.741 554.194 538.656 497.927 617.277 C476.697 646.924 455.093 676.268 433.834 705.872 C423.702 719.996 414.103 734.928 402.991 748.274 C409.794 750.277 417.894 749.283 425.086 749.283 C438.533 749.283 451.994 749.283 465.441 749.283 C489.467 749.283 513.479 749.283 537.505 749.283 C557.711 749.283 577.903 749.456 598.038 747.813 C618.677 746.112 642.4 745.161 658.528 730.229 C666.411 722.922 672.796 713.309 678.994 704.589 C694.631 682.566 708.482 659.506 721.035 635.581 C724.696 628.62 728.285 621.529 731.586 614.38 C733.892 609.35 735.664 603.484 739.282 599.348 C748.607 599.348 757.946 599.348 767.271 599.348 C761.132 661.236 754.992 723.109 748.852 784.983 C673.848 784.983 598.845 784.983 523.841 784.983 C523.841 832.487 523.841 880.006 523.841 927.51 C531.076 927.495 537.678 926.299 544.754 925.002 C561.559 921.947 577.961 917.954 594.089 912.29 C605.086 908.427 616.255 904.824 625.926 898.166 C617.538 888.077 609.15 877.988 600.762 867.899 C603.529 865.276 607.161 865.132 610.822 864.065 C619.873 861.428 629.054 859.237 638.177 856.758 C657.807 851.411 677.682 846.583 697.211 840.89 C709.087 837.431 721.324 833.381 733.517 831.161 C733.517 831.824 734.007 832.444 733.92 833.092 C733.546 835.989 731.268 839.405 730.202 842.158 C727.002 850.474 723.846 858.733 720.43 866.962 C712.215 886.837 704.749 907.044 696.851 927.063 C694.156 933.923 691.288 940.741 688.679 947.63 C687.036 951.939 685.84 956.551 683.073 960.284 C673.949 950.541 664.812 940.813 655.688 931.084 C647.689 933.664 640.497 938.853 632.859 942.413 C617.106 949.777 600.084 956.105 583.193 960.255 C575.756 962.071 568.088 964.089 560.565 965.314 C556.63 965.948 551.153 965.545 548.199 968.672 C545.922 971.094 540.257 984.887 538.225 988.937 C529.707 1005.872 521.189 1022.821 512.527 1039.684 C508.636 1047.265 506.301 1056.431 500.032 1062.369 C493.575 1055.696 490.692 1046.04 486.599 1037.767 C479.45 1023.325 471.567 1009.244 464.821 994.615 C462.126 988.764 459.157 983.027 456.275 977.262 C454.906 974.538 453.882 970.993 451.749 968.788 C448.708 965.631 443.505 965.934 439.498 965.329 C432.335 964.277 425.172 962.115 418.124 960.472 C402.515 956.854 386.719 951.132 372.105 944.646 C362.866 940.553 353.873 934.024 344.375 931.084 C335.252 940.842 326.114 950.585 316.991 960.342 C299.912 917.522 282.833 874.687 265.754 831.867 C274.257 831.334 288.324 837.085 297.159 839.29 C318.85 844.68 340.224 851.094 361.785 856.83 C370.534 859.151 379.325 861.327 388.045 863.719 C392.023 864.815 396.246 865.247 399.374 867.899 C390.957 877.988 382.54 888.077 374.137 898.166 C383.995 904.666 394.949 908.197 405.989 912.247 C417.793 916.585 429.871 919.684 442.15 922.336 C453.479 924.786 464.576 927.322 476.222 927.625 C476.222 880.078 476.222 832.53 476.222 784.983 C395.482 784.983 314.742 784.983 234.003 784.983 C233.959 778.396 232.792 767.428 234.276 761.332 C235.271 757.195 241.555 750.45 244.207 746.804 C250.865 737.594 257.567 728.413 264.211 719.204 C283.121 692.972 302.203 666.871 321.084 640.626 C382.756 554.899 445.249 469.763 506.69 383.878 C524.303 359.247 542.347 334.947 559.902 310.302 C565.898 301.87 572.095 293.597 578.091 285.18 C581.348 280.612 585.268 276.504 586.94 271.214 C563.822 270.061 540.474 270.84 517.327 270.84 C492.378 270.84 467.3 270.105 442.381 271.517 C435.203 271.935 427.983 271.791 420.82 272.425 C404.533 273.881 385.955 278.738 372.638 288.625 C360.301 297.763 350.688 310.359 342.011 322.855 C329.645 340.655 318.547 359.29 307.867 378.142 C303.14 386.501 298.845 395.106 293.93 403.35 C283.842 403.35 273.753 403.35 263.664 403.35 C262.28 395.034 264.629 386.256 265.451 377.854 C266.849 363.427 267.887 348.928 269.89 334.587 C270.87 327.482 270.928 320.16 271.663 313.011 C273.45 295.73 275.338 278.406 277.212 261.126 C278.12 252.766 278.249 244.234 279.59 235.932 C438.821 235.932 598.052 235.932 757.269 235.932 Z" fill="#C4A572" fill-rule="evenodd"/></g>
  <path d="M144.60 40.56L147.02 40.56L145.47 56L102.55 56L102.55 54.03L132.10 13.24L122.08 13.24Q119.02 13.24 117.66 13.41Q116.31 13.59 115.12 14.14Q113.73 14.65 112.05 16.86Q110.38 19.07 107.58 24.22L104.96 24.22L106.38 10.27L146.15 10.27L146.15 12.24L116.60 53.04L128.10 53.04Q133.52 53.04 135.47 52.60Q137.42 52.17 138.32 51.04Q140.16 48.81 141.72 46.15Q143.28 43.50 144.60 40.56M186.21 52.97L186.21 55.32Q184.79 55.94 182.86 56.45Q180.92 56.97 178.76 56.97Q174.80 56.97 172.93 55.79Q171.06 54.61 170.38 52.42L170.19 52.42Q169.10 53.52 168.08 54.29Q167.07 55.07 165.91 55.61Q164.39 56.32 162.99 56.66Q161.59 57 159.07 57Q155.33 57 152.69 54.79Q150.05 52.58 150.05 48.94Q150.05 46.85 150.63 45.38Q151.21 43.92 152.27 42.79Q153.24 41.76 154.51 41.08Q155.79 40.40 157.30 39.82Q160.20 38.76 164.26 37.61Q168.32 36.47 170.19 35.57L170.19 32.47Q170.19 31.67 170.06 30.35Q169.93 29.03 169.51 28.12Q169.06 27.09 168.10 26.38Q167.13 25.67 165.55 25.67Q164.13 25.67 163.18 26.08Q162.23 26.48 161.65 26.90Q161.75 27.54 162.20 28.87Q162.65 30.19 162.65 31.41Q162.65 31.96 162.36 32.78Q162.07 33.60 161.52 34.09Q160.78 34.73 159.86 35.08Q158.94 35.44 157.04 35.44Q154.34 35.44 152.95 34.13Q151.56 32.83 151.56 30.73Q151.56 28.93 153 27.50Q154.43 26.06 156.50 25.13Q158.53 24.16 161.17 23.63Q163.81 23.10 166.07 23.10Q169.19 23.10 171.80 23.47Q174.41 23.84 176.51 25Q178.51 26.13 179.68 28.27Q180.86 30.41 180.86 33.86Q180.86 37.50 180.71 42.50Q180.57 47.49 180.57 49.07Q180.57 50.52 181 51.36Q181.44 52.20 182.34 52.62Q182.89 52.87 184.06 52.92Q185.24 52.97 186.21 52.97M170.06 49.46L170.19 38.53Q168.39 39.15 166.61 39.94Q164.84 40.72 163.71 41.59Q162.52 42.50 161.84 43.90Q161.17 45.30 161.17 47.20Q161.17 49.72 162.31 50.84Q163.46 51.97 165.13 51.97Q166.90 51.97 168.05 51.25Q169.19 50.52 170.06 49.46M220.79 29.93Q220.79 32.38 219.27 34.23Q217.76 36.08 215.28 36.08Q212.92 36.08 211.30 34.89Q209.67 33.70 209.67 31.38Q209.67 30.25 209.83 29.62Q209.99 28.99 210.12 28.45Q208.64 28.51 206.99 29.48Q205.35 30.44 204.09 32.06L204.09 49.75Q204.09 50.88 204.45 51.62Q204.80 52.36 205.64 52.78Q206.35 53.13 207.94 53.37Q209.54 53.62 210.25 53.65L210.25 56L188.69 56L188.69 53.65Q189.50 53.58 190.32 53.47Q191.14 53.36 191.72 53.16Q192.75 52.81 193.14 52.07Q193.52 51.33 193.52 50.13L193.52 31.38Q193.52 30.22 192.98 29.30Q192.43 28.38 191.65 27.83Q191.07 27.45 190.19 27.19Q189.30 26.93 188.24 26.83L188.24 24.48L203.61 23.64L204.09 24.13L204.09 28.80L204.22 28.80Q206.45 26.22 208.94 24.76Q211.44 23.29 214.15 23.29Q217.15 23.29 218.97 25.14Q220.79 27 220.79 29.93M262.26 40.31Q262.26 47.11 257.72 51.97Q253.17 56.84 246.21 56.84Q243.12 56.84 241.19 56.21Q239.25 55.58 238 54.68L237.74 54.68L237.74 63.73Q237.74 64.86 238.24 65.70Q238.74 66.54 239.64 66.92Q240.51 67.28 242.10 67.57Q243.70 67.86 244.76 67.92L244.76 70.31L221.50 70.31L221.50 67.92Q222.30 67.86 223.53 67.68Q224.75 67.50 225.36 67.31Q226.39 66.96 226.77 66.10Q227.14 65.25 227.14 64.15L227.14 31.19Q227.04 30.12 226.64 29.32Q226.23 28.51 225.36 27.90Q224.72 27.48 223.66 27.21Q222.59 26.93 221.56 26.83L221.56 24.48L237.25 23.64L237.74 24.06L237.74 27.64L238 27.71Q240.12 25.55 242.72 24.35Q245.31 23.16 247.86 23.16Q254.53 23.16 258.40 27.88Q262.26 32.60 262.26 40.31M250.69 40.43Q250.69 38.02 250.34 35.81Q249.98 33.60 249.08 31.86Q248.21 30.12 246.78 29.09Q245.34 28.06 243.28 28.06Q241.19 28.06 239.93 28.78Q238.67 29.51 237.74 30.67L237.74 48.94Q237.93 49.59 238.48 50.60Q239.03 51.62 239.58 52.23Q240.38 53.10 241.41 53.52Q242.44 53.94 243.67 53.94Q246.86 53.94 248.78 50.51Q250.69 47.07 250.69 40.43M303.25 52.97L303.25 55.32Q301.84 55.94 299.90 56.45Q297.97 56.97 295.81 56.97Q291.85 56.97 289.98 55.79Q288.11 54.61 287.43 52.42L287.24 52.42Q286.14 53.52 285.13 54.29Q284.11 55.07 282.95 55.61Q281.44 56.32 280.04 56.66Q278.63 57 276.12 57Q272.38 57 269.74 54.79Q267.10 52.58 267.10 48.94Q267.10 46.85 267.68 45.38Q268.26 43.92 269.32 42.79Q270.29 41.76 271.56 41.08Q272.83 40.40 274.35 39.82Q277.25 38.76 281.31 37.61Q285.37 36.47 287.24 35.57L287.24 32.47Q287.24 31.67 287.11 30.35Q286.98 29.03 286.56 28.12Q286.11 27.09 285.14 26.38Q284.18 25.67 282.60 25.67Q281.18 25.67 280.23 26.08Q279.28 26.48 278.70 26.90Q278.79 27.54 279.25 28.87Q279.70 30.19 279.70 31.41Q279.70 31.96 279.41 32.78Q279.12 33.60 278.57 34.09Q277.83 34.73 276.91 35.08Q275.99 35.44 274.09 35.44Q271.38 35.44 270 34.13Q268.61 32.83 268.61 30.73Q268.61 28.93 270.05 27.50Q271.48 26.06 273.54 25.13Q275.57 24.16 278.21 23.63Q280.86 23.10 283.11 23.10Q286.24 23.10 288.85 23.47Q291.46 23.84 293.55 25Q295.55 26.13 296.73 28.27Q297.91 30.41 297.91 33.86Q297.91 37.50 297.76 42.50Q297.62 47.49 297.62 49.07Q297.62 50.52 298.05 51.36Q298.49 52.20 299.39 52.62Q299.94 52.87 301.11 52.92Q302.29 52.97 303.25 52.97M287.11 49.46L287.24 38.53Q285.43 39.15 283.66 39.94Q281.89 40.72 280.76 41.59Q279.57 42.50 278.89 43.90Q278.21 45.30 278.21 47.20Q278.21 49.72 279.36 50.84Q280.50 51.97 282.18 51.97Q283.95 51.97 285.10 51.25Q286.24 50.52 287.11 49.46M337.83 29.93Q337.83 32.38 336.32 34.23Q334.80 36.08 332.32 36.08Q329.97 36.08 328.34 34.89Q326.72 33.70 326.72 31.38Q326.72 30.25 326.88 29.62Q327.04 28.99 327.17 28.45Q325.68 28.51 324.04 29.48Q322.40 30.44 321.14 32.06L321.14 49.75Q321.14 50.88 321.50 51.62Q321.85 52.36 322.69 52.78Q323.40 53.13 324.99 53.37Q326.59 53.62 327.30 53.65L327.30 56L305.74 56L305.74 53.65Q306.54 53.58 307.36 53.47Q308.19 53.36 308.77 53.16Q309.80 52.81 310.18 52.07Q310.57 51.33 310.57 50.13L310.57 31.38Q310.57 30.22 310.02 29.30Q309.47 28.38 308.70 27.83Q308.12 27.45 307.23 27.19Q306.35 26.93 305.29 26.83L305.29 24.48L320.66 23.64L321.14 24.13L321.14 28.80L321.27 28.80Q323.49 26.22 325.99 24.76Q328.49 23.29 331.20 23.29Q334.19 23.29 336.01 25.14Q337.83 27 337.83 29.93M360.42 53.65L360.42 56L340.06 56L340.06 53.65Q340.90 53.58 341.70 53.49Q342.51 53.39 343.09 53.16Q344.12 52.78 344.54 52.05Q344.96 51.33 344.96 50.13L344.96 31.38Q344.96 30.25 344.44 29.40Q343.92 28.54 343.15 28.03Q342.57 27.64 341.40 27.29Q340.22 26.93 339.25 26.83L339.25 24.48L355.04 23.64L355.53 24.13L355.53 49.72Q355.53 50.84 356.01 51.63Q356.49 52.42 357.40 52.81Q358.04 53.10 358.81 53.33Q359.59 53.55 360.42 53.65M400.22 52.97L400.22 55.32Q398.81 55.94 396.87 56.45Q394.94 56.97 392.78 56.97Q388.82 56.97 386.95 55.79Q385.08 54.61 384.40 52.42L384.21 52.42Q383.11 53.52 382.10 54.29Q381.08 55.07 379.92 55.61Q378.41 56.32 377.01 56.66Q375.60 57 373.09 57Q369.35 57 366.71 54.79Q364.07 52.58 364.07 48.94Q364.07 46.85 364.65 45.38Q365.23 43.92 366.29 42.79Q367.26 41.76 368.53 41.08Q369.80 40.40 371.32 39.82Q374.22 38.76 378.28 37.61Q382.34 36.47 384.21 35.57L384.21 32.47Q384.21 31.67 384.08 30.35Q383.95 29.03 383.53 28.12Q383.08 27.09 382.11 26.38Q381.15 25.67 379.57 25.67Q378.15 25.67 377.20 26.08Q376.25 26.48 375.67 26.90Q375.76 27.54 376.22 28.87Q376.67 30.19 376.67 31.41Q376.67 31.96 376.38 32.78Q376.09 33.60 375.54 34.09Q374.80 34.73 373.88 35.08Q372.96 35.44 371.06 35.44Q368.35 35.44 366.97 34.13Q365.58 32.83 365.58 30.73Q365.58 28.93 367.02 27.50Q368.45 26.06 370.51 25.13Q372.54 24.16 375.18 23.63Q377.83 23.10 380.08 23.10Q383.21 23.10 385.82 23.47Q388.43 23.84 390.52 25Q392.52 26.13 393.70 28.27Q394.88 30.41 394.88 33.86Q394.88 37.50 394.73 42.50Q394.58 47.49 394.58 49.07Q394.58 50.52 395.02 51.36Q395.46 52.20 396.36 52.62Q396.91 52.87 398.08 52.92Q399.26 52.97 400.22 52.97M384.08 49.46L384.21 38.53Q382.40 39.15 380.63 39.94Q378.86 40.72 377.73 41.59Q376.54 42.50 375.86 43.90Q375.18 45.30 375.18 47.20Q375.18 49.72 376.33 50.84Q377.47 51.97 379.15 51.97Q380.92 51.97 382.06 51.25Q383.21 50.52 384.08 49.46" fill="#EDE8DE"/>
  <g transform="translate(258.12 -57.11) scale(0.14)"><path d="M662.5 448.8C664.45 453.16 665.69 457.84 667.22 462.36C669.23 468.3 671.42 474.17 673.42 480.11C674.21 482.47 675.91 489.64 677.29 491.22C679.16 493.36 686.6 494.95 689.5 496.01C699.6 499.72 709.91 502.92 720.06 506.5C719.72 506.83 719.64 507.4 719.26 507.68C717.09 509.29 711.42 510.37 708.68 511.27C701.5 513.64 694.43 516.31 687.25 518.67C684.96 519.43 679.31 520.57 677.71 522.13C675.71 524.09 674.32 530.99 673.38 533.83C671.47 539.53 669.36 545.16 667.43 550.86C665.83 555.61 664.52 560.52 662.5 565.1C660.78 562.17 659.86 558.91 658.74 555.71C656.13 548.29 653.8 540.78 651.18 533.37C650.24 530.71 648.56 523.53 646.55 521.91C644.67 520.38 639.41 519.33 636.95 518.52C630.01 516.23 623.17 513.64 616.22 511.37C613.37 510.44 607.95 509.42 605.62 507.77C605.17 507.44 604.96 506.86 604.54 506.5C614.49 502.83 624.65 499.79 634.62 496.17C637.21 495.23 645.42 493.12 647 491.47C648.78 489.62 650.19 483.21 651.14 480.58C653.8 473.19 656.07 465.65 658.69 458.25C659.83 455.02 660.76 451.74 662.5 448.8Z" fill="#C4A572"/></g>
  <path d="M132.51 88.48Q130.65 88.48 128.94 87.75Q127.24 87.02 125.92 85.64Q124.61 84.26 123.84 82.28Q123.06 80.29 123.06 77.80Q123.06 75.31 123.82 73.29Q124.58 71.26 125.93 69.79Q127.27 68.34 129.08 67.55Q130.90 66.76 132.96 66.76Q134.50 66.76 135.75 67.14Q136.99 67.52 138.12 68.21L138.72 67.21L139.89 67.21L140.02 74.63L138.82 74.63Q138.59 73.54 138.12 72.27Q137.65 71.01 137.02 70.13Q136.32 69.13 135.35 68.57Q134.38 68 133.14 68Q131.72 68 130.50 68.63Q129.27 69.26 128.38 70.50Q127.53 71.68 127.05 73.51Q126.56 75.34 126.56 77.60Q126.56 79.59 127.07 81.25Q127.57 82.92 128.51 84.18Q129.45 85.42 130.73 86.13Q132.01 86.83 133.59 86.83Q134.78 86.83 135.78 86.45Q136.77 86.08 137.50 85.47Q138.24 84.82 138.79 84Q139.35 83.18 139.70 82.21L140.80 82.74Q139.54 85.83 137.46 87.16Q135.38 88.48 132.51 88.48M157.92 87.03L157.92 88L150.83 88L150.83 87.03Q151.17 87 151.58 86.97Q151.99 86.95 152.26 86.86Q152.67 86.73 152.86 86.40Q153.06 86.07 153.06 85.54L153.06 78.11Q153.06 76.57 152.34 75.74Q151.61 74.90 150.57 74.90Q149.81 74.90 149.16 75.15Q148.51 75.39 147.99 75.74Q147.50 76.11 147.23 76.47Q146.97 76.84 146.82 77.09L146.82 85.39Q146.82 85.89 147.02 86.21Q147.22 86.54 147.63 86.71Q147.95 86.86 148.29 86.93Q148.64 87 149.05 87.03L149.05 88L141.96 88L141.96 87.03Q142.29 87 142.66 86.97Q143.03 86.93 143.28 86.86Q143.69 86.73 143.89 86.40Q144.10 86.07 144.10 85.54L144.10 68.72Q144.10 68.22 143.87 67.73Q143.64 67.23 143.28 66.98Q143.01 66.79 142.35 66.71Q141.68 66.63 141.27 66.60L141.27 65.66L146.62 65.32L146.82 65.54L146.82 75.62L146.88 75.62Q147.36 75.14 147.76 74.77Q148.15 74.39 148.80 73.98Q149.36 73.63 150.11 73.40Q150.86 73.16 151.80 73.16Q153.74 73.16 154.78 74.38Q155.82 75.61 155.82 77.91L155.82 85.42Q155.82 85.93 156 86.25Q156.18 86.56 156.61 86.74Q156.94 86.87 157.21 86.94Q157.49 87 157.92 87.03M173.38 86.80L173.38 87.74Q172.69 87.99 172.17 88.14Q171.65 88.29 170.99 88.29Q169.85 88.29 169.17 87.76Q168.49 87.22 168.30 86.20L168.21 86.20Q167.26 87.25 166.16 87.81Q165.07 88.37 163.54 88.37Q161.91 88.37 160.86 87.37Q159.81 86.37 159.81 84.76Q159.81 83.93 160.05 83.27Q160.28 82.61 160.75 82.08Q161.12 81.64 161.72 81.30Q162.32 80.95 162.85 80.75Q163.51 80.50 165.52 79.83Q167.53 79.15 168.24 78.77L168.24 77.32Q168.24 77.13 168.16 76.59Q168.08 76.05 167.81 75.56Q167.52 75.02 166.98 74.62Q166.45 74.22 165.47 74.22Q164.79 74.22 164.22 74.44Q163.64 74.67 163.40 74.92Q163.40 75.21 163.54 75.78Q163.68 76.35 163.68 76.84Q163.68 77.35 163.22 77.78Q162.76 78.20 161.94 78.20Q161.21 78.20 160.86 77.68Q160.52 77.16 160.52 76.52Q160.52 75.84 160.99 75.23Q161.47 74.61 162.23 74.13Q162.89 73.72 163.83 73.43Q164.77 73.15 165.66 73.15Q166.89 73.15 167.81 73.31Q168.72 73.48 169.47 74.04Q170.21 74.58 170.60 75.51Q170.99 76.44 170.99 77.91Q170.99 80 170.95 81.62Q170.90 83.24 170.90 85.16Q170.90 85.73 171.10 86.07Q171.30 86.40 171.71 86.64Q171.93 86.77 172.40 86.78Q172.88 86.80 173.38 86.80M168.18 85.06L168.27 80Q167.02 80.37 166.08 80.72Q165.15 81.07 164.34 81.60Q163.61 82.10 163.18 82.78Q162.76 83.46 162.76 84.40Q162.76 85.61 163.40 86.18Q164.03 86.75 165.01 86.75Q166.05 86.75 166.85 86.25Q167.64 85.74 168.18 85.06M185.87 75.42Q185.87 76.16 185.51 76.74Q185.14 77.32 184.38 77.32Q183.56 77.32 183.13 76.90Q182.70 76.47 182.70 75.96Q182.70 75.64 182.75 75.37Q182.80 75.11 182.84 74.85Q182.15 74.85 181.23 75.40Q180.31 75.96 179.66 76.98L179.66 85.39Q179.66 85.91 179.86 86.23Q180.06 86.55 180.48 86.71Q180.85 86.86 181.43 86.93Q182.01 87 182.43 87.03L182.43 88L174.81 88L174.81 87.03Q175.15 87 175.51 86.97Q175.87 86.95 176.13 86.86Q176.54 86.73 176.74 86.40Q176.94 86.07 176.94 85.54L176.94 76.62Q176.94 76.16 176.73 75.72Q176.51 75.29 176.13 75.02Q175.85 74.85 175.47 74.77Q175.09 74.68 174.65 74.66L174.65 73.70L179.46 73.38L179.66 73.59L179.66 75.62L179.74 75.62Q180.64 74.44 181.76 73.82Q182.87 73.21 183.79 73.21Q184.72 73.21 185.30 73.81Q185.87 74.41 185.87 75.42M196.03 86.30L196.03 87.37Q195.07 87.77 194.22 88.04Q193.37 88.31 192.14 88.31Q190.33 88.31 189.59 87.39Q188.85 86.48 188.85 84.81L188.85 75.02L186.24 75.02L186.24 73.62L188.91 73.62L188.91 69.12L191.57 69.12L191.57 73.62L195.72 73.62L195.72 75.02L191.60 75.02L191.60 83.09Q191.60 84 191.67 84.61Q191.73 85.22 191.98 85.67Q192.22 86.10 192.69 86.32Q193.15 86.54 193.95 86.54Q194.31 86.54 195.02 86.47Q195.73 86.40 196.03 86.30M203.60 92.72Q203.60 91.98 204 91.52Q204.40 91.06 205 91.06Q205.47 91.06 205.81 91.24Q206.15 91.41 206.41 91.69Q206.63 91.91 206.88 92.29Q207.13 92.67 207.28 92.92Q208.01 92.53 209.03 90.86Q210.04 89.19 210.50 87.93Q209.11 84.46 207.98 81.72Q206.85 78.98 205.62 76.05Q205.34 75.37 204.68 75Q204.02 74.63 203.36 74.52L203.36 73.56L209.96 73.56L209.96 74.58Q209.52 74.60 208.90 74.77Q208.29 74.93 208.29 75.15Q208.29 75.24 208.35 75.45Q208.42 75.65 208.51 75.87Q209.06 77.32 210.21 80.05Q211.35 82.79 211.98 84.43Q212.64 82.86 213.35 81.18Q214.06 79.50 214.94 77.22Q215.04 76.94 215.23 76.45Q215.42 75.96 215.42 75.61Q215.42 75.23 214.75 74.90Q214.09 74.57 213.49 74.49L213.49 73.56L218.85 73.56L218.85 74.46Q218.41 74.54 217.69 74.97Q216.97 75.40 216.62 76.19Q214.88 80.24 213.52 83.56Q212.17 86.89 211.46 88.45Q210.54 90.50 209.82 91.65Q209.09 92.80 208.40 93.46Q207.73 94.08 207.18 94.29Q206.63 94.50 206.04 94.50Q204.90 94.50 204.25 93.96Q203.60 93.42 203.60 92.72M233.54 80.63Q233.54 82.16 233.06 83.63Q232.57 85.10 231.68 86.13Q230.67 87.30 229.34 87.87Q228 88.44 226.35 88.44Q224.97 88.44 223.73 87.92Q222.48 87.40 221.51 86.40Q220.56 85.42 220 84.01Q219.43 82.59 219.43 80.84Q219.43 77.45 221.40 75.30Q223.37 73.15 226.57 73.15Q229.60 73.15 231.57 75.19Q233.54 77.23 233.54 80.63M230.51 80.66Q230.51 79.56 230.29 78.34Q230.07 77.12 229.63 76.27Q229.16 75.36 228.40 74.81Q227.64 74.26 226.54 74.26Q225.41 74.26 224.61 74.82Q223.81 75.37 223.32 76.34Q222.85 77.23 222.66 78.38Q222.47 79.52 222.47 80.59Q222.47 81.99 222.69 83.19Q222.92 84.38 223.42 85.32Q223.92 86.26 224.67 86.79Q225.42 87.33 226.54 87.33Q228.37 87.33 229.44 85.55Q230.51 83.78 230.51 80.66M251.12 86.78L251.12 87.74L246.42 88.06L246.20 87.85L246.20 86.02L246.11 86.02Q245.76 86.39 245.32 86.81Q244.88 87.22 244.31 87.56Q243.65 87.96 243.03 88.16Q242.42 88.37 241.29 88.37Q239.37 88.37 238.37 87.11Q237.36 85.86 237.36 83.47L237.36 76.56Q237.36 76.03 237.17 75.67Q236.97 75.31 236.59 75.05Q236.32 74.88 235.93 74.79Q235.53 74.71 235.09 74.68L235.09 73.73L239.91 73.38L240.13 73.59L240.13 83.62Q240.13 85.19 240.83 85.98Q241.54 86.77 242.52 86.77Q243.33 86.77 243.96 86.52Q244.58 86.27 245.01 85.93Q245.41 85.63 245.71 85.28Q246.01 84.94 246.17 84.65L246.17 76.46Q246.17 75.97 245.96 75.60Q245.76 75.23 245.39 74.96Q245.13 74.79 244.61 74.75Q244.09 74.71 243.44 74.68L243.44 73.73L248.69 73.38L248.91 73.59L248.91 85.06Q248.91 85.55 249.11 85.91Q249.32 86.26 249.68 86.51Q249.95 86.67 250.31 86.72Q250.68 86.77 251.12 86.78M263.95 75.42Q263.95 76.16 263.58 76.74Q263.22 77.32 262.46 77.32Q261.64 77.32 261.20 76.90Q260.77 76.47 260.77 75.96Q260.77 75.64 260.82 75.37Q260.87 75.11 260.92 74.85Q260.23 74.85 259.31 75.40Q258.38 75.96 257.74 76.98L257.74 85.39Q257.74 85.91 257.94 86.23Q258.13 86.55 258.56 86.71Q258.93 86.86 259.50 86.93Q260.08 87 260.51 87.03L260.51 88L252.89 88L252.89 87.03Q253.23 87 253.59 86.97Q253.95 86.95 254.21 86.86Q254.62 86.73 254.82 86.40Q255.01 86.07 255.01 85.54L255.01 76.62Q255.01 76.16 254.80 75.72Q254.59 75.29 254.21 75.02Q253.93 74.85 253.55 74.77Q253.17 74.68 252.73 74.66L252.73 73.70L257.53 73.38L257.74 73.59L257.74 75.62L257.81 75.62Q258.72 74.44 259.83 73.82Q260.95 73.21 261.87 73.21Q262.79 73.21 263.37 73.81Q263.95 74.41 263.95 75.42M277.68 73.59L277.68 87.12Q277.68 88.73 277.21 90.15Q276.74 91.56 275.96 92.48Q275.13 93.46 274.08 93.98Q273.03 94.50 271.77 94.50Q270.47 94.50 269.81 93.98Q269.15 93.46 269.15 92.76Q269.15 92.13 269.50 91.65Q269.85 91.18 270.53 91.18Q270.98 91.18 271.33 91.37Q271.68 91.56 271.95 91.87Q272.18 92.13 272.42 92.52Q272.67 92.91 272.89 93.27Q274 93.27 274.48 91.93Q274.95 90.58 274.95 87.60L274.95 76.74Q274.95 76.27 274.72 75.83Q274.50 75.40 274.13 75.14Q273.90 74.98 273.01 74.82Q272.12 74.66 271.67 74.61L271.67 73.70L277.47 73.38L277.68 73.59M277.90 67.67Q277.90 68.50 277.35 69.13Q276.80 69.75 275.99 69.75Q275.24 69.75 274.69 69.15Q274.15 68.56 274.15 67.80Q274.15 66.99 274.69 66.39Q275.24 65.79 275.99 65.79Q276.83 65.79 277.36 66.36Q277.90 66.92 277.90 67.67M295.25 80.63Q295.25 82.16 294.77 83.63Q294.29 85.10 293.39 86.13Q292.38 87.30 291.05 87.87Q289.72 88.44 288.06 88.44Q286.68 88.44 285.44 87.92Q284.19 87.40 283.23 86.40Q282.28 85.42 281.71 84.01Q281.15 82.59 281.15 80.84Q281.15 77.45 283.12 75.30Q285.09 73.15 288.28 73.15Q291.31 73.15 293.28 75.19Q295.25 77.23 295.25 80.63M292.22 80.66Q292.22 79.56 292 78.34Q291.78 77.12 291.34 76.27Q290.87 75.36 290.11 74.81Q289.35 74.26 288.25 74.26Q287.12 74.26 286.33 74.82Q285.53 75.37 285.03 76.34Q284.56 77.23 284.37 78.38Q284.18 79.52 284.18 80.59Q284.18 81.99 284.41 83.19Q284.63 84.38 285.13 85.32Q285.63 86.26 286.38 86.79Q287.14 87.33 288.25 87.33Q290.08 87.33 291.15 85.55Q292.22 83.78 292.22 80.66M312.83 86.78L312.83 87.74L308.13 88.06L307.91 87.85L307.91 86.02L307.82 86.02Q307.47 86.39 307.03 86.81Q306.59 87.22 306.02 87.56Q305.36 87.96 304.75 88.16Q304.13 88.37 303 88.37Q301.08 88.37 300.08 87.11Q299.08 85.86 299.08 83.47L299.08 76.56Q299.08 76.03 298.88 75.67Q298.68 75.31 298.30 75.05Q298.04 74.88 297.64 74.79Q297.25 74.71 296.81 74.68L296.81 73.73L301.63 73.38L301.85 73.59L301.85 83.62Q301.85 85.19 302.55 85.98Q303.25 86.77 304.23 86.77Q305.04 86.77 305.67 86.52Q306.30 86.27 306.72 85.93Q307.12 85.63 307.42 85.28Q307.72 84.94 307.88 84.65L307.88 76.46Q307.88 75.97 307.68 75.60Q307.47 75.23 307.10 74.96Q306.84 74.79 306.32 74.75Q305.80 74.71 305.16 74.68L305.16 73.73L310.40 73.38L310.62 73.59L310.62 85.06Q310.62 85.55 310.83 85.91Q311.03 86.26 311.40 86.51Q311.66 86.67 312.03 86.72Q312.39 86.77 312.83 86.78M325.66 75.42Q325.66 76.16 325.30 76.74Q324.93 77.32 324.17 77.32Q323.35 77.32 322.92 76.90Q322.49 76.47 322.49 75.96Q322.49 75.64 322.54 75.37Q322.59 75.11 322.63 74.85Q321.94 74.85 321.02 75.40Q320.10 75.96 319.45 76.98L319.45 85.39Q319.45 85.91 319.65 86.23Q319.85 86.55 320.27 86.71Q320.64 86.86 321.22 86.93Q321.80 87 322.22 87.03L322.22 88L314.60 88L314.60 87.03Q314.94 87 315.30 86.97Q315.66 86.95 315.92 86.86Q316.33 86.73 316.53 86.40Q316.73 86.07 316.73 85.54L316.73 76.62Q316.73 76.16 316.52 75.72Q316.30 75.29 315.92 75.02Q315.64 74.85 315.26 74.77Q314.88 74.68 314.44 74.66L314.44 73.70L319.25 73.38L319.45 73.59L319.45 75.62L319.53 75.62Q320.43 74.44 321.55 73.82Q322.66 73.21 323.58 73.21Q324.51 73.21 325.09 73.81Q325.66 74.41 325.66 75.42M342.85 87.03L342.85 88L335.77 88L335.77 87.03Q336.11 87 336.51 86.97Q336.91 86.95 337.18 86.86Q337.59 86.73 337.79 86.40Q337.98 86.07 337.98 85.54L337.98 78.11Q337.98 76.57 337.26 75.74Q336.53 74.90 335.49 74.90Q334.72 74.90 334.07 75.15Q333.43 75.39 332.93 75.74Q332.45 76.08 332.16 76.46Q331.88 76.85 331.74 77.09L331.74 85.39Q331.74 85.89 331.95 86.21Q332.15 86.54 332.56 86.71Q332.87 86.86 333.23 86.93Q333.59 87 333.97 87.03L333.97 88L326.89 88L326.89 87.03Q327.23 87 327.59 86.97Q327.95 86.95 328.21 86.86Q328.62 86.73 328.82 86.40Q329.02 86.07 329.02 85.54L329.02 76.62Q329.02 76.12 328.81 75.70Q328.59 75.29 328.21 75.02Q327.93 74.85 327.55 74.77Q327.17 74.68 326.73 74.66L326.73 73.70L331.54 73.38L331.74 73.59L331.74 75.62L331.82 75.62Q332.17 75.27 332.70 74.78Q333.22 74.29 333.69 73.98Q334.23 73.63 334.98 73.40Q335.73 73.16 336.67 73.16Q338.75 73.16 339.75 74.46Q340.75 75.75 340.75 77.91L340.75 85.42Q340.75 85.93 340.93 86.25Q341.10 86.56 341.53 86.74Q341.88 86.89 342.14 86.95Q342.39 87 342.85 87.03M356.43 83.97L357.45 84.60Q356.54 86.33 355.02 87.36Q353.50 88.38 351.52 88.38Q349.78 88.38 348.46 87.77Q347.15 87.15 346.30 86.10Q345.45 85.04 345.04 83.63Q344.62 82.23 344.62 80.66Q344.62 79.25 345.07 77.90Q345.51 76.54 346.38 75.46Q347.21 74.42 348.45 73.78Q349.69 73.15 351.23 73.15Q352.81 73.15 353.94 73.64Q355.06 74.14 355.77 75.01Q356.44 75.83 356.77 76.94Q357.10 78.05 357.10 79.36L357.10 80.32L347.53 80.32Q347.53 81.75 347.81 82.90Q348.08 84.06 348.66 84.94Q349.23 85.79 350.16 86.28Q351.08 86.77 352.35 86.77Q353.66 86.77 354.60 86.16Q355.55 85.55 356.43 83.97M347.53 79.09L354.21 79.09Q354.21 78.27 354.07 77.34Q353.94 76.40 353.63 75.77Q353.29 75.09 352.71 74.67Q352.12 74.25 351.20 74.25Q349.66 74.25 348.64 75.53Q347.62 76.81 347.53 79.09M358.02 92.72Q358.02 91.98 358.43 91.52Q358.83 91.06 359.43 91.06Q359.90 91.06 360.23 91.24Q360.57 91.41 360.83 91.69Q361.05 91.91 361.30 92.29Q361.55 92.67 361.70 92.92Q362.43 92.53 363.45 90.86Q364.47 89.19 364.92 87.93Q363.53 84.46 362.40 81.72Q361.27 78.98 360.04 76.05Q359.77 75.37 359.11 75Q358.45 74.63 357.79 74.52L357.79 73.56L364.38 73.56L364.38 74.58Q363.94 74.60 363.33 74.77Q362.71 74.93 362.71 75.15Q362.71 75.24 362.78 75.45Q362.84 75.65 362.93 75.87Q363.49 77.32 364.63 80.05Q365.77 82.79 366.40 84.43Q367.06 82.86 367.77 81.18Q368.48 79.50 369.36 77.22Q369.46 76.94 369.65 76.45Q369.84 75.96 369.84 75.61Q369.84 75.23 369.18 74.90Q368.51 74.57 367.91 74.49L367.91 73.56L373.27 73.56L373.27 74.46Q372.83 74.54 372.11 74.97Q371.40 75.40 371.04 76.19Q369.30 80.24 367.95 83.56Q366.59 86.89 365.89 88.45Q364.97 90.50 364.24 91.65Q363.52 92.80 362.83 93.46Q362.15 94.08 361.60 94.29Q361.05 94.50 360.47 94.50Q359.33 94.50 358.67 93.96Q358.02 93.42 358.02 92.72M378.91 86.32Q378.91 87.14 378.32 87.71Q377.72 88.29 376.90 88.29Q376.08 88.29 375.49 87.71Q374.90 87.14 374.90 86.32Q374.90 85.50 375.49 84.90Q376.08 84.31 376.90 84.31Q377.72 84.31 378.32 84.90Q378.91 85.50 378.91 86.32" fill="#B4A996"/>
</svg>
