<svg xmlns="http://www.w3.org/2000/svg" viewBox="0 0 445.75 112.89" role="img" aria-label="Zarparia — Chart your journey.">
  <g transform="translate(0 -0.14566) scale(0.08528)"><path d="M33.321 2.764 C41.507 0.991 50.688 1.986 59.004 1.986 C75.333 1.986 91.677 2.144 108.007 2.144 C158.927 2.144 209.861 2.144 260.781 2.144 C422.679 2.144 584.591 2.144 746.488 2.144 C802.698 2.144 858.907 2.144 915.117 2.144 C927.598 2.144 940.108 1.842 952.589 2.116 C963.932 2.361 975.275 3.441 984.341 11.008 C999.748 23.879 999.532 40.741 999.532 59.348 C999.532 72.795 999.532 86.257 999.532 99.704 C999.532 179.939 999.532 260.16 999.532 340.395 C999.532 403.335 999.532 466.261 999.532 529.201 C999.532 569.456 1001.448 610.114 997.528 650.21 C994.891 677.032 988.65 703.335 981.79 729.336 C970.735 771.204 947.329 814.961 923.26 850.834 C870.25 929.83 800.118 994.543 722.967 1049.7 C703.481 1063.623 683.087 1076.148 663.111 1089.306 C634.257 1108.302 604.365 1125.194 573.911 1141.423 C559.138 1149.292 544.379 1157.161 529.405 1164.685 C525.297 1166.746 521.406 1169.311 517.168 1171.113 C493.402 1181.288 471.221 1164.685 450.654 1154.365 C439.902 1148.96 429.381 1143.037 418.874 1137.171 C390.928 1121.605 362.895 1106.27 335.987 1088.86 C322.309 1080.01 308.891 1070.7 295.242 1061.793 C268.78 1044.555 244.221 1024.594 219.431 1005.093 C203.909 992.886 189.367 979.525 174.911 966.02 C98.307 894.375 33.753 804.382 11.053 700.51 C5.605 675.605 1.987 649.864 0.705 624.325 C-0.838 593.669 0.633 562.768 0.633 532.084 C0.633 461.462 0.633 390.84 0.633 320.218 C0.633 240.948 0.791 161.678 0.633 82.409 C0.575 57.071 -5.262 21.14 21.805 7.059 C25.408 5.185 29.357 3.614 33.321 2.764 ZM43.496 21.702 C40.426 22.048 36.722 22.308 33.839 23.389 C19.124 28.851 20.767 46.838 20.767 59.348 C20.767 71.844 20.767 84.325 20.767 96.821 C20.767 178.008 20.767 259.209 20.767 340.395 C20.767 405.728 20.767 471.075 20.767 536.408 C20.767 572.036 19.499 607.981 23.145 643.378 C23.621 648.034 23.289 652.819 23.866 657.474 C25.624 671.843 28.319 686.198 31.418 700.352 C33.148 708.25 35.684 716.09 38.322 723.715 C42.271 735.115 45.499 746.761 50.126 757.959 C57.836 776.58 66.816 794.481 76.703 812.021 C131.586 909.335 218.105 984.137 308.948 1046.789 C329.832 1061.187 351.134 1074.923 372.941 1087.937 C378.908 1091.483 384.644 1095.792 390.784 1098.992 C402.933 1105.333 414.694 1112.669 426.772 1119.198 C434.252 1123.248 442.179 1126.578 449.385 1131.06 C458.653 1136.825 469.073 1141.336 478.787 1146.323 C487.377 1150.733 496.76 1156.426 506.906 1153.573 C511.591 1152.247 516.231 1149.321 520.57 1147.13 C528.828 1142.965 536.942 1138.598 544.985 1134.058 C552.407 1129.864 560.219 1126.361 567.714 1122.283 C593.887 1108.057 620.06 1093.198 645.124 1077.056 C661.756 1066.347 678.85 1056.273 695.122 1045.002 C718.254 1028.975 741.011 1012.314 762.933 994.644 C815.28 952.458 861.559 904.291 900.127 849.379 C910.36 834.808 920.204 819.862 928.304 804.036 C932.974 794.899 938.638 786.194 942.717 776.667 C950.557 758.319 957.576 739.871 963.5 720.832 C966.094 712.487 967.708 703.782 969.582 695.264 C974.079 674.74 977.149 655.384 979.051 634.414 C980.262 621.14 979.642 607.376 979.584 594.058 C979.541 577.729 979.685 561.385 979.527 545.055 C978.893 478.771 979.527 412.444 979.527 346.16 C979.527 266.891 979.527 187.621 979.527 108.351 C979.527 90.09 979.527 71.844 979.527 53.583 C979.527 43.768 980.046 33.377 971.729 26.531 C965.446 21.371 957.331 22.437 949.707 22.437 C935.77 22.437 921.847 22.437 907.91 22.437 C850.735 22.437 793.574 22.437 736.399 22.437 C579.777 22.437 423.169 22.437 266.546 22.437 C215.136 22.437 163.741 22.437 112.331 22.437 C95.511 22.437 78.706 22.495 61.886 22.437 C55.718 22.409 49.737 21.011 43.496 21.702 ZM937.571 62.951 C939.532 74.554 938.407 86.545 938.292 98.262 C938.076 118.44 938.292 138.618 938.292 158.796 C938.292 223.177 938.292 287.544 938.292 351.925 C938.292 417.748 938.292 483.556 938.292 549.379 C938.292 572.295 939.834 595.773 937.744 618.574 C937.298 623.359 937.816 628.202 937.413 632.972 C937.211 635.408 936.418 637.743 936.188 640.179 C935.813 644.387 936 648.668 935.467 652.876 C934.285 662.317 932.541 671.598 930.769 680.895 C929.644 686.905 928.708 693.088 927.093 699.011 C893.469 822.586 800.219 916.47 699.834 990.551 C653.685 1024.608 605.244 1054.442 555.074 1082.187 C542.347 1089.22 529.621 1096.311 516.621 1102.84 C511.677 1105.319 505.768 1110.623 500.032 1110.536 C494.526 1110.464 489.237 1105.521 484.509 1103.157 C471.206 1096.484 458.192 1089.263 445.047 1082.143 C425.489 1071.564 406.594 1060.078 387.339 1048.98 C378.072 1043.633 368.545 1038.113 359.652 1032.045 C341.074 1019.405 322.669 1006.722 304.48 993.549 C289.506 982.71 274.776 971.468 260.421 959.809 C257.956 957.805 254.613 956.984 252.912 955.542 C252.292 955.024 252.033 953.582 251.514 952.905 C249.41 950.109 245.922 947.428 243.227 945.223 C231.639 935.783 220.786 925.463 210.207 914.841 C205.883 910.474 201.329 906.496 197.207 901.913 C190.419 894.361 182.607 887.688 176.064 879.89 C167.301 869.427 158.235 859.136 149.919 848.283 C113.426 800.592 83.087 745.002 70.174 686.098 C60.07 640.049 61.959 593.439 61.959 546.496 C61.959 484.046 61.959 421.582 61.959 359.132 C61.959 293.799 61.959 228.452 61.959 163.119 C61.959 141.976 61.959 120.847 61.959 99.704 C61.959 87.467 61.051 75.13 62.564 62.951 C354.233 62.951 645.902 62.951 937.571 62.951 ZM841.612 77.004 C838.311 81.14 837.648 85.695 836.092 90.696 C832.878 101.058 828.655 111.147 825.311 121.481 C823.855 125.978 822.501 134.092 819.892 137.796 C817.514 141.183 808.434 142.812 804.485 144.095 C798.417 146.055 792.566 148.505 786.57 150.595 C777.101 153.867 767.444 156.504 758.134 160.237 C762.832 164.301 769.044 165.281 775.011 167.155 C784.322 170.095 793.56 173.439 802.727 176.797 C806.949 178.354 816.548 180.04 819.315 183.283 C822.385 186.886 823.798 195.663 825.369 200.304 C828.395 209.168 831.782 217.931 834.78 226.823 C836.827 232.877 837.677 239.29 841.612 244.436 C848.645 224.056 855.679 203.677 862.712 183.297 C867.944 179.896 874.487 178.613 880.368 176.61 C889.217 173.583 897.937 170.009 906.872 167.256 C912.767 165.454 919.873 164.489 924.369 160.237 C910.331 154.861 895.861 150.379 881.665 145.478 C877.73 144.124 866.171 141.342 863.606 139.007 C860.593 136.269 858.979 127.405 857.552 123.355 C852.104 107.948 847.06 92.425 841.612 77.004 ZM757.269 235.932 C598.052 235.932 438.821 235.932 279.59 235.932 C278.249 244.234 278.12 252.766 277.212 261.126 C275.338 278.406 273.45 295.73 271.663 313.011 C270.928 320.16 270.87 327.482 269.89 334.587 C267.887 348.928 266.849 363.427 265.451 377.854 C264.629 386.256 262.28 395.034 263.664 403.35 C273.753 403.35 283.842 403.35 293.93 403.35 C298.845 395.106 303.14 386.501 307.867 378.142 C318.547 359.29 329.645 340.655 342.011 322.855 C350.688 310.359 360.301 297.763 372.638 288.625 C385.955 278.738 404.533 273.881 420.82 272.425 C427.983 271.791 435.203 271.935 442.381 271.517 C467.3 270.105 492.378 270.84 517.327 270.84 C540.474 270.84 563.822 270.061 586.94 271.214 C585.268 276.504 581.348 280.612 578.091 285.18 C572.095 293.597 565.898 301.87 559.902 310.302 C542.347 334.947 524.303 359.247 506.69 383.878 C445.249 469.763 382.756 554.899 321.084 640.626 C302.203 666.871 283.121 692.972 264.211 719.204 C257.567 728.413 250.865 737.594 244.207 746.804 C241.555 750.45 235.271 757.195 234.276 761.332 C232.792 767.428 233.959 778.396 234.003 784.983 C314.742 784.983 395.482 784.983 476.222 784.983 C476.222 832.53 476.222 880.078 476.222 927.625 C464.576 927.322 453.479 924.786 442.15 922.336 C429.871 919.684 417.793 916.585 405.989 912.247 C394.949 908.197 383.995 904.666 374.137 898.166 C382.54 888.077 390.957 877.988 399.374 867.899 C396.246 865.247 392.023 864.815 388.045 863.719 C379.325 861.327 370.534 859.151 361.785 856.83 C340.224 851.094 318.85 844.68 297.159 839.29 C288.324 837.085 274.257 831.334 265.754 831.867 C282.833 874.687 299.912 917.522 316.991 960.342 C326.114 950.585 335.252 940.842 344.375 931.084 C353.873 934.024 362.866 940.553 372.105 944.646 C386.719 951.132 402.515 956.854 418.124 960.472 C425.172 962.115 432.335 964.277 439.498 965.329 C443.505 965.934 448.708 965.631 451.749 968.788 C453.882 970.993 454.906 974.538 456.275 977.262 C459.157 983.027 462.126 988.764 464.821 994.615 C471.567 1009.244 479.45 1023.325 486.599 1037.767 C490.692 1046.04 493.575 1055.696 500.032 1062.369 C506.301 1056.431 508.636 1047.265 512.527 1039.684 C521.189 1022.821 529.707 1005.872 538.225 988.937 C540.257 984.887 545.922 971.094 548.199 968.672 C551.153 965.545 556.63 965.948 560.565 965.314 C568.088 964.089 575.756 962.071 583.193 960.255 C600.084 956.105 617.106 949.777 632.859 942.413 C640.497 938.853 647.689 933.664 655.688 931.084 C664.812 940.813 673.949 950.541 683.073 960.284 C685.84 956.551 687.036 951.939 688.679 947.63 C691.288 940.741 694.156 933.923 696.851 927.063 C704.749 907.044 712.215 886.837 720.43 866.962 C723.846 858.733 727.002 850.474 730.202 842.158 C731.268 839.405 733.546 835.989 733.92 833.092 C734.007 832.444 733.517 831.824 733.517 831.161 C721.324 833.381 709.087 837.431 697.211 840.89 C677.682 846.583 657.807 851.411 638.177 856.758 C629.054 859.237 619.873 861.428 610.822 864.065 C607.161 865.132 603.529 865.276 600.762 867.899 C609.15 877.988 617.538 888.077 625.926 898.166 C616.255 904.824 605.086 908.427 594.089 912.29 C577.961 917.954 561.559 921.947 544.754 925.002 C537.678 926.299 531.076 927.495 523.841 927.51 C523.841 880.006 523.841 832.487 523.841 784.983 C598.845 784.983 673.848 784.983 748.852 784.983 C754.992 723.109 761.132 661.236 767.271 599.348 C757.946 599.348 748.607 599.348 739.282 599.348 C735.664 603.484 733.892 609.35 731.586 614.38 C728.285 621.529 724.696 628.62 721.035 635.581 C708.482 659.506 694.631 682.566 678.994 704.589 C672.796 713.309 666.411 722.922 658.528 730.229 C642.4 745.161 618.677 746.112 598.038 747.813 C577.903 749.456 557.711 749.283 537.505 749.283 C513.479 749.283 489.467 749.283 465.441 749.283 C451.994 749.283 438.533 749.283 425.086 749.283 C417.894 749.283 409.794 750.277 402.991 748.274 C414.103 734.928 423.702 719.996 433.834 705.872 C455.093 676.268 476.697 646.924 497.927 617.277 C554.194 538.656 611.427 460.741 667.968 382.293 C687.886 354.635 708.107 327.222 727.853 299.449 C734.439 290.196 741.17 281.03 747.886 271.877 C750.019 268.981 755.828 262.293 756.837 259.295 C758.552 254.179 757.298 241.798 757.269 235.932 Z" fill="#232E42" fill-rule="evenodd"/><path d="M43.496 21.702 C49.737 21.011 55.718 22.409 61.886 22.437 C78.706 22.495 95.511 22.437 112.331 22.437 C163.741 22.437 215.136 22.437 266.546 22.437 C423.169 22.437 579.777 22.437 736.399 22.437 C793.574 22.437 850.735 22.437 907.91 22.437 C921.847 22.437 935.77 22.437 949.707 22.437 C957.331 22.437 965.446 21.371 971.729 26.531 C980.046 33.377 979.527 43.768 979.527 53.583 C979.527 71.844 979.527 90.09 979.527 108.351 C979.527 187.621 979.527 266.891 979.527 346.16 C979.527 412.444 978.893 478.771 979.527 545.055 C979.685 561.385 979.541 577.729 979.584 594.058 C979.642 607.376 980.262 621.14 979.051 634.414 C977.149 655.384 974.079 674.74 969.582 695.264 C967.708 703.782 966.094 712.487 963.5 720.832 C957.576 739.871 950.557 758.319 942.717 776.667 C938.638 786.194 932.974 794.899 928.304 804.036 C920.204 819.862 910.36 834.808 900.127 849.379 C861.559 904.291 815.28 952.458 762.933 994.644 C741.011 1012.314 718.254 1028.975 695.122 1045.002 C678.85 1056.273 661.756 1066.347 645.124 1077.056 C620.06 1093.198 593.887 1108.057 567.714 1122.283 C560.219 1126.361 552.407 1129.864 544.985 1134.058 C536.942 1138.598 528.828 1142.965 520.57 1147.13 C516.231 1149.321 511.591 1152.247 506.906 1153.573 C496.76 1156.426 487.377 1150.733 478.787 1146.323 C469.073 1141.336 458.653 1136.825 449.385 1131.06 C442.179 1126.578 434.252 1123.248 426.772 1119.198 C414.694 1112.669 402.933 1105.333 390.784 1098.992 C384.644 1095.792 378.908 1091.483 372.941 1087.937 C351.134 1074.923 329.832 1061.187 308.948 1046.789 C218.105 984.137 131.586 909.335 76.703 812.021 C66.816 794.481 57.836 776.58 50.126 757.959 C45.499 746.761 42.271 735.115 38.322 723.715 C35.684 716.09 33.148 708.25 31.418 700.352 C28.319 686.198 25.624 671.843 23.866 657.474 C23.289 652.819 23.621 648.034 23.145 643.378 C19.499 607.981 20.767 572.036 20.767 536.408 C20.767 471.075 20.767 405.728 20.767 340.395 C20.767 259.209 20.767 178.008 20.767 96.821 C20.767 84.325 20.767 71.844 20.767 59.348 C20.767 46.838 19.124 28.851 33.839 23.389 C36.722 22.308 40.426 22.048 43.496 21.702 ZM937.571 62.951 C645.902 62.951 354.233 62.951 62.564 62.951 C61.051 75.13 61.959 87.467 61.959 99.704 C61.959 120.847 61.959 141.976 61.959 163.119 C61.959 228.452 61.959 293.799 61.959 359.132 C61.959 421.582 61.959 484.046 61.959 546.496 C61.959 593.439 60.07 640.049 70.174 686.098 C83.087 745.002 113.426 800.592 149.919 848.283 C158.235 859.136 167.301 869.427 176.064 879.89 C182.607 887.688 190.419 894.361 197.207 901.913 C201.329 906.496 205.883 910.474 210.207 914.841 C220.786 925.463 231.639 935.783 243.227 945.223 C245.922 947.428 249.41 950.109 251.514 952.905 C252.033 953.582 252.292 955.024 252.912 955.542 C254.613 956.984 257.956 957.805 260.421 959.809 C274.776 971.468 289.506 982.71 304.48 993.549 C322.669 1006.722 341.074 1019.405 359.652 1032.045 C368.545 1038.113 378.072 1043.633 387.339 1048.98 C406.594 1060.078 425.489 1071.564 445.047 1082.143 C458.192 1089.263 471.206 1096.484 484.509 1103.157 C489.237 1105.521 494.526 1110.464 500.032 1110.536 C505.768 1110.623 511.677 1105.319 516.621 1102.84 C529.621 1096.311 542.347 1089.22 555.074 1082.187 C605.244 1054.442 653.685 1024.608 699.834 990.551 C800.219 916.47 893.469 822.586 927.093 699.011 C928.708 693.088 929.644 686.905 930.769 680.895 C932.541 671.598 934.285 662.317 935.467 652.876 C936 648.668 935.813 644.387 936.188 640.179 C936.418 637.743 937.211 635.408 937.413 632.972 C937.816 628.202 937.298 623.359 937.744 618.574 C939.834 595.773 938.292 572.295 938.292 549.379 C938.292 483.556 938.292 417.748 938.292 351.925 C938.292 287.544 938.292 223.177 938.292 158.796 C938.292 138.618 938.076 118.44 938.292 98.262 C938.407 86.545 939.532 74.554 937.571 62.951 ZM841.612 77.004 C847.06 92.425 852.104 107.948 857.552 123.355 C858.979 127.405 860.593 136.269 863.606 139.007 C866.171 141.342 877.73 144.124 881.665 145.478 C895.861 150.379 910.331 154.861 924.369 160.237 C919.873 164.489 912.767 165.454 906.872 167.256 C897.937 170.009 889.217 173.583 880.368 176.61 C874.487 178.613 867.944 179.896 862.712 183.297 C855.679 203.677 848.645 224.056 841.612 244.436 C837.677 239.29 836.827 232.877 834.78 226.823 C831.782 217.931 828.395 209.168 825.369 200.304 C823.798 195.663 822.385 186.886 819.315 183.283 C816.548 180.04 806.949 178.354 802.727 176.797 C793.56 173.439 784.322 170.095 775.011 167.155 C769.044 165.281 762.832 164.301 758.134 160.237 C767.444 156.504 777.101 153.867 786.57 150.595 C792.566 148.505 798.417 146.055 804.485 144.095 C808.434 142.812 817.514 141.183 819.892 137.796 C822.501 134.092 823.855 125.978 825.311 121.481 C828.655 111.147 832.878 101.058 836.092 90.696 C837.648 85.695 838.311 81.14 841.612 77.004 ZM757.269 235.932 C757.298 241.798 758.552 254.179 756.837 259.295 C755.828 262.293 750.019 268.981 747.886 271.877 C741.17 281.03 734.439 290.196 727.853 299.449 C708.107 327.222 687.886 354.635 667.968 382.293 C611.427 460.741 554.194 538.656 497.927 617.277 C476.697 646.924 455.093 676.268 433.834 705.872 C423.702 719.996 414.103 734.928 402.991 748.274 C409.794 750.277 417.894 749.283 425.086 749.283 C438.533 749.283 451.994 749.283 465.441 749.283 C489.467 749.283 513.479 749.283 537.505 749.283 C557.711 749.283 577.903 749.456 598.038 747.813 C618.677 746.112 642.4 745.161 658.528 730.229 C666.411 722.922 672.796 713.309 678.994 704.589 C694.631 682.566 708.482 659.506 721.035 635.581 C724.696 628.62 728.285 621.529 731.586 614.38 C733.892 609.35 735.664 603.484 739.282 599.348 C748.607 599.348 757.946 599.348 767.271 599.348 C761.132 661.236 754.992 723.109 748.852 784.983 C673.848 784.983 598.845 784.983 523.841 784.983 C523.841 832.487 523.841 880.006 523.841 927.51 C531.076 927.495 537.678 926.299 544.754 925.002 C561.559 921.947 577.961 917.954 594.089 912.29 C605.086 908.427 616.255 904.824 625.926 898.166 C617.538 888.077 609.15 877.988 600.762 867.899 C603.529 865.276 607.161 865.132 610.822 864.065 C619.873 861.428 629.054 859.237 638.177 856.758 C657.807 851.411 677.682 846.583 697.211 840.89 C709.087 837.431 721.324 833.381 733.517 831.161 C733.517 831.824 734.007 832.444 733.92 833.092 C733.546 835.989 731.268 839.405 730.202 842.158 C727.002 850.474 723.846 858.733 720.43 866.962 C712.215 886.837 704.749 907.044 696.851 927.063 C694.156 933.923 691.288 940.741 688.679 947.63 C687.036 951.939 685.84 956.551 683.073 960.284 C673.949 950.541 664.812 940.813 655.688 931.084 C647.689 933.664 640.497 938.853 632.859 942.413 C617.106 949.777 600.084 956.105 583.193 960.255 C575.756 962.071 568.088 964.089 560.565 965.314 C556.63 965.948 551.153 965.545 548.199 968.672 C545.922 971.094 540.257 984.887 538.225 988.937 C529.707 1005.872 521.189 1022.821 512.527 1039.684 C508.636 1047.265 506.301 1056.431 500.032 1062.369 C493.575 1055.696 490.692 1046.04 486.599 1037.767 C479.45 1023.325 471.567 1009.244 464.821 994.615 C462.126 988.764 459.157 983.027 456.275 977.262 C454.906 974.538 453.882 970.993 451.749 968.788 C448.708 965.631 443.505 965.934 439.498 965.329 C432.335 964.277 425.172 962.115 418.124 960.472 C402.515 956.854 386.719 951.132 372.105 944.646 C362.866 940.553 353.873 934.024 344.375 931.084 C335.252 940.842 326.114 950.585 316.991 960.342 C299.912 917.522 282.833 874.687 265.754 831.867 C274.257 831.334 288.324 837.085 297.159 839.29 C318.85 844.68 340.224 851.094 361.785 856.83 C370.534 859.151 379.325 861.327 388.045 863.719 C392.023 864.815 396.246 865.247 399.374 867.899 C390.957 877.988 382.54 888.077 374.137 898.166 C383.995 904.666 394.949 908.197 405.989 912.247 C417.793 916.585 429.871 919.684 442.15 922.336 C453.479 924.786 464.576 927.322 476.222 927.625 C476.222 880.078 476.222 832.53 476.222 784.983 C395.482 784.983 314.742 784.983 234.003 784.983 C233.959 778.396 232.792 767.428 234.276 761.332 C235.271 757.195 241.555 750.45 244.207 746.804 C250.865 737.594 257.567 728.413 264.211 719.204 C283.121 692.972 302.203 666.871 321.084 640.626 C382.756 554.899 445.249 469.763 506.69 383.878 C524.303 359.247 542.347 334.947 559.902 310.302 C565.898 301.87 572.095 293.597 578.091 285.18 C581.348 280.612 585.268 276.504 586.94 271.214 C563.822 270.061 540.474 270.84 517.327 270.84 C492.378 270.84 467.3 270.105 442.381 271.517 C435.203 271.935 427.983 271.791 420.82 272.425 C404.533 273.881 385.955 278.738 372.638 288.625 C360.301 297.763 350.688 310.359 342.011 322.855 C329.645 340.655 318.547 359.29 307.867 378.142 C303.14 386.501 298.845 395.106 293.93 403.35 C283.842 403.35 273.753 403.35 263.664 403.35 C262.28 395.034 264.629 386.256 265.451 377.854 C266.849 363.427 267.887 348.928 269.89 334.587 C270.87 327.482 270.928 320.16 271.663 313.011 C273.45 295.73 275.338 278.406 277.212 261.126 C278.12 252.766 278.249 244.234 279.59 235.932 C438.821 235.932 598.052 235.932 757.269 235.932 Z" fill="#C4A572" fill-rule="evenodd"/></g>
  <g transform="translate(100.31703 -16.6205) scale(2.23394)"><path d="M24.1923828125 23.0478515625 23.3955078125 31.0H1.2822265625V29.9873046875L16.505859375 8.9697265625H11.3427734375Q9.765625 8.9697265625 9.068359375 9.06103515625Q8.37109375 9.15234375 7.7568359375 9.4345703125Q7.04296875 9.7001953125 6.1796875 10.83740234375Q5.31640625 11.974609375 3.8720703125 14.630859375H2.52734375L3.2578125 7.4423828125H23.744140625V8.455078125L8.5205078125 29.47265625H14.447265625Q17.236328125 29.47265625 18.24072265625 29.24853515625Q19.2451171875 29.0244140625 19.7099609375 28.443359375Q20.65625 27.2978515625 21.46142578125 25.92822265625Q22.2666015625 24.55859375 22.947265625 23.0478515625Z M44.3798828125 30.6513671875Q43.6494140625 30.966796875 42.6533203125 31.232421875Q41.6572265625 31.498046875 40.544921875 31.498046875Q38.5029296875 31.498046875 37.5400390625 30.89208984375Q36.5771484375 30.2861328125 36.228515625 29.1572265625H36.12890625Q35.564453125 29.7216796875 35.04150390625 30.1201171875Q34.5185546875 30.5185546875 33.9208984375 30.80078125Q33.140625 31.166015625 32.41845703125 31.34033203125Q31.6962890625 31.5146484375 30.4013671875 31.5146484375Q28.4755859375 31.5146484375 27.1142578125 30.37744140625Q25.7529296875 29.240234375 25.7529296875 27.3642578125Q25.7529296875 26.28515625 26.0517578125 25.52978515625Q26.3505859375 24.7744140625 26.8984375 24.193359375Q27.396484375 23.662109375 28.05224609375 23.3134765625Q28.7080078125 22.96484375 29.48828125 22.666015625Q30.982421875 22.1181640625 33.07421875 21.52880859375Q35.166015625 20.939453125 36.12890625 20.474609375V18.880859375Q36.12890625 18.4658203125 36.0625 17.78515625Q35.99609375 17.1044921875 35.7802734375 16.6396484375Q35.5478515625 16.1083984375 35.0498046875 15.7431640625Q34.5517578125 15.3779296875 33.73828125 15.3779296875Q33.0078125 15.3779296875 32.51806640625 15.58544921875Q32.0283203125 15.79296875 31.7294921875 16.0087890625Q31.779296875 16.3408203125 32.01171875 17.021484375Q32.244140625 17.7021484375 32.244140625 18.3330078125Q32.244140625 18.615234375 32.0947265625 19.03857421875Q31.9453125 19.4619140625 31.6630859375 19.7109375Q31.28125 20.04296875 30.80810546875 20.2255859375Q30.3349609375 20.408203125 29.35546875 20.408203125Q27.9609375 20.408203125 27.2470703125 19.73583984375Q26.533203125 19.0634765625 26.533203125 17.984375Q26.533203125 17.0546875 27.27197265625 16.31591796875Q28.0107421875 15.5771484375 29.0732421875 15.095703125Q30.119140625 14.59765625 31.48046875 14.32373046875Q32.841796875 14.0498046875 34.00390625 14.0498046875Q35.6142578125 14.0498046875 36.958984375 14.24072265625Q38.3037109375 14.431640625 39.3828125 15.029296875Q40.412109375 15.6103515625 41.01806640625 16.71435546875Q41.6240234375 17.818359375 41.6240234375 19.5947265625Q41.6240234375 21.470703125 41.54931640625 24.0439453125Q41.474609375 26.6171875 41.474609375 27.4306640625Q41.474609375 28.177734375 41.69873046875 28.609375Q41.9228515625 29.041015625 42.3876953125 29.2568359375Q42.669921875 29.3896484375 43.27587890625 29.41455078125Q43.8818359375 29.439453125 44.3798828125 29.439453125ZM36.12890625 22.001953125Q35.19921875 22.3173828125 34.2861328125 22.72412109375Q33.373046875 23.130859375 32.7919921875 23.5791015625Q32.177734375 24.0439453125 31.8291015625 24.76611328125Q31.48046875 25.48828125 31.48046875 26.4677734375Q31.48046875 27.7626953125 32.06982421875 28.34375Q32.6591796875 28.9248046875 33.5224609375 28.9248046875Q34.435546875 28.9248046875 35.02490234375 28.55126953125Q35.6142578125 28.177734375 36.0625 27.6298828125Z M62.193359375 17.5693359375Q62.193359375 18.8310546875 61.4130859375 19.78564453125Q60.6328125 20.740234375 59.3544921875 20.740234375Q58.142578125 20.740234375 57.30419921875 20.1259765625Q56.4658203125 19.51171875 56.4658203125 18.31640625Q56.4658203125 17.7353515625 56.548828125 17.41162109375Q56.6318359375 17.087890625 56.6982421875 16.8056640625Q55.9345703125 16.8388671875 55.087890625 17.3369140625Q54.2412109375 17.8349609375 53.59375 18.6650390625V27.779296875Q53.59375 28.3603515625 53.7763671875 28.7421875Q53.958984375 29.1240234375 54.390625 29.33984375Q54.755859375 29.5224609375 55.57763671875 29.64697265625Q56.3994140625 29.771484375 56.7646484375 29.7880859375V31.0H45.658203125V29.7880859375Q46.0732421875 29.7548828125 46.49658203125 29.69677734375Q46.919921875 29.638671875 47.21875 29.5390625Q47.75 29.3564453125 47.94921875 28.974609375Q48.1484375 28.5927734375 48.1484375 27.978515625V18.31640625Q48.1484375 17.71875 47.8662109375 17.24560546875Q47.583984375 16.7724609375 47.185546875 16.490234375Q46.88671875 16.291015625 46.43017578125 16.158203125Q45.9736328125 16.025390625 45.42578125 15.9755859375V14.763671875L53.3447265625 14.33203125L53.59375 14.5810546875V16.98828125H53.66015625Q54.8056640625 15.66015625 56.09228515625 14.90478515625Q57.37890625 14.1494140625 58.7734375 14.1494140625Q60.3173828125 14.1494140625 61.25537109375 15.10400390625Q62.193359375 16.05859375 62.193359375 17.5693359375Z M83.5595703125 22.9150390625Q83.5595703125 26.41796875 81.21875 28.9248046875Q78.8779296875 31.431640625 75.2919921875 31.431640625Q73.6982421875 31.431640625 72.7021484375 31.10791015625Q71.7060546875 30.7841796875 71.05859375 30.3193359375H70.92578125V34.984375Q70.92578125 35.5654296875 71.18310546875 35.9970703125Q71.4404296875 36.4287109375 71.9052734375 36.6279296875Q72.353515625 36.810546875 73.17529296875 36.9599609375Q73.9970703125 37.109375 74.544921875 37.142578125V38.37109375H62.55859375V37.142578125Q62.9736328125 37.109375 63.6044921875 37.01806640625Q64.2353515625 36.9267578125 64.55078125 36.8271484375Q65.08203125 36.64453125 65.27294921875 36.20458984375Q65.4638671875 35.7646484375 65.4638671875 35.2001953125V18.216796875Q65.4140625 17.6689453125 65.20654296875 17.25390625Q64.9990234375 16.8388671875 64.55078125 16.5234375Q64.21875 16.3076171875 63.6708984375 16.16650390625Q63.123046875 16.025390625 62.591796875 15.9755859375V14.763671875L70.6767578125 14.33203125L70.92578125 14.5478515625V16.390625L71.05859375 16.423828125Q72.154296875 15.3115234375 73.49072265625 14.697265625Q74.8271484375 14.0830078125 76.138671875 14.0830078125Q79.5751953125 14.0830078125 81.5673828125 16.51513671875Q83.5595703125 18.947265625 83.5595703125 22.9150390625ZM77.599609375 22.9814453125Q77.599609375 21.736328125 77.4169921875 20.59912109375Q77.234375 19.4619140625 76.76953125 18.5654296875Q76.3212890625 17.6689453125 75.58251953125 17.1376953125Q74.84375 16.6064453125 73.78125 16.6064453125Q72.7021484375 16.6064453125 72.0546875 16.97998046875Q71.4072265625 17.353515625 70.92578125 17.951171875V27.3642578125Q71.025390625 27.6962890625 71.3076171875 28.21923828125Q71.58984375 28.7421875 71.8720703125 29.0576171875Q72.287109375 29.505859375 72.818359375 29.7216796875Q73.349609375 29.9375 73.98046875 29.9375Q75.6240234375 29.9375 76.61181640625 28.16943359375Q77.599609375 26.4013671875 77.599609375 22.9814453125Z M104.6767578125 30.6513671875Q103.9462890625 30.966796875 102.9501953125 31.232421875Q101.9541015625 31.498046875 100.841796875 31.498046875Q98.7998046875 31.498046875 97.8369140625 30.89208984375Q96.8740234375 30.2861328125 96.525390625 29.1572265625H96.42578125Q95.861328125 29.7216796875 95.33837890625 30.1201171875Q94.8154296875 30.5185546875 94.2177734375 30.80078125Q93.4375 31.166015625 92.71533203125 31.34033203125Q91.9931640625 31.5146484375 90.6982421875 31.5146484375Q88.7724609375 31.5146484375 87.4111328125 30.37744140625Q86.0498046875 29.240234375 86.0498046875 27.3642578125Q86.0498046875 26.28515625 86.3486328125 25.52978515625Q86.6474609375 24.7744140625 87.1953125 24.193359375Q87.693359375 23.662109375 88.34912109375 23.3134765625Q89.0048828125 22.96484375 89.78515625 22.666015625Q91.279296875 22.1181640625 93.37109375 21.52880859375Q95.462890625 20.939453125 96.42578125 20.474609375V18.880859375Q96.42578125 18.4658203125 96.359375 17.78515625Q96.29296875 17.1044921875 96.0771484375 16.6396484375Q95.8447265625 16.1083984375 95.3466796875 15.7431640625Q94.8486328125 15.3779296875 94.03515625 15.3779296875Q93.3046875 15.3779296875 92.81494140625 15.58544921875Q92.3251953125 15.79296875 92.0263671875 16.0087890625Q92.076171875 16.3408203125 92.30859375 17.021484375Q92.541015625 17.7021484375 92.541015625 18.3330078125Q92.541015625 18.615234375 92.3916015625 19.03857421875Q92.2421875 19.4619140625 91.9599609375 19.7109375Q91.578125 20.04296875 91.10498046875 20.2255859375Q90.6318359375 20.408203125 89.65234375 20.408203125Q88.2578125 20.408203125 87.5439453125 19.73583984375Q86.830078125 19.0634765625 86.830078125 17.984375Q86.830078125 17.0546875 87.56884765625 16.31591796875Q88.3076171875 15.5771484375 89.3701171875 15.095703125Q90.416015625 14.59765625 91.77734375 14.32373046875Q93.138671875 14.0498046875 94.30078125 14.0498046875Q95.9111328125 14.0498046875 97.255859375 14.24072265625Q98.6005859375 14.431640625 99.6796875 15.029296875Q100.708984375 15.6103515625 101.31494140625 16.71435546875Q101.9208984375 17.818359375 101.9208984375 19.5947265625Q101.9208984375 21.470703125 101.84619140625 24.0439453125Q101.771484375 26.6171875 101.771484375 27.4306640625Q101.771484375 28.177734375 101.99560546875 28.609375Q102.2197265625 29.041015625 102.6845703125 29.2568359375Q102.966796875 29.3896484375 103.57275390625 29.41455078125Q104.1787109375 29.439453125 104.6767578125 29.439453125ZM96.42578125 22.001953125Q95.49609375 22.3173828125 94.5830078125 22.72412109375Q93.669921875 23.130859375 93.0888671875 23.5791015625Q92.474609375 24.0439453125 92.1259765625 24.76611328125Q91.77734375 25.48828125 91.77734375 26.4677734375Q91.77734375 27.7626953125 92.36669921875 28.34375Q92.9560546875 28.9248046875 93.8193359375 28.9248046875Q94.732421875 28.9248046875 95.32177734375 28.55126953125Q95.9111328125 28.177734375 96.359375 27.6298828125Z M122.490234375 17.5693359375Q122.490234375 18.8310546875 121.7099609375 19.78564453125Q120.9296875 20.740234375 119.6513671875 20.740234375Q118.439453125 20.740234375 117.60107421875 20.1259765625Q116.7626953125 19.51171875 116.7626953125 18.31640625Q116.7626953125 17.7353515625 116.845703125 17.41162109375Q116.9287109375 17.087890625 116.9951171875 16.8056640625Q116.2314453125 16.8388671875 115.384765625 17.3369140625Q114.5380859375 17.8349609375 113.890625 18.6650390625V27.779296875Q113.890625 28.3603515625 114.0732421875 28.7421875Q114.255859375 29.1240234375 114.6875 29.33984375Q115.052734375 29.5224609375 115.87451171875 29.64697265625Q116.6962890625 29.771484375 117.0615234375 29.7880859375V31.0H105.955078125V29.7880859375Q106.3701171875 29.7548828125 106.79345703125 29.69677734375Q107.216796875 29.638671875 107.515625 29.5390625Q108.046875 29.3564453125 108.24609375 28.974609375Q108.4453125 28.5927734375 108.4453125 27.978515625V18.31640625Q108.4453125 17.71875 108.1630859375 17.24560546875Q107.880859375 16.7724609375 107.482421875 16.490234375Q107.18359375 16.291015625 106.72705078125 16.158203125Q106.2705078125 16.025390625 105.72265625 15.9755859375V14.763671875L113.6416015625 14.33203125L113.890625 14.5810546875V16.98828125H113.95703125Q115.1025390625 15.66015625 116.38916015625 14.90478515625Q117.67578125 14.1494140625 119.0703125 14.1494140625Q120.6142578125 14.1494140625 121.55224609375 15.10400390625Q122.490234375 16.05859375 122.490234375 17.5693359375Z M134.1279296875 31.0H123.6357421875V29.7880859375Q124.0673828125 29.7548828125 124.482421875 29.705078125Q124.8974609375 29.6552734375 125.1962890625 29.5390625Q125.7275390625 29.33984375 125.943359375 28.96630859375Q126.1591796875 28.5927734375 126.1591796875 27.978515625V18.31640625Q126.1591796875 17.7353515625 125.8935546875 17.29541015625Q125.6279296875 16.85546875 125.2294921875 16.58984375Q124.9306640625 16.390625 124.32470703125 16.2080078125Q123.71875 16.025390625 123.220703125 15.9755859375V14.763671875L131.35546875 14.33203125L131.6044921875 14.5810546875V27.7626953125Q131.6044921875 28.34375 131.853515625 28.75048828125Q132.1025390625 29.1572265625 132.5673828125 29.3564453125Q132.8994140625 29.505859375 133.2978515625 29.6220703125Q133.6962890625 29.73828125 134.1279296875 29.7880859375Z M154.630859375 30.6513671875Q153.900390625 30.966796875 152.904296875 31.232421875Q151.908203125 31.498046875 150.7958984375 31.498046875Q148.75390625 31.498046875 147.791015625 30.89208984375Q146.828125 30.2861328125 146.4794921875 29.1572265625H146.3798828125Q145.8154296875 29.7216796875 145.29248046875 30.1201171875Q144.76953125 30.5185546875 144.171875 30.80078125Q143.3916015625 31.166015625 142.66943359375 31.34033203125Q141.947265625 31.5146484375 140.65234375 31.5146484375Q138.7265625 31.5146484375 137.365234375 30.37744140625Q136.00390625 29.240234375 136.00390625 27.3642578125Q136.00390625 26.28515625 136.302734375 25.52978515625Q136.6015625 24.7744140625 137.1494140625 24.193359375Q137.6474609375 23.662109375 138.30322265625 23.3134765625Q138.958984375 22.96484375 139.7392578125 22.666015625Q141.2333984375 22.1181640625 143.3251953125 21.52880859375Q145.4169921875 20.939453125 146.3798828125 20.474609375V18.880859375Q146.3798828125 18.4658203125 146.3134765625 17.78515625Q146.2470703125 17.1044921875 146.03125 16.6396484375Q145.798828125 16.1083984375 145.30078125 15.7431640625Q144.802734375 15.3779296875 143.9892578125 15.3779296875Q143.2587890625 15.3779296875 142.76904296875 15.58544921875Q142.279296875 15.79296875 141.98046875 16.0087890625Q142.0302734375 16.3408203125 142.2626953125 17.021484375Q142.4951171875 17.7021484375 142.4951171875 18.3330078125Q142.4951171875 18.615234375 142.345703125 19.03857421875Q142.1962890625 19.4619140625 141.9140625 19.7109375Q141.5322265625 20.04296875 141.05908203125 20.2255859375Q140.5859375 20.408203125 139.6064453125 20.408203125Q138.2119140625 20.408203125 137.498046875 19.73583984375Q136.7841796875 19.0634765625 136.7841796875 17.984375Q136.7841796875 17.0546875 137.52294921875 16.31591796875Q138.26171875 15.5771484375 139.32421875 15.095703125Q140.3701171875 14.59765625 141.7314453125 14.32373046875Q143.0927734375 14.0498046875 144.2548828125 14.0498046875Q145.865234375 14.0498046875 147.2099609375 14.24072265625Q148.5546875 14.431640625 149.6337890625 15.029296875Q150.6630859375 15.6103515625 151.26904296875 16.71435546875Q151.875 17.818359375 151.875 19.5947265625Q151.875 21.470703125 151.80029296875 24.0439453125Q151.7255859375 26.6171875 151.7255859375 27.4306640625Q151.7255859375 28.177734375 151.94970703125 28.609375Q152.173828125 29.041015625 152.638671875 29.2568359375Q152.9208984375 29.3896484375 153.52685546875 29.41455078125Q154.1328125 29.439453125 154.630859375 29.439453125ZM146.3798828125 22.001953125Q145.4501953125 22.3173828125 144.537109375 22.72412109375Q143.6240234375 23.130859375 143.04296875 23.5791015625Q142.4287109375 24.0439453125 142.080078125 24.76611328125Q141.7314453125 25.48828125 141.7314453125 26.4677734375Q141.7314453125 27.7626953125 142.32080078125 28.34375Q142.91015625 28.9248046875 143.7734375 28.9248046875Q144.6865234375 28.9248046875 145.27587890625 28.55126953125Q145.865234375 28.177734375 146.3134765625 27.6298828125Z" fill="#EDE8DE"/><path d="M128.68 5.21L129.49 7.59L131.87 8.40L129.49 9.21L128.68 11.59L127.87 9.21L125.49 8.40L127.87 7.59Z" fill="#C4A572"/></g>
  <path d="M154.03 107.48Q152.15 107.48 150.42 106.74Q148.69 106 147.35 104.60Q146.03 103.21 145.25 101.20Q144.46 99.19 144.46 96.66Q144.46 94.14 145.23 92.09Q146 90.03 147.37 88.55Q148.72 87.08 150.56 86.28Q152.40 85.48 154.49 85.48Q156.05 85.48 157.31 85.86Q158.57 86.25 159.71 86.95L160.32 85.94L161.51 85.94L161.64 93.44L160.42 93.44Q160.19 92.35 159.71 91.06Q159.24 89.78 158.60 88.89Q157.89 87.88 156.91 87.31Q155.93 86.74 154.67 86.74Q153.23 86.74 151.99 87.38Q150.75 88.01 149.85 89.26Q148.99 90.46 148.50 92.32Q148.01 94.17 148.01 96.46Q148.01 98.47 148.52 100.16Q149.03 101.84 149.98 103.12Q150.93 104.38 152.23 105.09Q153.53 105.80 155.13 105.80Q156.33 105.80 157.34 105.43Q158.35 105.05 159.09 104.42Q159.83 103.77 160.40 102.94Q160.96 102.11 161.32 101.13L162.43 101.66Q161.15 104.79 159.05 106.14Q156.94 107.48 154.03 107.48M179.77 106.01L179.77 106.99L172.59 106.99L172.59 106.01Q172.93 105.98 173.35 105.95Q173.76 105.92 174.03 105.83Q174.45 105.70 174.65 105.37Q174.85 105.03 174.85 104.50L174.85 96.98Q174.85 95.42 174.11 94.57Q173.38 93.73 172.32 93.73Q171.55 93.73 170.89 93.97Q170.23 94.22 169.71 94.57Q169.21 94.94 168.94 95.31Q168.67 95.69 168.53 95.94L168.53 104.35Q168.53 104.85 168.73 105.18Q168.93 105.51 169.34 105.68Q169.67 105.83 170.02 105.91Q170.37 105.98 170.78 106.01L170.78 106.99L163.60 106.99L163.60 106.01Q163.94 105.98 164.31 105.94Q164.68 105.91 164.94 105.83Q165.35 105.70 165.56 105.37Q165.77 105.03 165.77 104.50L165.77 87.47Q165.77 86.96 165.54 86.46Q165.31 85.95 164.94 85.70Q164.67 85.51 163.99 85.43Q163.32 85.34 162.90 85.31L162.90 84.37L168.32 84.02L168.53 84.25L168.53 94.45L168.58 94.45Q169.07 93.96 169.47 93.59Q169.88 93.21 170.53 92.79Q171.09 92.44 171.86 92.20Q172.62 91.96 173.57 91.96Q175.53 91.96 176.58 93.20Q177.63 94.44 177.63 96.77L177.63 104.38Q177.63 104.90 177.82 105.22Q178.01 105.54 178.44 105.71Q178.78 105.85 179.05 105.91Q179.33 105.98 179.77 106.01M195.42 105.77L195.42 106.72Q194.73 106.98 194.20 107.13Q193.67 107.29 193.01 107.29Q191.85 107.29 191.16 106.75Q190.47 106.20 190.28 105.17L190.19 105.17Q189.22 106.23 188.12 106.80Q187.01 107.36 185.45 107.36Q183.81 107.36 182.75 106.35Q181.69 105.34 181.69 103.71Q181.69 102.87 181.92 102.20Q182.16 101.53 182.63 101Q183.01 100.55 183.61 100.20Q184.22 99.85 184.76 99.65Q185.42 99.39 187.46 98.71Q189.50 98.03 190.22 97.64L190.22 96.17Q190.22 95.98 190.13 95.43Q190.05 94.88 189.79 94.39Q189.49 93.85 188.95 93.44Q188.41 93.03 187.41 93.03Q186.73 93.03 186.14 93.26Q185.56 93.49 185.32 93.74Q185.32 94.04 185.46 94.62Q185.60 95.20 185.60 95.69Q185.60 96.20 185.13 96.63Q184.67 97.06 183.84 97.06Q183.09 97.06 182.75 96.54Q182.40 96.01 182.40 95.36Q182.40 94.68 182.88 94.05Q183.36 93.43 184.13 92.94Q184.80 92.53 185.75 92.24Q186.70 91.95 187.60 91.95Q188.85 91.95 189.78 92.12Q190.71 92.29 191.46 92.85Q192.22 93.40 192.61 94.34Q193.01 95.28 193.01 96.77Q193.01 98.89 192.96 100.53Q192.92 102.17 192.92 104.11Q192.92 104.69 193.12 105.03Q193.32 105.37 193.73 105.61Q193.95 105.74 194.44 105.76Q194.92 105.77 195.42 105.77M190.16 104.01L190.25 98.89Q188.98 99.26 188.04 99.62Q187.09 99.97 186.27 100.51Q185.53 101.01 185.10 101.70Q184.67 102.39 184.67 103.34Q184.67 104.57 185.31 105.15Q185.96 105.73 186.95 105.73Q188.01 105.73 188.81 105.22Q189.61 104.71 190.16 104.01M208.08 94.25Q208.08 95 207.71 95.59Q207.34 96.17 206.57 96.17Q205.73 96.17 205.30 95.74Q204.86 95.31 204.86 94.80Q204.86 94.47 204.91 94.20Q204.96 93.93 205.01 93.67Q204.31 93.67 203.38 94.23Q202.44 94.80 201.79 95.83L201.79 104.35Q201.79 104.87 201.99 105.20Q202.19 105.52 202.62 105.68Q202.99 105.83 203.58 105.91Q204.16 105.98 204.59 106.01L204.59 106.99L196.88 106.99L196.88 106.01Q197.22 105.98 197.58 105.95Q197.95 105.92 198.21 105.83Q198.63 105.70 198.83 105.37Q199.03 105.03 199.03 104.50L199.03 95.46Q199.03 95 198.81 94.56Q198.60 94.11 198.21 93.85Q197.93 93.67 197.55 93.59Q197.16 93.50 196.71 93.47L196.71 92.51L201.58 92.18L201.79 92.39L201.79 94.45L201.86 94.45Q202.78 93.25 203.91 92.63Q205.04 92.01 205.97 92.01Q206.91 92.01 207.49 92.61Q208.08 93.22 208.08 94.25M218.36 105.27L218.36 106.35Q217.40 106.75 216.54 107.03Q215.68 107.30 214.43 107.30Q212.59 107.30 211.84 106.37Q211.09 105.45 211.09 103.76L211.09 93.85L208.45 93.85L208.45 92.42L211.15 92.42L211.15 87.87L213.85 87.87L213.85 92.42L218.05 92.42L218.05 93.85L213.88 93.85L213.88 102.02Q213.88 102.94 213.95 103.56Q214.01 104.17 214.27 104.63Q214.50 105.06 214.98 105.28Q215.45 105.51 216.25 105.51Q216.62 105.51 217.34 105.44Q218.06 105.37 218.36 105.27M226.03 111.77Q226.03 111.03 226.44 110.56Q226.85 110.09 227.46 110.09Q227.93 110.09 228.27 110.27Q228.61 110.45 228.88 110.73Q229.10 110.95 229.35 111.34Q229.61 111.72 229.75 111.98Q230.50 111.57 231.53 109.88Q232.56 108.19 233.02 106.92Q231.61 103.40 230.47 100.63Q229.32 97.85 228.08 94.88Q227.80 94.20 227.13 93.82Q226.46 93.44 225.79 93.34L225.79 92.36L232.47 92.36L232.47 93.40Q232.02 93.42 231.40 93.59Q230.78 93.76 230.78 93.98Q230.78 94.07 230.85 94.28Q230.91 94.48 231 94.71Q231.56 96.17 232.72 98.94Q233.88 101.71 234.52 103.37Q235.18 101.78 235.90 100.08Q236.62 98.39 237.51 96.07Q237.62 95.79 237.81 95.29Q238 94.80 238 94.44Q238 94.05 237.33 93.72Q236.65 93.39 236.05 93.31L236.05 92.36L241.48 92.36L241.48 93.28Q241.03 93.36 240.30 93.79Q239.58 94.23 239.22 95.03Q237.45 99.13 236.08 102.50Q234.71 105.86 234 107.45Q233.06 109.53 232.33 110.69Q231.59 111.86 230.90 112.52Q230.21 113.15 229.66 113.36Q229.10 113.58 228.51 113.58Q227.35 113.58 226.69 113.03Q226.03 112.48 226.03 111.77M256.36 99.53Q256.36 101.07 255.87 102.56Q255.38 104.05 254.47 105.09Q253.45 106.28 252.10 106.86Q250.75 107.44 249.07 107.44Q247.68 107.44 246.42 106.91Q245.15 106.38 244.18 105.37Q243.21 104.38 242.64 102.95Q242.07 101.52 242.07 99.74Q242.07 96.31 244.06 94.13Q246.06 91.95 249.29 91.95Q252.37 91.95 254.36 94.02Q256.36 96.09 256.36 99.53M253.28 99.56Q253.28 98.44 253.06 97.21Q252.84 95.97 252.39 95.11Q251.92 94.19 251.15 93.63Q250.38 93.07 249.26 93.07Q248.12 93.07 247.31 93.64Q246.50 94.20 246 95.18Q245.53 96.09 245.33 97.24Q245.14 98.40 245.14 99.48Q245.14 100.91 245.37 102.12Q245.60 103.33 246.10 104.28Q246.61 105.22 247.37 105.77Q248.14 106.31 249.26 106.31Q251.12 106.31 252.20 104.51Q253.28 102.72 253.28 99.56M274.16 105.76L274.16 106.72L269.40 107.05L269.17 106.84L269.17 104.99L269.09 104.99Q268.73 105.36 268.28 105.78Q267.84 106.20 267.26 106.55Q266.59 106.95 265.97 107.15Q265.35 107.36 264.20 107.36Q262.26 107.36 261.24 106.09Q260.23 104.82 260.23 102.41L260.23 95.40Q260.23 94.87 260.03 94.51Q259.83 94.14 259.44 93.88Q259.17 93.70 258.77 93.62Q258.37 93.53 257.93 93.50L257.93 92.54L262.81 92.18L263.03 92.39L263.03 102.55Q263.03 104.14 263.74 104.94Q264.46 105.74 265.45 105.74Q266.27 105.74 266.90 105.49Q267.54 105.24 267.97 104.90Q268.37 104.59 268.68 104.24Q268.98 103.89 269.14 103.59L269.14 95.30Q269.14 94.81 268.94 94.43Q268.73 94.05 268.36 93.79Q268.09 93.61 267.56 93.57Q267.04 93.53 266.39 93.50L266.39 92.54L271.70 92.18L271.92 92.39L271.92 104.01Q271.92 104.51 272.13 104.87Q272.33 105.22 272.71 105.48Q272.97 105.64 273.34 105.69Q273.71 105.74 274.16 105.76M287.16 94.25Q287.16 95 286.79 95.59Q286.41 96.17 285.64 96.17Q284.81 96.17 284.37 95.74Q283.94 95.31 283.94 94.80Q283.94 94.47 283.99 94.20Q284.04 93.93 284.08 93.67Q283.39 93.67 282.45 94.23Q281.52 94.80 280.87 95.83L280.87 104.35Q280.87 104.87 281.07 105.20Q281.27 105.52 281.70 105.68Q282.07 105.83 282.65 105.91Q283.24 105.98 283.67 106.01L283.67 106.99L275.95 106.99L275.95 106.01Q276.30 105.98 276.66 105.95Q277.02 105.92 277.29 105.83Q277.71 105.70 277.91 105.37Q278.11 105.03 278.11 104.50L278.11 95.46Q278.11 95 277.89 94.56Q277.68 94.11 277.29 93.85Q277.01 93.67 276.62 93.59Q276.24 93.50 275.79 93.47L275.79 92.51L280.66 92.18L280.87 92.39L280.87 94.45L280.94 94.45Q281.86 93.25 282.99 92.63Q284.11 92.01 285.05 92.01Q285.98 92.01 286.57 92.61Q287.16 93.22 287.16 94.25M301.06 92.39L301.06 106.10Q301.06 107.73 300.58 109.16Q300.11 110.60 299.32 111.53Q298.48 112.52 297.42 113.05Q296.35 113.58 295.08 113.58Q293.76 113.58 293.09 113.05Q292.42 112.52 292.42 111.81Q292.42 111.17 292.78 110.69Q293.14 110.21 293.82 110.21Q294.28 110.21 294.63 110.40Q294.99 110.60 295.26 110.91Q295.49 111.17 295.74 111.57Q295.98 111.96 296.21 112.33Q297.33 112.33 297.82 110.97Q298.30 109.60 298.30 106.59L298.30 95.58Q298.30 95.11 298.07 94.67Q297.84 94.23 297.47 93.96Q297.23 93.80 296.33 93.64Q295.43 93.47 294.97 93.43L294.97 92.51L300.85 92.18L301.06 92.39M301.28 86.40Q301.28 87.24 300.72 87.87Q300.17 88.50 299.35 88.50Q298.59 88.50 298.04 87.90Q297.48 87.30 297.48 86.53Q297.48 85.72 298.04 85.11Q298.59 84.50 299.35 84.50Q300.20 84.50 300.74 85.07Q301.28 85.64 301.28 86.40M318.86 99.53Q318.86 101.07 318.37 102.56Q317.88 104.05 316.98 105.09Q315.95 106.28 314.60 106.86Q313.25 107.44 311.58 107.44Q310.18 107.44 308.92 106.91Q307.66 106.38 306.68 105.37Q305.72 104.38 305.15 102.95Q304.57 101.52 304.57 99.74Q304.57 96.31 306.57 94.13Q308.56 91.95 311.80 91.95Q314.87 91.95 316.87 94.02Q318.86 96.09 318.86 99.53M315.79 99.56Q315.79 98.44 315.57 97.21Q315.34 95.97 314.90 95.11Q314.43 94.19 313.65 93.63Q312.88 93.07 311.77 93.07Q310.63 93.07 309.82 93.64Q309.01 94.20 308.51 95.18Q308.03 96.09 307.84 97.24Q307.64 98.40 307.64 99.48Q307.64 100.91 307.87 102.12Q308.10 103.33 308.61 104.28Q309.11 105.22 309.88 105.77Q310.64 106.31 311.77 106.31Q313.62 106.31 314.71 104.51Q315.79 102.72 315.79 99.56M336.66 105.76L336.66 106.72L331.90 107.05L331.68 106.84L331.68 104.99L331.59 104.99Q331.23 105.36 330.79 105.78Q330.34 106.20 329.77 106.55Q329.10 106.95 328.48 107.15Q327.85 107.36 326.71 107.36Q324.77 107.36 323.75 106.09Q322.73 104.82 322.73 102.41L322.73 95.40Q322.73 94.87 322.53 94.51Q322.33 94.14 321.95 93.88Q321.68 93.70 321.28 93.62Q320.88 93.53 320.43 93.50L320.43 92.54L325.31 92.18L325.54 92.39L325.54 102.55Q325.54 104.14 326.25 104.94Q326.96 105.74 327.96 105.74Q328.77 105.74 329.41 105.49Q330.05 105.24 330.48 104.90Q330.88 104.59 331.18 104.24Q331.49 103.89 331.65 103.59L331.65 95.30Q331.65 94.81 331.44 94.43Q331.23 94.05 330.86 93.79Q330.60 93.61 330.07 93.57Q329.54 93.53 328.89 93.50L328.89 92.54L334.20 92.18L334.42 92.39L334.42 104.01Q334.42 104.51 334.63 104.87Q334.84 105.22 335.21 105.48Q335.48 105.64 335.85 105.69Q336.22 105.74 336.66 105.76M349.66 94.25Q349.66 95 349.29 95.59Q348.92 96.17 348.15 96.17Q347.32 96.17 346.88 95.74Q346.44 95.31 346.44 94.80Q346.44 94.47 346.49 94.20Q346.55 93.93 346.59 93.67Q345.89 93.67 344.96 94.23Q344.02 94.80 343.37 95.83L343.37 104.35Q343.37 104.87 343.57 105.20Q343.77 105.52 344.20 105.68Q344.57 105.83 345.16 105.91Q345.74 105.98 346.17 106.01L346.17 106.99L338.46 106.99L338.46 106.01Q338.80 105.98 339.16 105.95Q339.53 105.92 339.80 105.83Q340.21 105.70 340.41 105.37Q340.61 105.03 340.61 104.50L340.61 95.46Q340.61 95 340.40 94.56Q340.18 94.11 339.80 93.85Q339.51 93.67 339.13 93.59Q338.74 93.50 338.30 93.47L338.30 92.51L343.16 92.18L343.37 92.39L343.37 94.45L343.44 94.45Q344.36 93.25 345.49 92.63Q346.62 92.01 347.55 92.01Q348.49 92.01 349.08 92.61Q349.66 93.22 349.66 94.25M367.06 106.01L367.06 106.99L359.90 106.99L359.90 106.01Q360.24 105.98 360.65 105.95Q361.06 105.92 361.32 105.83Q361.74 105.70 361.94 105.37Q362.14 105.03 362.14 104.50L362.14 96.98Q362.14 95.42 361.40 94.57Q360.67 93.73 359.62 93.73Q358.83 93.73 358.18 93.97Q357.52 94.22 357.02 94.57Q356.53 94.91 356.24 95.31Q355.95 95.70 355.82 95.94L355.82 104.35Q355.82 104.85 356.03 105.18Q356.23 105.51 356.65 105.68Q356.96 105.83 357.32 105.91Q357.69 105.98 358.07 106.01L358.07 106.99L350.91 106.99L350.91 106.01Q351.25 105.98 351.61 105.95Q351.98 105.92 352.24 105.83Q352.66 105.70 352.86 105.37Q353.06 105.03 353.06 104.50L353.06 95.46Q353.06 94.96 352.84 94.54Q352.63 94.11 352.24 93.85Q351.96 93.67 351.58 93.59Q351.19 93.50 350.74 93.47L350.74 92.51L355.61 92.18L355.82 92.39L355.82 94.45L355.89 94.45Q356.25 94.10 356.78 93.60Q357.32 93.10 357.79 92.79Q358.34 92.44 359.10 92.20Q359.85 91.96 360.80 91.96Q362.91 91.96 363.93 93.27Q364.94 94.59 364.94 96.77L364.94 104.38Q364.94 104.90 365.12 105.22Q365.30 105.54 365.73 105.71Q366.08 105.86 366.34 105.92Q366.60 105.98 367.06 106.01M380.82 102.91L381.86 103.55Q380.94 105.30 379.39 106.34Q377.85 107.38 375.85 107.38Q374.08 107.38 372.75 106.75Q371.43 106.13 370.57 105.06Q369.70 103.99 369.28 102.57Q368.86 101.14 368.86 99.56Q368.86 98.13 369.31 96.76Q369.76 95.39 370.64 94.29Q371.49 93.24 372.74 92.59Q373.99 91.95 375.55 91.95Q377.15 91.95 378.30 92.45Q379.44 92.96 380.15 93.83Q380.83 94.66 381.17 95.79Q381.50 96.92 381.50 98.24L381.50 99.22L371.81 99.22Q371.81 100.66 372.09 101.83Q372.36 103 372.95 103.89Q373.53 104.75 374.47 105.25Q375.40 105.74 376.69 105.74Q378.01 105.74 378.97 105.13Q379.93 104.51 380.82 102.91M371.81 97.97L378.58 97.97Q378.58 97.14 378.44 96.19Q378.30 95.24 377.98 94.60Q377.64 93.92 377.05 93.49Q376.46 93.06 375.52 93.06Q373.96 93.06 372.93 94.36Q371.90 95.66 371.81 97.97M382.43 111.77Q382.43 111.03 382.84 110.56Q383.25 110.09 383.86 110.09Q384.33 110.09 384.67 110.27Q385.02 110.45 385.28 110.73Q385.51 110.95 385.76 111.34Q386.01 111.72 386.16 111.98Q386.90 111.57 387.93 109.88Q388.96 108.19 389.42 106.92Q388.01 103.40 386.87 100.63Q385.73 97.85 384.48 94.88Q384.20 94.20 383.53 93.82Q382.86 93.44 382.20 93.34L382.20 92.36L388.87 92.36L388.87 93.40Q388.43 93.42 387.81 93.59Q387.18 93.76 387.18 93.98Q387.18 94.07 387.25 94.28Q387.32 94.48 387.40 94.71Q387.97 96.17 389.13 98.94Q390.28 101.71 390.92 103.37Q391.59 101.78 392.31 100.08Q393.03 98.39 393.92 96.07Q394.02 95.79 394.21 95.29Q394.41 94.80 394.41 94.44Q394.41 94.05 393.73 93.72Q393.06 93.39 392.45 93.31L392.45 92.36L397.88 92.36L397.88 93.28Q397.43 93.36 396.71 93.79Q395.98 94.23 395.62 95.03Q393.86 99.13 392.49 102.50Q391.11 105.86 390.40 107.45Q389.47 109.53 388.73 110.69Q388 111.86 387.30 112.52Q386.62 113.15 386.06 113.36Q385.51 113.58 384.91 113.58Q383.75 113.58 383.09 113.03Q382.43 112.48 382.43 111.77M403.59 105.28Q403.59 106.12 402.99 106.70Q402.39 107.29 401.56 107.29Q400.73 107.29 400.13 106.70Q399.53 106.12 399.53 105.28Q399.53 104.45 400.13 103.85Q400.73 103.25 401.56 103.25Q402.39 103.25 402.99 103.85Q403.59 104.45 403.59 105.28" fill="#B4A996"/>
</svg>
