<svg xmlns="http://www.w3.org/2000/svg" viewBox="0 0 155.95 40" fill="currentColor"><path d="M24.1923828125 23.0478515625 23.3955078125 31.0H1.2822265625V29.9873046875L16.505859375 8.9697265625H11.3427734375Q9.765625 8.9697265625 9.068359375 9.06103515625Q8.37109375 9.15234375 7.7568359375 9.4345703125Q7.04296875 9.7001953125 6.1796875 10.83740234375Q5.31640625 11.974609375 3.8720703125 14.630859375H2.52734375L3.2578125 7.4423828125H23.744140625V8.455078125L8.5205078125 29.47265625H14.447265625Q17.236328125 29.47265625 18.24072265625 29.24853515625Q19.2451171875 29.0244140625 19.7099609375 28.443359375Q20.65625 27.2978515625 21.46142578125 25.92822265625Q22.2666015625 24.55859375 22.947265625 23.0478515625Z M44.3798828125 30.6513671875Q43.6494140625 30.966796875 42.6533203125 31.232421875Q41.6572265625 31.498046875 40.544921875 31.498046875Q38.5029296875 31.498046875 37.5400390625 30.89208984375Q36.5771484375 30.2861328125 36.228515625 29.1572265625H36.12890625Q35.564453125 29.7216796875 35.04150390625 30.1201171875Q34.5185546875 30.5185546875 33.9208984375 30.80078125Q33.140625 31.166015625 32.41845703125 31.34033203125Q31.6962890625 31.5146484375 30.4013671875 31.5146484375Q28.4755859375 31.5146484375 27.1142578125 30.37744140625Q25.7529296875 29.240234375 25.7529296875 27.3642578125Q25.7529296875 26.28515625 26.0517578125 25.52978515625Q26.3505859375 24.7744140625 26.8984375 24.193359375Q27.396484375 23.662109375 28.05224609375 23.3134765625Q28.7080078125 22.96484375 29.48828125 22.666015625Q30.982421875 22.1181640625 33.07421875 21.52880859375Q35.166015625 20.939453125 36.12890625 20.474609375V18.880859375Q36.12890625 18.4658203125 36.0625 17.78515625Q35.99609375 17.1044921875 35.7802734375 16.6396484375Q35.5478515625 16.1083984375 35.0498046875 15.7431640625Q34.5517578125 15.3779296875 33.73828125 15.3779296875Q33.0078125 15.3779296875 32.51806640625 15.58544921875Q32.0283203125 15.79296875 31.7294921875 16.0087890625Q31.779296875 16.3408203125 32.01171875 17.021484375Q32.244140625 17.7021484375 32.244140625 18.3330078125Q32.244140625 18.615234375 32.0947265625 19.03857421875Q31.9453125 19.4619140625 31.6630859375 19.7109375Q31.28125 20.04296875 30.80810546875 20.2255859375Q30.3349609375 20.408203125 29.35546875 20.408203125Q27.9609375 20.408203125 27.2470703125 19.73583984375Q26.533203125 19.0634765625 26.533203125 17.984375Q26.533203125 17.0546875 27.27197265625 16.31591796875Q28.0107421875 15.5771484375 29.0732421875 15.095703125Q30.119140625 14.59765625 31.48046875 14.32373046875Q32.841796875 14.0498046875 34.00390625 14.0498046875Q35.6142578125 14.0498046875 36.958984375 14.24072265625Q38.3037109375 14.431640625 39.3828125 15.029296875Q40.412109375 15.6103515625 41.01806640625 16.71435546875Q41.6240234375 17.818359375 41.6240234375 19.5947265625Q41.6240234375 21.470703125 41.54931640625 24.0439453125Q41.474609375 26.6171875 41.474609375 27.4306640625Q41.474609375 28.177734375 41.69873046875 28.609375Q41.9228515625 29.041015625 42.3876953125 29.2568359375Q42.669921875 29.3896484375 43.27587890625 29.41455078125Q43.8818359375 29.439453125 44.3798828125 29.439453125ZM36.12890625 22.001953125Q35.19921875 22.3173828125 34.2861328125 22.72412109375Q33.373046875 23.130859375 32.7919921875 23.5791015625Q32.177734375 24.0439453125 31.8291015625 24.76611328125Q31.48046875 25.48828125 31.48046875 26.4677734375Q31.48046875 27.7626953125 32.06982421875 28.34375Q32.6591796875 28.9248046875 33.5224609375 28.9248046875Q34.435546875 28.9248046875 35.02490234375 28.55126953125Q35.6142578125 28.177734375 36.0625 27.6298828125Z M62.193359375 17.5693359375Q62.193359375 18.8310546875 61.4130859375 19.78564453125Q60.6328125 20.740234375 59.3544921875 20.740234375Q58.142578125 20.740234375 57.30419921875 20.1259765625Q56.4658203125 19.51171875 56.4658203125 18.31640625Q56.4658203125 17.7353515625 56.548828125 17.41162109375Q56.6318359375 17.087890625 56.6982421875 16.8056640625Q55.9345703125 16.8388671875 55.087890625 17.3369140625Q54.2412109375 17.8349609375 53.59375 18.6650390625V27.779296875Q53.59375 28.3603515625 53.7763671875 28.7421875Q53.958984375 29.1240234375 54.390625 29.33984375Q54.755859375 29.5224609375 55.57763671875 29.64697265625Q56.3994140625 29.771484375 56.7646484375 29.7880859375V31.0H45.658203125V29.7880859375Q46.0732421875 29.7548828125 46.49658203125 29.69677734375Q46.919921875 29.638671875 47.21875 29.5390625Q47.75 29.3564453125 47.94921875 28.974609375Q48.1484375 28.5927734375 48.1484375 27.978515625V18.31640625Q48.1484375 17.71875 47.8662109375 17.24560546875Q47.583984375 16.7724609375 47.185546875 16.490234375Q46.88671875 16.291015625 46.43017578125 16.158203125Q45.9736328125 16.025390625 45.42578125 15.9755859375V14.763671875L53.3447265625 14.33203125L53.59375 14.5810546875V16.98828125H53.66015625Q54.8056640625 15.66015625 56.09228515625 14.90478515625Q57.37890625 14.1494140625 58.7734375 14.1494140625Q60.3173828125 14.1494140625 61.25537109375 15.10400390625Q62.193359375 16.05859375 62.193359375 17.5693359375Z M83.5595703125 22.9150390625Q83.5595703125 26.41796875 81.21875 28.9248046875Q78.8779296875 31.431640625 75.2919921875 31.431640625Q73.6982421875 31.431640625 72.7021484375 31.10791015625Q71.7060546875 30.7841796875 71.05859375 30.3193359375H70.92578125V34.984375Q70.92578125 35.5654296875 71.18310546875 35.9970703125Q71.4404296875 36.4287109375 71.9052734375 36.6279296875Q72.353515625 36.810546875 73.17529296875 36.9599609375Q73.9970703125 37.109375 74.544921875 37.142578125V38.37109375H62.55859375V37.142578125Q62.9736328125 37.109375 63.6044921875 37.01806640625Q64.2353515625 36.9267578125 64.55078125 36.8271484375Q65.08203125 36.64453125 65.27294921875 36.20458984375Q65.4638671875 35.7646484375 65.4638671875 35.2001953125V18.216796875Q65.4140625 17.6689453125 65.20654296875 17.25390625Q64.9990234375 16.8388671875 64.55078125 16.5234375Q64.21875 16.3076171875 63.6708984375 16.16650390625Q63.123046875 16.025390625 62.591796875 15.9755859375V14.763671875L70.6767578125 14.33203125L70.92578125 14.5478515625V16.390625L71.05859375 16.423828125Q72.154296875 15.3115234375 73.49072265625 14.697265625Q74.8271484375 14.0830078125 76.138671875 14.0830078125Q79.5751953125 14.0830078125 81.5673828125 16.51513671875Q83.5595703125 18.947265625 83.5595703125 22.9150390625ZM77.599609375 22.9814453125Q77.599609375 21.736328125 77.4169921875 20.59912109375Q77.234375 19.4619140625 76.76953125 18.5654296875Q76.3212890625 17.6689453125 75.58251953125 17.1376953125Q74.84375 16.6064453125 73.78125 16.6064453125Q72.7021484375 16.6064453125 72.0546875 16.97998046875Q71.4072265625 17.353515625 70.92578125 17.951171875V27.3642578125Q71.025390625 27.6962890625 71.3076171875 28.21923828125Q71.58984375 28.7421875 71.8720703125 29.0576171875Q72.287109375 29.505859375 72.818359375 29.7216796875Q73.349609375 29.9375 73.98046875 29.9375Q75.6240234375 29.9375 76.61181640625 28.16943359375Q77.599609375 26.4013671875 77.599609375 22.9814453125Z M104.6767578125 30.6513671875Q103.9462890625 30.966796875 102.9501953125 31.232421875Q101.9541015625 31.498046875 100.841796875 31.498046875Q98.7998046875 31.498046875 97.8369140625 30.89208984375Q96.8740234375 30.2861328125 96.525390625 29.1572265625H96.42578125Q95.861328125 29.7216796875 95.33837890625 30.1201171875Q94.8154296875 30.5185546875 94.2177734375 30.80078125Q93.4375 31.166015625 92.71533203125 31.34033203125Q91.9931640625 31.5146484375 90.6982421875 31.5146484375Q88.7724609375 31.5146484375 87.4111328125 30.37744140625Q86.0498046875 29.240234375 86.0498046875 27.3642578125Q86.0498046875 26.28515625 86.3486328125 25.52978515625Q86.6474609375 24.7744140625 87.1953125 24.193359375Q87.693359375 23.662109375 88.34912109375 23.3134765625Q89.0048828125 22.96484375 89.78515625 22.666015625Q91.279296875 22.1181640625 93.37109375 21.52880859375Q95.462890625 20.939453125 96.42578125 20.474609375V18.880859375Q96.42578125 18.4658203125 96.359375 17.78515625Q96.29296875 17.1044921875 96.0771484375 16.6396484375Q95.8447265625 16.1083984375 95.3466796875 15.7431640625Q94.8486328125 15.3779296875 94.03515625 15.3779296875Q93.3046875 15.3779296875 92.81494140625 15.58544921875Q92.3251953125 15.79296875 92.0263671875 16.0087890625Q92.076171875 16.3408203125 92.30859375 17.021484375Q92.541015625 17.7021484375 92.541015625 18.3330078125Q92.541015625 18.615234375 92.3916015625 19.03857421875Q92.2421875 19.4619140625 91.9599609375 19.7109375Q91.578125 20.04296875 91.10498046875 20.2255859375Q90.6318359375 20.408203125 89.65234375 20.408203125Q88.2578125 20.408203125 87.5439453125 19.73583984375Q86.830078125 19.0634765625 86.830078125 17.984375Q86.830078125 17.0546875 87.56884765625 16.31591796875Q88.3076171875 15.5771484375 89.3701171875 15.095703125Q90.416015625 14.59765625 91.77734375 14.32373046875Q93.138671875 14.0498046875 94.30078125 14.0498046875Q95.9111328125 14.0498046875 97.255859375 14.24072265625Q98.6005859375 14.431640625 99.6796875 15.029296875Q100.708984375 15.6103515625 101.31494140625 16.71435546875Q101.9208984375 17.818359375 101.9208984375 19.5947265625Q101.9208984375 21.470703125 101.84619140625 24.0439453125Q101.771484375 26.6171875 101.771484375 27.4306640625Q101.771484375 28.177734375 101.99560546875 28.609375Q102.2197265625 29.041015625 102.6845703125 29.2568359375Q102.966796875 29.3896484375 103.57275390625 29.41455078125Q104.1787109375 29.439453125 104.6767578125 29.439453125ZM96.42578125 22.001953125Q95.49609375 22.3173828125 94.5830078125 22.72412109375Q93.669921875 23.130859375 93.0888671875 23.5791015625Q92.474609375 24.0439453125 92.1259765625 24.76611328125Q91.77734375 25.48828125 91.77734375 26.4677734375Q91.77734375 27.7626953125 92.36669921875 28.34375Q92.9560546875 28.9248046875 93.8193359375 28.9248046875Q94.732421875 28.9248046875 95.32177734375 28.55126953125Q95.9111328125 28.177734375 96.359375 27.6298828125Z M122.490234375 17.5693359375Q122.490234375 18.8310546875 121.7099609375 19.78564453125Q120.9296875 20.740234375 119.6513671875 20.740234375Q118.439453125 20.740234375 117.60107421875 20.1259765625Q116.7626953125 19.51171875 116.7626953125 18.31640625Q116.7626953125 17.7353515625 116.845703125 17.41162109375Q116.9287109375 17.087890625 116.9951171875 16.8056640625Q116.2314453125 16.8388671875 115.384765625 17.3369140625Q114.5380859375 17.8349609375 113.890625 18.6650390625V27.779296875Q113.890625 28.3603515625 114.0732421875 28.7421875Q114.255859375 29.1240234375 114.6875 29.33984375Q115.052734375 29.5224609375 115.87451171875 29.64697265625Q116.6962890625 29.771484375 117.0615234375 29.7880859375V31.0H105.955078125V29.7880859375Q106.3701171875 29.7548828125 106.79345703125 29.69677734375Q107.216796875 29.638671875 107.515625 29.5390625Q108.046875 29.3564453125 108.24609375 28.974609375Q108.4453125 28.5927734375 108.4453125 27.978515625V18.31640625Q108.4453125 17.71875 108.1630859375 17.24560546875Q107.880859375 16.7724609375 107.482421875 16.490234375Q107.18359375 16.291015625 106.72705078125 16.158203125Q106.2705078125 16.025390625 105.72265625 15.9755859375V14.763671875L113.6416015625 14.33203125L113.890625 14.5810546875V16.98828125H113.95703125Q115.1025390625 15.66015625 116.38916015625 14.90478515625Q117.67578125 14.1494140625 119.0703125 14.1494140625Q120.6142578125 14.1494140625 121.55224609375 15.10400390625Q122.490234375 16.05859375 122.490234375 17.5693359375Z M134.1279296875 31.0H123.6357421875V29.7880859375Q124.0673828125 29.7548828125 124.482421875 29.705078125Q124.8974609375 29.6552734375 125.1962890625 29.5390625Q125.7275390625 29.33984375 125.943359375 28.96630859375Q126.1591796875 28.5927734375 126.1591796875 27.978515625V18.31640625Q126.1591796875 17.7353515625 125.8935546875 17.29541015625Q125.6279296875 16.85546875 125.2294921875 16.58984375Q124.9306640625 16.390625 124.32470703125 16.2080078125Q123.71875 16.025390625 123.220703125 15.9755859375V14.763671875L131.35546875 14.33203125L131.6044921875 14.5810546875V27.7626953125Q131.6044921875 28.34375 131.853515625 28.75048828125Q132.1025390625 29.1572265625 132.5673828125 29.3564453125Q132.8994140625 29.505859375 133.2978515625 29.6220703125Q133.6962890625 29.73828125 134.1279296875 29.7880859375Z M154.630859375 30.6513671875Q153.900390625 30.966796875 152.904296875 31.232421875Q151.908203125 31.498046875 150.7958984375 31.498046875Q148.75390625 31.498046875 147.791015625 30.89208984375Q146.828125 30.2861328125 146.4794921875 29.1572265625H146.3798828125Q145.8154296875 29.7216796875 145.29248046875 30.1201171875Q144.76953125 30.5185546875 144.171875 30.80078125Q143.3916015625 31.166015625 142.66943359375 31.34033203125Q141.947265625 31.5146484375 140.65234375 31.5146484375Q138.7265625 31.5146484375 137.365234375 30.37744140625Q136.00390625 29.240234375 136.00390625 27.3642578125Q136.00390625 26.28515625 136.302734375 25.52978515625Q136.6015625 24.7744140625 137.1494140625 24.193359375Q137.6474609375 23.662109375 138.30322265625 23.3134765625Q138.958984375 22.96484375 139.7392578125 22.666015625Q141.2333984375 22.1181640625 143.3251953125 21.52880859375Q145.4169921875 20.939453125 146.3798828125 20.474609375V18.880859375Q146.3798828125 18.4658203125 146.3134765625 17.78515625Q146.2470703125 17.1044921875 146.03125 16.6396484375Q145.798828125 16.1083984375 145.30078125 15.7431640625Q144.802734375 15.3779296875 143.9892578125 15.3779296875Q143.2587890625 15.3779296875 142.76904296875 15.58544921875Q142.279296875 15.79296875 141.98046875 16.0087890625Q142.0302734375 16.3408203125 142.2626953125 17.021484375Q142.4951171875 17.7021484375 142.4951171875 18.3330078125Q142.4951171875 18.615234375 142.345703125 19.03857421875Q142.1962890625 19.4619140625 141.9140625 19.7109375Q141.5322265625 20.04296875 141.05908203125 20.2255859375Q140.5859375 20.408203125 139.6064453125 20.408203125Q138.2119140625 20.408203125 137.498046875 19.73583984375Q136.7841796875 19.0634765625 136.7841796875 17.984375Q136.7841796875 17.0546875 137.52294921875 16.31591796875Q138.26171875 15.5771484375 139.32421875 15.095703125Q140.3701171875 14.59765625 141.7314453125 14.32373046875Q143.0927734375 14.0498046875 144.2548828125 14.0498046875Q145.865234375 14.0498046875 147.2099609375 14.24072265625Q148.5546875 14.431640625 149.6337890625 15.029296875Q150.6630859375 15.6103515625 151.26904296875 16.71435546875Q151.875 17.818359375 151.875 19.5947265625Q151.875 21.470703125 151.80029296875 24.0439453125Q151.7255859375 26.6171875 151.7255859375 27.4306640625Q151.7255859375 28.177734375 151.94970703125 28.609375Q152.173828125 29.041015625 152.638671875 29.2568359375Q152.9208984375 29.3896484375 153.52685546875 29.41455078125Q154.1328125 29.439453125 154.630859375 29.439453125ZM146.3798828125 22.001953125Q145.4501953125 22.3173828125 144.537109375 22.72412109375Q143.6240234375 23.130859375 143.04296875 23.5791015625Q142.4287109375 24.0439453125 142.080078125 24.76611328125Q141.7314453125 25.48828125 141.7314453125 26.4677734375Q141.7314453125 27.7626953125 142.32080078125 28.34375Q142.91015625 28.9248046875 143.7734375 28.9248046875Q144.6865234375 28.9248046875 145.27587890625 28.55126953125Q145.865234375 28.177734375 146.3134765625 27.6298828125Z"/><path d="M128.68 5.21L129.49 7.59L131.87 8.40L129.49 9.21L128.68 11.59L127.87 9.21L125.49 8.40L127.87 7.59Z" fill="var(--brand-gold,#C4A572)"/></svg>