<svg xmlns="http://www.w3.org/2000/svg" viewBox="12 6 396.84 90" role="img" aria-label="Zarparia — Chart your journey.">
  <g transform="translate(-2.92 -15.83) scale(0.11)"><path d="M214.57 255.4C220.49 254.92 226.56 255.28 232.5 255.28C243.17 255.28 253.83 255.28 264.5 255.28C296.83 255.28 329.17 255.28 361.5 255.28C459.5 255.28 557.5 255.28 655.5 255.28C691.83 255.28 728.17 255.28 764.5 255.28C770.5 255.28 776.5 255.28 782.5 255.28C792.01 255.28 801.53 254.76 809.25 261.25C818.82 269.3 818.3 279 818.3 290.5C818.3 299.5 818.3 308.5 818.3 317.5C818.3 367.83 818.3 418.17 818.3 468.5C818.3 509.5 818.3 550.5 818.3 591.5C818.3 615.09 819.39 638.99 817.12 662.5C815.51 679.08 812 695.17 807.59 711.2C801.26 734.2 790.62 756.45 778.37 776.84C745.36 831.74 697.74 875.45 646.33 912.87C633.3 922.35 619.61 930.78 606.18 939.65C585.87 953.05 564.33 965.04 542.75 976.28C536.17 979.71 529.65 983.21 523.01 986.52C519.68 988.17 516.41 990.18 512.89 991.43C502.9 994.97 494.83 990.87 486.05 986.47C481.17 984.04 476.34 981.58 471.54 979C455.98 970.62 440.42 962.29 425.17 953.35C410.57 944.8 396.43 935.5 382.28 926.23C368.68 917.32 355.65 907.63 342.73 897.77C278.07 848.37 217.41 780.43 198.35 699.29C194.8 684.21 192.34 668.96 191.23 653.5C189.74 632.63 190.73 611.41 190.73 590.5C190.73 546.83 190.73 503.17 190.73 459.5C190.73 407.83 190.73 356.17 190.73 304.5C190.73 287.91 186.84 265.32 205.98 257.49C208.71 256.36 211.62 255.64 214.57 255.4ZM213.7 268.35C208.1 269.42 204.5 274.08 203.72 279.5C203.15 283.42 203.49 287.55 203.49 291.5C203.49 298.83 203.49 306.17 203.49 313.5C203.49 361.83 203.49 410.17 203.49 458.5C203.49 503.83 203.49 549.17 203.49 594.5C203.49 629.32 202.21 664.46 211.2 698.44C235.07 788.74 304.13 856.07 378.37 908.09C409 929.55 441.27 948.76 474.39 966.12C480.97 969.57 487.53 973.05 494.19 976.34C499.62 979.03 504.22 981.23 510.22 978.69C518.61 975.14 526.61 970.39 534.66 966.17C551.8 957.18 568.57 947.57 585.17 937.64C643.62 902.68 700.97 859.69 743.09 805.62C765.88 776.37 785.54 743.12 795.56 707.15C799.89 691.61 803.32 675.57 804.69 659.49C806.61 636.93 805.78 614.12 805.78 591.5C805.78 550.5 805.78 509.5 805.78 468.5C805.78 419.83 805.78 371.17 805.78 322.5C805.78 310.83 805.78 299.17 805.78 287.5C805.78 281.6 806.15 275.45 801.29 271.18C797.4 267.77 792.35 268.02 787.5 268.02C778.83 268.02 770.17 268.02 761.5 268.02C726.17 268.02 690.83 268.02 655.5 268.02C555.83 268.02 456.17 268.02 356.5 268.02C324.5 268.02 292.5 268.02 260.5 268.02C250.17 268.02 239.83 268.02 229.5 268.02C224.37 268.02 218.75 267.38 213.7 268.35ZM229.5 293.51C412.83 293.51 596.17 293.51 779.5 293.51C780.84 300.55 780.07 308.3 780.07 315.5C780.07 328.17 780.07 340.83 780.07 353.5C780.07 393.5 780.07 433.5 780.07 473.5C780.07 514.5 780.07 555.5 780.07 596.5C780.07 628.15 781.29 659.34 773.71 690.34C754.15 770.24 692.29 831.46 628.16 878.64C599.55 899.69 569.17 918.52 537.95 935.46C530.15 939.69 522.35 943.93 514.45 947.96C512.14 949.14 506.88 952.74 504.51 952.72C502.17 952.69 496.87 949.09 494.59 947.92C486.68 943.9 478.9 939.64 471.1 935.42C439.94 918.54 409.27 899.83 380.88 878.6C369.1 869.78 357.3 861.01 346.1 851.44C293.53 806.54 247.24 749.75 233.21 680.44C227.56 652.53 228.98 623.82 228.98 595.5C228.98 555.17 228.98 514.83 228.98 474.5C228.98 434.17 228.98 393.83 228.98 353.5C228.98 340.83 228.98 328.17 228.98 315.5C228.98 308.28 228.26 300.6 229.5 293.51ZM665.46 324.03C567.99 324.03 470.52 324.03 373.05 324.03C369.2 360.77 365.35 397.52 361.5 434.26C367.83 434.26 374.17 434.26 380.5 434.26C383.93 426.66 387.21 419.07 391.29 411.76C399.4 397.22 409.68 383.69 421.08 371.58C429.48 362.65 439.94 353.07 451.96 349.49C462.52 346.35 474.56 346.2 485.5 346.02C501.49 345.76 517.5 345.93 533.5 345.93C545.83 345.93 558.17 345.93 570.5 345.93C577.06 345.93 584.5 345 590.84 346.5C584 355.68 577.79 365.4 571.4 374.89C557.86 394.95 544.12 414.91 530.36 434.82C489.6 493.81 449.46 553.23 408.86 612.33C393.38 634.86 377.61 657.22 362.49 679.99C358.51 685.98 354.3 691.81 350.34 697.81C348.98 699.86 346.67 702.18 345.98 704.55C345.17 707.32 345.58 710.64 345.54 713.5C350.59 714.87 356.2 714.3 361.5 714.3C370.83 714.3 380.17 714.3 389.5 714.3C411.83 714.3 434.17 714.3 456.5 714.3C468.28 714.3 480.29 713.65 492.03 714.5C492.03 746.69 492.03 778.88 492.03 811.07C471.57 811.38 445.55 804.52 426.53 796.92C419.29 794.03 409.78 791.34 404.37 785.5C410.94 778.5 417.5 771.5 424.07 764.5C423.72 764.18 423.63 763.6 423.24 763.33C421.88 762.39 419.35 762.12 417.77 761.64C412.69 760.1 407.58 758.58 402.53 756.93C384.72 751.12 366.57 746.3 348.67 740.75C343.32 739.09 337.98 737.41 332.62 735.79C329.73 734.92 327.34 733.79 324.46 734.5C336.45 766.83 348.44 799.17 360.43 831.5C367.79 823.98 375.14 816.46 382.5 808.93C385.31 810.76 387.7 813.24 390.57 814.99C402.98 822.53 422.65 829.79 436.69 833.68C445.26 836.06 454 838.01 462.73 839.65C465.47 840.17 469.76 839.86 472.18 841.36C473.6 842.24 474.38 844.96 475.1 846.4C477.42 851.07 479.84 855.69 482.13 860.38C490.41 877.37 498.89 894.3 507.5 911.13C511.3 906.44 513.43 900.07 516.18 894.67C522.02 883.18 527.92 871.68 533.56 860.08C535.73 855.6 538.01 851.17 540.24 846.72C541.07 845.08 541.91 842.01 543.28 840.79C545.13 839.16 549.02 839.17 551.36 838.71C558.4 837.31 565.49 835.73 572.4 833.78C583.81 830.56 595.21 826.41 606 821.48C611.66 818.89 617.03 815.65 622.5 812.83C629.5 820.3 636.5 827.77 643.5 835.25C656.18 803 668.86 770.75 681.54 738.5C648.18 747.5 614.81 756.5 581.45 765.5C587.94 773.17 594.43 780.83 600.92 788.5C595.1 793.16 586.66 795.63 579.72 798.25C567.67 802.81 555.3 805.93 542.64 808.32C536.39 809.5 529.75 810.99 523.41 810.5C523.41 778.5 523.41 746.5 523.41 714.5C534.7 713.79 546.18 714.3 557.5 714.3C577.83 714.3 598.17 714.3 618.5 714.3C627.17 714.3 635.83 714.3 644.5 714.3C649.41 714.3 654.63 714.85 659.27 713.5C660.72 704.59 661.28 695.48 662.24 686.5C664 670.19 665.52 653.84 667.29 637.53C668.27 628.53 669.21 619.51 670.25 610.51C670.93 604.59 672.35 598.32 671.52 592.44C665.5 592.44 659.48 592.44 653.46 592.44C649.22 599.22 646.56 607.2 642.81 614.31C633.73 631.5 623.21 648.3 610.68 663.2C605.91 668.88 599.98 676.18 593.91 680.42C589.47 683.52 583.92 685.02 578.74 686.34C567.87 689.11 556.65 690.18 545.5 691.14C521.55 693.2 497.52 692.73 473.5 692.7C456.14 692.67 438.58 693.4 421.25 692.5C421.94 688.51 425.02 685.23 427.41 681.88C431.02 676.8 434.4 671.53 437.96 666.41C451.22 647.31 464.02 627.89 477.37 608.86C490.04 590.8 502.2 572.38 514.66 554.18C536.86 521.72 559.2 489.34 581.39 456.87C590.31 443.82 598.99 430.58 608.09 417.65C622.04 397.84 635.22 377.5 649.15 357.69C652.87 352.39 656.39 346.95 660.11 341.65C661.8 339.24 664.61 336.4 665.3 333.49C666 330.57 665.49 327.02 665.46 324.03ZM662.5 448.8C660.76 451.74 659.83 455.02 658.69 458.25C656.07 465.65 653.8 473.19 651.14 480.58C650.19 483.21 648.78 489.62 647 491.47C645.42 493.12 637.21 495.23 634.62 496.17C624.65 499.79 614.49 502.83 604.54 506.5C604.96 506.86 605.17 507.44 605.62 507.77C607.95 509.42 613.37 510.44 616.22 511.37C623.17 513.64 630.01 516.23 636.95 518.52C639.41 519.33 644.67 520.38 646.55 521.91C648.56 523.53 650.24 530.71 651.18 533.37C653.8 540.78 656.13 548.29 658.74 555.71C659.86 558.91 660.78 562.17 662.5 565.1C664.52 560.52 665.83 555.61 667.43 550.86C669.36 545.16 671.47 539.53 673.38 533.83C674.32 530.99 675.71 524.09 677.71 522.13C679.31 520.57 684.96 519.43 687.25 518.67C694.43 516.31 701.5 513.64 708.68 511.27C711.42 510.37 717.09 509.29 719.26 507.68C719.64 507.4 719.72 506.83 720.06 506.5C709.91 502.92 699.6 499.72 689.5 496.01C686.6 494.95 679.16 493.36 677.29 491.22C675.91 489.64 674.21 482.47 673.42 480.11C671.42 474.17 669.23 468.3 667.22 462.36C665.69 457.84 664.45 453.16 662.5 448.8Z" fill="#1a2332" fill-rule="evenodd"/><path d="M213.7 268.35C218.75 267.38 224.37 268.02 229.5 268.02C239.83 268.02 250.17 268.02 260.5 268.02C292.5 268.02 324.5 268.02 356.5 268.02C456.17 268.02 555.83 268.02 655.5 268.02C690.83 268.02 726.17 268.02 761.5 268.02C770.17 268.02 778.83 268.02 787.5 268.02C792.35 268.02 797.4 267.77 801.29 271.18C806.15 275.45 805.78 281.6 805.78 287.5C805.78 299.17 805.78 310.83 805.78 322.5C805.78 371.17 805.78 419.83 805.78 468.5C805.78 509.5 805.78 550.5 805.78 591.5C805.78 614.12 806.61 636.93 804.69 659.49C803.32 675.57 799.89 691.61 795.56 707.15C785.54 743.12 765.88 776.37 743.09 805.62C700.97 859.69 643.62 902.68 585.17 937.64C568.57 947.57 551.8 957.18 534.66 966.17C526.61 970.39 518.61 975.14 510.22 978.69C504.22 981.23 499.62 979.03 494.19 976.34C487.53 973.05 480.97 969.57 474.39 966.12C441.27 948.76 409 929.55 378.37 908.09C304.13 856.07 235.07 788.74 211.2 698.44C202.21 664.46 203.49 629.32 203.49 594.5C203.49 549.17 203.49 503.83 203.49 458.5C203.49 410.17 203.49 361.83 203.49 313.5C203.49 306.17 203.49 298.83 203.49 291.5C203.49 287.55 203.15 283.42 203.72 279.5C204.5 274.08 208.1 269.42 213.7 268.35ZM229.5 293.51C228.26 300.6 228.98 308.28 228.98 315.5C228.98 328.17 228.98 340.83 228.98 353.5C228.98 393.83 228.98 434.17 228.98 474.5C228.98 514.83 228.98 555.17 228.98 595.5C228.98 623.82 227.56 652.53 233.21 680.44C247.24 749.75 293.53 806.54 346.1 851.44C357.3 861.01 369.1 869.78 380.88 878.6C409.27 899.83 439.94 918.54 471.1 935.42C478.9 939.64 486.68 943.9 494.59 947.92C496.87 949.09 502.17 952.69 504.51 952.72C506.88 952.74 512.14 949.14 514.45 947.96C522.35 943.93 530.15 939.69 537.95 935.46C569.17 918.52 599.55 899.69 628.16 878.64C692.29 831.46 754.15 770.24 773.71 690.34C781.29 659.34 780.07 628.15 780.07 596.5C780.07 555.5 780.07 514.5 780.07 473.5C780.07 433.5 780.07 393.5 780.07 353.5C780.07 340.83 780.07 328.17 780.07 315.5C780.07 308.3 780.84 300.55 779.5 293.51C596.17 293.51 412.83 293.51 229.5 293.51ZM665.46 324.03C665.49 327.02 666 330.57 665.3 333.49C664.61 336.4 661.8 339.24 660.11 341.65C656.39 346.95 652.87 352.39 649.15 357.69C635.22 377.5 622.04 397.84 608.09 417.65C598.99 430.58 590.31 443.82 581.39 456.87C559.2 489.34 536.86 521.72 514.66 554.18C502.2 572.38 490.04 590.8 477.37 608.86C464.02 627.89 451.22 647.31 437.96 666.41C434.4 671.53 431.02 676.8 427.41 681.88C425.02 685.23 421.94 688.51 421.25 692.5C438.58 693.4 456.14 692.67 473.5 692.7C497.52 692.73 521.55 693.2 545.5 691.14C556.65 690.18 567.87 689.11 578.74 686.34C583.92 685.02 589.47 683.52 593.91 680.42C599.98 676.18 605.91 668.88 610.68 663.2C623.21 648.3 633.73 631.5 642.81 614.31C646.56 607.2 649.22 599.22 653.46 592.44C659.48 592.44 665.5 592.44 671.52 592.44C672.35 598.32 670.93 604.59 670.25 610.51C669.21 619.51 668.27 628.53 667.29 637.53C665.52 653.84 664 670.19 662.24 686.5C661.28 695.48 660.72 704.59 659.27 713.5C654.63 714.85 649.41 714.3 644.5 714.3C635.83 714.3 627.17 714.3 618.5 714.3C598.17 714.3 577.83 714.3 557.5 714.3C546.18 714.3 534.7 713.79 523.41 714.5C523.41 746.5 523.41 778.5 523.41 810.5C529.75 810.99 536.39 809.5 542.64 808.32C555.3 805.93 567.67 802.81 579.72 798.25C586.66 795.63 595.1 793.16 600.92 788.5C594.43 780.83 587.94 773.17 581.45 765.5C614.81 756.5 648.18 747.5 681.54 738.5C668.86 770.75 656.18 803 643.5 835.25C636.5 827.77 629.5 820.3 622.5 812.83C617.03 815.65 611.66 818.89 606 821.48C595.21 826.41 583.81 830.56 572.4 833.78C565.49 835.73 558.4 837.31 551.36 838.71C549.02 839.17 545.13 839.16 543.28 840.79C541.91 842.01 541.07 845.08 540.24 846.72C538.01 851.17 535.73 855.6 533.56 860.08C527.92 871.68 522.02 883.18 516.18 894.67C513.43 900.07 511.3 906.44 507.5 911.13C498.89 894.3 490.41 877.37 482.13 860.38C479.84 855.69 477.42 851.07 475.1 846.4C474.38 844.96 473.6 842.24 472.18 841.36C469.76 839.86 465.47 840.17 462.73 839.65C454 838.01 445.26 836.06 436.69 833.68C422.65 829.79 402.98 822.53 390.57 814.99C387.7 813.24 385.31 810.76 382.5 808.93C375.14 816.46 367.79 823.98 360.43 831.5C348.44 799.17 336.45 766.83 324.46 734.5C327.34 733.79 329.73 734.92 332.62 735.79C337.98 737.41 343.32 739.09 348.67 740.75C366.57 746.3 384.72 751.12 402.53 756.93C407.58 758.58 412.69 760.1 417.77 761.64C419.35 762.12 421.88 762.39 423.24 763.33C423.63 763.6 423.72 764.18 424.07 764.5C417.5 771.5 410.94 778.5 404.37 785.5C409.78 791.34 419.29 794.03 426.53 796.92C445.55 804.52 471.57 811.38 492.03 811.07C492.03 778.88 492.03 746.69 492.03 714.5C480.29 713.65 468.28 714.3 456.5 714.3C434.17 714.3 411.83 714.3 389.5 714.3C380.17 714.3 370.83 714.3 361.5 714.3C356.2 714.3 350.59 714.87 345.54 713.5C345.58 710.64 345.17 707.32 345.98 704.55C346.67 702.18 348.98 699.86 350.34 697.81C354.3 691.81 358.51 685.98 362.49 679.99C377.61 657.22 393.38 634.86 408.86 612.33C449.46 553.23 489.6 493.81 530.36 434.82C544.12 414.91 557.86 394.95 571.4 374.89C577.79 365.4 584 355.68 590.84 346.5C584.5 345 577.06 345.93 570.5 345.93C558.17 345.93 545.83 345.93 533.5 345.93C517.5 345.93 501.49 345.76 485.5 346.02C474.56 346.2 462.52 346.35 451.96 349.49C439.94 353.07 429.48 362.65 421.08 371.58C409.68 383.69 399.4 397.22 391.29 411.76C387.21 419.07 383.93 426.66 380.5 434.26C374.17 434.26 367.83 434.26 361.5 434.26C365.35 397.52 369.2 360.77 373.05 324.03C470.52 324.03 567.99 324.03 665.46 324.03ZM662.5 448.8C664.45 453.16 665.69 457.84 667.22 462.36C669.23 468.3 671.42 474.17 673.42 480.11C674.21 482.47 675.91 489.64 677.29 491.22C679.16 493.36 686.6 494.95 689.5 496.01C699.6 499.72 709.91 502.92 720.06 506.5C719.72 506.83 719.64 507.4 719.26 507.68C717.09 509.29 711.42 510.37 708.68 511.27C701.5 513.64 694.43 516.31 687.25 518.67C684.96 519.43 679.31 520.57 677.71 522.13C675.71 524.09 674.32 530.99 673.38 533.83C671.47 539.53 669.36 545.16 667.43 550.86C665.83 555.61 664.52 560.52 662.5 565.1C660.78 562.17 659.86 558.91 658.74 555.71C656.13 548.29 653.8 540.78 651.18 533.37C650.24 530.71 648.56 523.53 646.55 521.91C644.67 520.38 639.41 519.33 636.95 518.52C630.01 516.23 623.17 513.64 616.22 511.37C613.37 510.44 607.95 509.42 605.62 507.77C605.17 507.44 604.96 506.86 604.54 506.5C614.49 502.83 624.65 499.79 634.62 496.17C637.21 495.23 645.42 493.12 647 491.47C648.78 489.62 650.19 483.21 651.14 480.58C653.8 473.19 656.07 465.65 658.69 458.25C659.83 455.02 660.76 451.74 662.5 448.8Z" fill="#c1a374" fill-rule="evenodd"/></g>
  <path d="M144.60 40.56L147.02 40.56L145.47 56L102.55 56L102.55 54.03L132.10 13.24L122.08 13.24Q119.02 13.24 117.66 13.41Q116.31 13.59 115.12 14.14Q113.73 14.65 112.05 16.86Q110.38 19.07 107.58 24.22L104.96 24.22L106.38 10.27L146.15 10.27L146.15 12.24L116.60 53.04L128.10 53.04Q133.52 53.04 135.47 52.60Q137.42 52.17 138.32 51.04Q140.16 48.81 141.72 46.15Q143.28 43.50 144.60 40.56M186.21 52.97L186.21 55.32Q184.79 55.94 182.86 56.45Q180.92 56.97 178.76 56.97Q174.80 56.97 172.93 55.79Q171.06 54.61 170.38 52.42L170.19 52.42Q169.10 53.52 168.08 54.29Q167.07 55.07 165.91 55.61Q164.39 56.32 162.99 56.66Q161.59 57 159.07 57Q155.33 57 152.69 54.79Q150.05 52.58 150.05 48.94Q150.05 46.85 150.63 45.38Q151.21 43.92 152.27 42.79Q153.24 41.76 154.51 41.08Q155.79 40.40 157.30 39.82Q160.20 38.76 164.26 37.61Q168.32 36.47 170.19 35.57L170.19 32.47Q170.19 31.67 170.06 30.35Q169.93 29.03 169.51 28.12Q169.06 27.09 168.10 26.38Q167.13 25.67 165.55 25.67Q164.13 25.67 163.18 26.08Q162.23 26.48 161.65 26.90Q161.75 27.54 162.20 28.87Q162.65 30.19 162.65 31.41Q162.65 31.96 162.36 32.78Q162.07 33.60 161.52 34.09Q160.78 34.73 159.86 35.08Q158.94 35.44 157.04 35.44Q154.34 35.44 152.95 34.13Q151.56 32.83 151.56 30.73Q151.56 28.93 153 27.50Q154.43 26.06 156.50 25.13Q158.53 24.16 161.17 23.63Q163.81 23.10 166.07 23.10Q169.19 23.10 171.80 23.47Q174.41 23.84 176.51 25Q178.51 26.13 179.68 28.27Q180.86 30.41 180.86 33.86Q180.86 37.50 180.71 42.50Q180.57 47.49 180.57 49.07Q180.57 50.52 181 51.36Q181.44 52.20 182.34 52.62Q182.89 52.87 184.06 52.92Q185.24 52.97 186.21 52.97M170.06 49.46L170.19 38.53Q168.39 39.15 166.61 39.94Q164.84 40.72 163.71 41.59Q162.52 42.50 161.84 43.90Q161.17 45.30 161.17 47.20Q161.17 49.72 162.31 50.84Q163.46 51.97 165.13 51.97Q166.90 51.97 168.05 51.25Q169.19 50.52 170.06 49.46M220.79 29.93Q220.79 32.38 219.27 34.23Q217.76 36.08 215.28 36.08Q212.92 36.08 211.30 34.89Q209.67 33.70 209.67 31.38Q209.67 30.25 209.83 29.62Q209.99 28.99 210.12 28.45Q208.64 28.51 206.99 29.48Q205.35 30.44 204.09 32.06L204.09 49.75Q204.09 50.88 204.45 51.62Q204.80 52.36 205.64 52.78Q206.35 53.13 207.94 53.37Q209.54 53.62 210.25 53.65L210.25 56L188.69 56L188.69 53.65Q189.50 53.58 190.32 53.47Q191.14 53.36 191.72 53.16Q192.75 52.81 193.14 52.07Q193.52 51.33 193.52 50.13L193.52 31.38Q193.52 30.22 192.98 29.30Q192.43 28.38 191.65 27.83Q191.07 27.45 190.19 27.19Q189.30 26.93 188.24 26.83L188.24 24.48L203.61 23.64L204.09 24.13L204.09 28.80L204.22 28.80Q206.45 26.22 208.94 24.76Q211.44 23.29 214.15 23.29Q217.15 23.29 218.97 25.14Q220.79 27 220.79 29.93M262.26 40.31Q262.26 47.11 257.72 51.97Q253.17 56.84 246.21 56.84Q243.12 56.84 241.19 56.21Q239.25 55.58 238 54.68L237.74 54.68L237.74 63.73Q237.74 64.86 238.24 65.70Q238.74 66.54 239.64 66.92Q240.51 67.28 242.10 67.57Q243.70 67.86 244.76 67.92L244.76 70.31L221.50 70.31L221.50 67.92Q222.30 67.86 223.53 67.68Q224.75 67.50 225.36 67.31Q226.39 66.96 226.77 66.10Q227.14 65.25 227.14 64.15L227.14 31.19Q227.04 30.12 226.64 29.32Q226.23 28.51 225.36 27.90Q224.72 27.48 223.66 27.21Q222.59 26.93 221.56 26.83L221.56 24.48L237.25 23.64L237.74 24.06L237.74 27.64L238 27.71Q240.12 25.55 242.72 24.35Q245.31 23.16 247.86 23.16Q254.53 23.16 258.40 27.88Q262.26 32.60 262.26 40.31M250.69 40.43Q250.69 38.02 250.34 35.81Q249.98 33.60 249.08 31.86Q248.21 30.12 246.78 29.09Q245.34 28.06 243.28 28.06Q241.19 28.06 239.93 28.78Q238.67 29.51 237.74 30.67L237.74 48.94Q237.93 49.59 238.48 50.60Q239.03 51.62 239.58 52.23Q240.38 53.10 241.41 53.52Q242.44 53.94 243.67 53.94Q246.86 53.94 248.78 50.51Q250.69 47.07 250.69 40.43M303.25 52.97L303.25 55.32Q301.84 55.94 299.90 56.45Q297.97 56.97 295.81 56.97Q291.85 56.97 289.98 55.79Q288.11 54.61 287.43 52.42L287.24 52.42Q286.14 53.52 285.13 54.29Q284.11 55.07 282.95 55.61Q281.44 56.32 280.04 56.66Q278.63 57 276.12 57Q272.38 57 269.74 54.79Q267.10 52.58 267.10 48.94Q267.10 46.85 267.68 45.38Q268.26 43.92 269.32 42.79Q270.29 41.76 271.56 41.08Q272.83 40.40 274.35 39.82Q277.25 38.76 281.31 37.61Q285.37 36.47 287.24 35.57L287.24 32.47Q287.24 31.67 287.11 30.35Q286.98 29.03 286.56 28.12Q286.11 27.09 285.14 26.38Q284.18 25.67 282.60 25.67Q281.18 25.67 280.23 26.08Q279.28 26.48 278.70 26.90Q278.79 27.54 279.25 28.87Q279.70 30.19 279.70 31.41Q279.70 31.96 279.41 32.78Q279.12 33.60 278.57 34.09Q277.83 34.73 276.91 35.08Q275.99 35.44 274.09 35.44Q271.38 35.44 270 34.13Q268.61 32.83 268.61 30.73Q268.61 28.93 270.05 27.50Q271.48 26.06 273.54 25.13Q275.57 24.16 278.21 23.63Q280.86 23.10 283.11 23.10Q286.24 23.10 288.85 23.47Q291.46 23.84 293.55 25Q295.55 26.13 296.73 28.27Q297.91 30.41 297.91 33.86Q297.91 37.50 297.76 42.50Q297.62 47.49 297.62 49.07Q297.62 50.52 298.05 51.36Q298.49 52.20 299.39 52.62Q299.94 52.87 301.11 52.92Q302.29 52.97 303.25 52.97M287.11 49.46L287.24 38.53Q285.43 39.15 283.66 39.94Q281.89 40.72 280.76 41.59Q279.57 42.50 278.89 43.90Q278.21 45.30 278.21 47.20Q278.21 49.72 279.36 50.84Q280.50 51.97 282.18 51.97Q283.95 51.97 285.10 51.25Q286.24 50.52 287.11 49.46M337.83 29.93Q337.83 32.38 336.32 34.23Q334.80 36.08 332.32 36.08Q329.97 36.08 328.34 34.89Q326.72 33.70 326.72 31.38Q326.72 30.25 326.88 29.62Q327.04 28.99 327.17 28.45Q325.68 28.51 324.04 29.48Q322.40 30.44 321.14 32.06L321.14 49.75Q321.14 50.88 321.50 51.62Q321.85 52.36 322.69 52.78Q323.40 53.13 324.99 53.37Q326.59 53.62 327.30 53.65L327.30 56L305.74 56L305.74 53.65Q306.54 53.58 307.36 53.47Q308.19 53.36 308.77 53.16Q309.80 52.81 310.18 52.07Q310.57 51.33 310.57 50.13L310.57 31.38Q310.57 30.22 310.02 29.30Q309.47 28.38 308.70 27.83Q308.12 27.45 307.23 27.19Q306.35 26.93 305.29 26.83L305.29 24.48L320.66 23.64L321.14 24.13L321.14 28.80L321.27 28.80Q323.49 26.22 325.99 24.76Q328.49 23.29 331.20 23.29Q334.19 23.29 336.01 25.14Q337.83 27 337.83 29.93M360.42 53.65L360.42 56L340.06 56L340.06 53.65Q340.90 53.58 341.70 53.49Q342.51 53.39 343.09 53.16Q344.12 52.78 344.54 52.05Q344.96 51.33 344.96 50.13L344.96 31.38Q344.96 30.25 344.44 29.40Q343.92 28.54 343.15 28.03Q342.57 27.64 341.40 27.29Q340.22 26.93 339.25 26.83L339.25 24.48L355.04 23.64L355.53 24.13L355.53 49.72Q355.53 50.84 356.01 51.63Q356.49 52.42 357.40 52.81Q358.04 53.10 358.81 53.33Q359.59 53.55 360.42 53.65M400.22 52.97L400.22 55.32Q398.81 55.94 396.87 56.45Q394.94 56.97 392.78 56.97Q388.82 56.97 386.95 55.79Q385.08 54.61 384.40 52.42L384.21 52.42Q383.11 53.52 382.10 54.29Q381.08 55.07 379.92 55.61Q378.41 56.32 377.01 56.66Q375.60 57 373.09 57Q369.35 57 366.71 54.79Q364.07 52.58 364.07 48.94Q364.07 46.85 364.65 45.38Q365.23 43.92 366.29 42.79Q367.26 41.76 368.53 41.08Q369.80 40.40 371.32 39.82Q374.22 38.76 378.28 37.61Q382.34 36.47 384.21 35.57L384.21 32.47Q384.21 31.67 384.08 30.35Q383.95 29.03 383.53 28.12Q383.08 27.09 382.11 26.38Q381.15 25.67 379.57 25.67Q378.15 25.67 377.20 26.08Q376.25 26.48 375.67 26.90Q375.76 27.54 376.22 28.87Q376.67 30.19 376.67 31.41Q376.67 31.96 376.38 32.78Q376.09 33.60 375.54 34.09Q374.80 34.73 373.88 35.08Q372.96 35.44 371.06 35.44Q368.35 35.44 366.97 34.13Q365.58 32.83 365.58 30.73Q365.58 28.93 367.02 27.50Q368.45 26.06 370.51 25.13Q372.54 24.16 375.18 23.63Q377.83 23.10 380.08 23.10Q383.21 23.10 385.82 23.47Q388.43 23.84 390.52 25Q392.52 26.13 393.70 28.27Q394.88 30.41 394.88 33.86Q394.88 37.50 394.73 42.50Q394.58 47.49 394.58 49.07Q394.58 50.52 395.02 51.36Q395.46 52.20 396.36 52.62Q396.91 52.87 398.08 52.92Q399.26 52.97 400.22 52.97M384.08 49.46L384.21 38.53Q382.40 39.15 380.63 39.94Q378.86 40.72 377.73 41.59Q376.54 42.50 375.86 43.90Q375.18 45.30 375.18 47.20Q375.18 49.72 376.33 50.84Q377.47 51.97 379.15 51.97Q380.92 51.97 382.06 51.25Q383.21 50.52 384.08 49.46" fill="#1a2332"/>
  <g transform="translate(258.12 -57.11) scale(0.14)"><path d="M662.5 448.8C664.45 453.16 665.69 457.84 667.22 462.36C669.23 468.3 671.42 474.17 673.42 480.11C674.21 482.47 675.91 489.64 677.29 491.22C679.16 493.36 686.6 494.95 689.5 496.01C699.6 499.72 709.91 502.92 720.06 506.5C719.72 506.83 719.64 507.4 719.26 507.68C717.09 509.29 711.42 510.37 708.68 511.27C701.5 513.64 694.43 516.31 687.25 518.67C684.96 519.43 679.31 520.57 677.71 522.13C675.71 524.09 674.32 530.99 673.38 533.83C671.47 539.53 669.36 545.16 667.43 550.86C665.83 555.61 664.52 560.52 662.5 565.1C660.78 562.17 659.86 558.91 658.74 555.71C656.13 548.29 653.8 540.78 651.18 533.37C650.24 530.71 648.56 523.53 646.55 521.91C644.67 520.38 639.41 519.33 636.95 518.52C630.01 516.23 623.17 513.64 616.22 511.37C613.37 510.44 607.95 509.42 605.62 507.77C605.17 507.44 604.96 506.86 604.54 506.5C614.49 502.83 624.65 499.79 634.62 496.17C637.21 495.23 645.42 493.12 647 491.47C648.78 489.62 650.19 483.21 651.14 480.58C653.8 473.19 656.07 465.65 658.69 458.25C659.83 455.02 660.76 451.74 662.5 448.8Z" fill="#c1a374"/></g>
  <path d="M132.51 88.48Q130.65 88.48 128.94 87.75Q127.24 87.02 125.92 85.64Q124.61 84.26 123.84 82.28Q123.06 80.29 123.06 77.80Q123.06 75.31 123.82 73.29Q124.58 71.26 125.93 69.79Q127.27 68.34 129.08 67.55Q130.90 66.76 132.96 66.76Q134.50 66.76 135.75 67.14Q136.99 67.52 138.12 68.21L138.72 67.21L139.89 67.21L140.02 74.63L138.82 74.63Q138.59 73.54 138.12 72.27Q137.65 71.01 137.02 70.13Q136.32 69.13 135.35 68.57Q134.38 68 133.14 68Q131.72 68 130.50 68.63Q129.27 69.26 128.38 70.50Q127.53 71.68 127.05 73.51Q126.56 75.34 126.56 77.60Q126.56 79.59 127.07 81.25Q127.57 82.92 128.51 84.18Q129.45 85.42 130.73 86.13Q132.01 86.83 133.59 86.83Q134.78 86.83 135.78 86.45Q136.77 86.08 137.50 85.47Q138.24 84.82 138.79 84Q139.35 83.18 139.70 82.21L140.80 82.74Q139.54 85.83 137.46 87.16Q135.38 88.48 132.51 88.48M157.92 87.03L157.92 88L150.83 88L150.83 87.03Q151.17 87 151.58 86.97Q151.99 86.95 152.26 86.86Q152.67 86.73 152.86 86.40Q153.06 86.07 153.06 85.54L153.06 78.11Q153.06 76.57 152.34 75.74Q151.61 74.90 150.57 74.90Q149.81 74.90 149.16 75.15Q148.51 75.39 147.99 75.74Q147.50 76.11 147.23 76.47Q146.97 76.84 146.82 77.09L146.82 85.39Q146.82 85.89 147.02 86.21Q147.22 86.54 147.63 86.71Q147.95 86.86 148.29 86.93Q148.64 87 149.05 87.03L149.05 88L141.96 88L141.96 87.03Q142.29 87 142.66 86.97Q143.03 86.93 143.28 86.86Q143.69 86.73 143.89 86.40Q144.10 86.07 144.10 85.54L144.10 68.72Q144.10 68.22 143.87 67.73Q143.64 67.23 143.28 66.98Q143.01 66.79 142.35 66.71Q141.68 66.63 141.27 66.60L141.27 65.66L146.62 65.32L146.82 65.54L146.82 75.62L146.88 75.62Q147.36 75.14 147.76 74.77Q148.15 74.39 148.80 73.98Q149.36 73.63 150.11 73.40Q150.86 73.16 151.80 73.16Q153.74 73.16 154.78 74.38Q155.82 75.61 155.82 77.91L155.82 85.42Q155.82 85.93 156 86.25Q156.18 86.56 156.61 86.74Q156.94 86.87 157.21 86.94Q157.49 87 157.92 87.03M173.38 86.80L173.38 87.74Q172.69 87.99 172.17 88.14Q171.65 88.29 170.99 88.29Q169.85 88.29 169.17 87.76Q168.49 87.22 168.30 86.20L168.21 86.20Q167.26 87.25 166.16 87.81Q165.07 88.37 163.54 88.37Q161.91 88.37 160.86 87.37Q159.81 86.37 159.81 84.76Q159.81 83.93 160.05 83.27Q160.28 82.61 160.75 82.08Q161.12 81.64 161.72 81.30Q162.32 80.95 162.85 80.75Q163.51 80.50 165.52 79.83Q167.53 79.15 168.24 78.77L168.24 77.32Q168.24 77.13 168.16 76.59Q168.08 76.05 167.81 75.56Q167.52 75.02 166.98 74.62Q166.45 74.22 165.47 74.22Q164.79 74.22 164.22 74.44Q163.64 74.67 163.40 74.92Q163.40 75.21 163.54 75.78Q163.68 76.35 163.68 76.84Q163.68 77.35 163.22 77.78Q162.76 78.20 161.94 78.20Q161.21 78.20 160.86 77.68Q160.52 77.16 160.52 76.52Q160.52 75.84 160.99 75.23Q161.47 74.61 162.23 74.13Q162.89 73.72 163.83 73.43Q164.77 73.15 165.66 73.15Q166.89 73.15 167.81 73.31Q168.72 73.48 169.47 74.04Q170.21 74.58 170.60 75.51Q170.99 76.44 170.99 77.91Q170.99 80 170.95 81.62Q170.90 83.24 170.90 85.16Q170.90 85.73 171.10 86.07Q171.30 86.40 171.71 86.64Q171.93 86.77 172.40 86.78Q172.88 86.80 173.38 86.80M168.18 85.06L168.27 80Q167.02 80.37 166.08 80.72Q165.15 81.07 164.34 81.60Q163.61 82.10 163.18 82.78Q162.76 83.46 162.76 84.40Q162.76 85.61 163.40 86.18Q164.03 86.75 165.01 86.75Q166.05 86.75 166.85 86.25Q167.64 85.74 168.18 85.06M185.87 75.42Q185.87 76.16 185.51 76.74Q185.14 77.32 184.38 77.32Q183.56 77.32 183.13 76.90Q182.70 76.47 182.70 75.96Q182.70 75.64 182.75 75.37Q182.80 75.11 182.84 74.85Q182.15 74.85 181.23 75.40Q180.31 75.96 179.66 76.98L179.66 85.39Q179.66 85.91 179.86 86.23Q180.06 86.55 180.48 86.71Q180.85 86.86 181.43 86.93Q182.01 87 182.43 87.03L182.43 88L174.81 88L174.81 87.03Q175.15 87 175.51 86.97Q175.87 86.95 176.13 86.86Q176.54 86.73 176.74 86.40Q176.94 86.07 176.94 85.54L176.94 76.62Q176.94 76.16 176.73 75.72Q176.51 75.29 176.13 75.02Q175.85 74.85 175.47 74.77Q175.09 74.68 174.65 74.66L174.65 73.70L179.46 73.38L179.66 73.59L179.66 75.62L179.74 75.62Q180.64 74.44 181.76 73.82Q182.87 73.21 183.79 73.21Q184.72 73.21 185.30 73.81Q185.87 74.41 185.87 75.42M196.03 86.30L196.03 87.37Q195.07 87.77 194.22 88.04Q193.37 88.31 192.14 88.31Q190.33 88.31 189.59 87.39Q188.85 86.48 188.85 84.81L188.85 75.02L186.24 75.02L186.24 73.62L188.91 73.62L188.91 69.12L191.57 69.12L191.57 73.62L195.72 73.62L195.72 75.02L191.60 75.02L191.60 83.09Q191.60 84 191.67 84.61Q191.73 85.22 191.98 85.67Q192.22 86.10 192.69 86.32Q193.15 86.54 193.95 86.54Q194.31 86.54 195.02 86.47Q195.73 86.40 196.03 86.30M203.60 92.72Q203.60 91.98 204 91.52Q204.40 91.06 205 91.06Q205.47 91.06 205.81 91.24Q206.15 91.41 206.41 91.69Q206.63 91.91 206.88 92.29Q207.13 92.67 207.28 92.92Q208.01 92.53 209.03 90.86Q210.04 89.19 210.50 87.93Q209.11 84.46 207.98 81.72Q206.85 78.98 205.62 76.05Q205.34 75.37 204.68 75Q204.02 74.63 203.36 74.52L203.36 73.56L209.96 73.56L209.96 74.58Q209.52 74.60 208.90 74.77Q208.29 74.93 208.29 75.15Q208.29 75.24 208.35 75.45Q208.42 75.65 208.51 75.87Q209.06 77.32 210.21 80.05Q211.35 82.79 211.98 84.43Q212.64 82.86 213.35 81.18Q214.06 79.50 214.94 77.22Q215.04 76.94 215.23 76.45Q215.42 75.96 215.42 75.61Q215.42 75.23 214.75 74.90Q214.09 74.57 213.49 74.49L213.49 73.56L218.85 73.56L218.85 74.46Q218.41 74.54 217.69 74.97Q216.97 75.40 216.62 76.19Q214.88 80.24 213.52 83.56Q212.17 86.89 211.46 88.45Q210.54 90.50 209.82 91.65Q209.09 92.80 208.40 93.46Q207.73 94.08 207.18 94.29Q206.63 94.50 206.04 94.50Q204.90 94.50 204.25 93.96Q203.60 93.42 203.60 92.72M233.54 80.63Q233.54 82.16 233.06 83.63Q232.57 85.10 231.68 86.13Q230.67 87.30 229.34 87.87Q228 88.44 226.35 88.44Q224.97 88.44 223.73 87.92Q222.48 87.40 221.51 86.40Q220.56 85.42 220 84.01Q219.43 82.59 219.43 80.84Q219.43 77.45 221.40 75.30Q223.37 73.15 226.57 73.15Q229.60 73.15 231.57 75.19Q233.54 77.23 233.54 80.63M230.51 80.66Q230.51 79.56 230.29 78.34Q230.07 77.12 229.63 76.27Q229.16 75.36 228.40 74.81Q227.64 74.26 226.54 74.26Q225.41 74.26 224.61 74.82Q223.81 75.37 223.32 76.34Q222.85 77.23 222.66 78.38Q222.47 79.52 222.47 80.59Q222.47 81.99 222.69 83.19Q222.92 84.38 223.42 85.32Q223.92 86.26 224.67 86.79Q225.42 87.33 226.54 87.33Q228.37 87.33 229.44 85.55Q230.51 83.78 230.51 80.66M251.12 86.78L251.12 87.74L246.42 88.06L246.20 87.85L246.20 86.02L246.11 86.02Q245.76 86.39 245.32 86.81Q244.88 87.22 244.31 87.56Q243.65 87.96 243.03 88.16Q242.42 88.37 241.29 88.37Q239.37 88.37 238.37 87.11Q237.36 85.86 237.36 83.47L237.36 76.56Q237.36 76.03 237.17 75.67Q236.97 75.31 236.59 75.05Q236.32 74.88 235.93 74.79Q235.53 74.71 235.09 74.68L235.09 73.73L239.91 73.38L240.13 73.59L240.13 83.62Q240.13 85.19 240.83 85.98Q241.54 86.77 242.52 86.77Q243.33 86.77 243.96 86.52Q244.58 86.27 245.01 85.93Q245.41 85.63 245.71 85.28Q246.01 84.94 246.17 84.65L246.17 76.46Q246.17 75.97 245.96 75.60Q245.76 75.23 245.39 74.96Q245.13 74.79 244.61 74.75Q244.09 74.71 243.44 74.68L243.44 73.73L248.69 73.38L248.91 73.59L248.91 85.06Q248.91 85.55 249.11 85.91Q249.32 86.26 249.68 86.51Q249.95 86.67 250.31 86.72Q250.68 86.77 251.12 86.78M263.95 75.42Q263.95 76.16 263.58 76.74Q263.22 77.32 262.46 77.32Q261.64 77.32 261.20 76.90Q260.77 76.47 260.77 75.96Q260.77 75.64 260.82 75.37Q260.87 75.11 260.92 74.85Q260.23 74.85 259.31 75.40Q258.38 75.96 257.74 76.98L257.74 85.39Q257.74 85.91 257.94 86.23Q258.13 86.55 258.56 86.71Q258.93 86.86 259.50 86.93Q260.08 87 260.51 87.03L260.51 88L252.89 88L252.89 87.03Q253.23 87 253.59 86.97Q253.95 86.95 254.21 86.86Q254.62 86.73 254.82 86.40Q255.01 86.07 255.01 85.54L255.01 76.62Q255.01 76.16 254.80 75.72Q254.59 75.29 254.21 75.02Q253.93 74.85 253.55 74.77Q253.17 74.68 252.73 74.66L252.73 73.70L257.53 73.38L257.74 73.59L257.74 75.62L257.81 75.62Q258.72 74.44 259.83 73.82Q260.95 73.21 261.87 73.21Q262.79 73.21 263.37 73.81Q263.95 74.41 263.95 75.42M277.68 73.59L277.68 87.12Q277.68 88.73 277.21 90.15Q276.74 91.56 275.96 92.48Q275.13 93.46 274.08 93.98Q273.03 94.50 271.77 94.50Q270.47 94.50 269.81 93.98Q269.15 93.46 269.15 92.76Q269.15 92.13 269.50 91.65Q269.85 91.18 270.53 91.18Q270.98 91.18 271.33 91.37Q271.68 91.56 271.95 91.87Q272.18 92.13 272.42 92.52Q272.67 92.91 272.89 93.27Q274 93.27 274.48 91.93Q274.95 90.58 274.95 87.60L274.95 76.74Q274.95 76.27 274.72 75.83Q274.50 75.40 274.13 75.14Q273.90 74.98 273.01 74.82Q272.12 74.66 271.67 74.61L271.67 73.70L277.47 73.38L277.68 73.59M277.90 67.67Q277.90 68.50 277.35 69.13Q276.80 69.75 275.99 69.75Q275.24 69.75 274.69 69.15Q274.15 68.56 274.15 67.80Q274.15 66.99 274.69 66.39Q275.24 65.79 275.99 65.79Q276.83 65.79 277.36 66.36Q277.90 66.92 277.90 67.67M295.25 80.63Q295.25 82.16 294.77 83.63Q294.29 85.10 293.39 86.13Q292.38 87.30 291.05 87.87Q289.72 88.44 288.06 88.44Q286.68 88.44 285.44 87.92Q284.19 87.40 283.23 86.40Q282.28 85.42 281.71 84.01Q281.15 82.59 281.15 80.84Q281.15 77.45 283.12 75.30Q285.09 73.15 288.28 73.15Q291.31 73.15 293.28 75.19Q295.25 77.23 295.25 80.63M292.22 80.66Q292.22 79.56 292 78.34Q291.78 77.12 291.34 76.27Q290.87 75.36 290.11 74.81Q289.35 74.26 288.25 74.26Q287.12 74.26 286.33 74.82Q285.53 75.37 285.03 76.34Q284.56 77.23 284.37 78.38Q284.18 79.52 284.18 80.59Q284.18 81.99 284.41 83.19Q284.63 84.38 285.13 85.32Q285.63 86.26 286.38 86.79Q287.14 87.33 288.25 87.33Q290.08 87.33 291.15 85.55Q292.22 83.78 292.22 80.66M312.83 86.78L312.83 87.74L308.13 88.06L307.91 87.85L307.91 86.02L307.82 86.02Q307.47 86.39 307.03 86.81Q306.59 87.22 306.02 87.56Q305.36 87.96 304.75 88.16Q304.13 88.37 303 88.37Q301.08 88.37 300.08 87.11Q299.08 85.86 299.08 83.47L299.08 76.56Q299.08 76.03 298.88 75.67Q298.68 75.31 298.30 75.05Q298.04 74.88 297.64 74.79Q297.25 74.71 296.81 74.68L296.81 73.73L301.63 73.38L301.85 73.59L301.85 83.62Q301.85 85.19 302.55 85.98Q303.25 86.77 304.23 86.77Q305.04 86.77 305.67 86.52Q306.30 86.27 306.72 85.93Q307.12 85.63 307.42 85.28Q307.72 84.94 307.88 84.65L307.88 76.46Q307.88 75.97 307.68 75.60Q307.47 75.23 307.10 74.96Q306.84 74.79 306.32 74.75Q305.80 74.71 305.16 74.68L305.16 73.73L310.40 73.38L310.62 73.59L310.62 85.06Q310.62 85.55 310.83 85.91Q311.03 86.26 311.40 86.51Q311.66 86.67 312.03 86.72Q312.39 86.77 312.83 86.78M325.66 75.42Q325.66 76.16 325.30 76.74Q324.93 77.32 324.17 77.32Q323.35 77.32 322.92 76.90Q322.49 76.47 322.49 75.96Q322.49 75.64 322.54 75.37Q322.59 75.11 322.63 74.85Q321.94 74.85 321.02 75.40Q320.10 75.96 319.45 76.98L319.45 85.39Q319.45 85.91 319.65 86.23Q319.85 86.55 320.27 86.71Q320.64 86.86 321.22 86.93Q321.80 87 322.22 87.03L322.22 88L314.60 88L314.60 87.03Q314.94 87 315.30 86.97Q315.66 86.95 315.92 86.86Q316.33 86.73 316.53 86.40Q316.73 86.07 316.73 85.54L316.73 76.62Q316.73 76.16 316.52 75.72Q316.30 75.29 315.92 75.02Q315.64 74.85 315.26 74.77Q314.88 74.68 314.44 74.66L314.44 73.70L319.25 73.38L319.45 73.59L319.45 75.62L319.53 75.62Q320.43 74.44 321.55 73.82Q322.66 73.21 323.58 73.21Q324.51 73.21 325.09 73.81Q325.66 74.41 325.66 75.42M342.85 87.03L342.85 88L335.77 88L335.77 87.03Q336.11 87 336.51 86.97Q336.91 86.95 337.18 86.86Q337.59 86.73 337.79 86.40Q337.98 86.07 337.98 85.54L337.98 78.11Q337.98 76.57 337.26 75.74Q336.53 74.90 335.49 74.90Q334.72 74.90 334.07 75.15Q333.43 75.39 332.93 75.74Q332.45 76.08 332.16 76.46Q331.88 76.85 331.74 77.09L331.74 85.39Q331.74 85.89 331.95 86.21Q332.15 86.54 332.56 86.71Q332.87 86.86 333.23 86.93Q333.59 87 333.97 87.03L333.97 88L326.89 88L326.89 87.03Q327.23 87 327.59 86.97Q327.95 86.95 328.21 86.86Q328.62 86.73 328.82 86.40Q329.02 86.07 329.02 85.54L329.02 76.62Q329.02 76.12 328.81 75.70Q328.59 75.29 328.21 75.02Q327.93 74.85 327.55 74.77Q327.17 74.68 326.73 74.66L326.73 73.70L331.54 73.38L331.74 73.59L331.74 75.62L331.82 75.62Q332.17 75.27 332.70 74.78Q333.22 74.29 333.69 73.98Q334.23 73.63 334.98 73.40Q335.73 73.16 336.67 73.16Q338.75 73.16 339.75 74.46Q340.75 75.75 340.75 77.91L340.75 85.42Q340.75 85.93 340.93 86.25Q341.10 86.56 341.53 86.74Q341.88 86.89 342.14 86.95Q342.39 87 342.85 87.03M356.43 83.97L357.45 84.60Q356.54 86.33 355.02 87.36Q353.50 88.38 351.52 88.38Q349.78 88.38 348.46 87.77Q347.15 87.15 346.30 86.10Q345.45 85.04 345.04 83.63Q344.62 82.23 344.62 80.66Q344.62 79.25 345.07 77.90Q345.51 76.54 346.38 75.46Q347.21 74.42 348.45 73.78Q349.69 73.15 351.23 73.15Q352.81 73.15 353.94 73.64Q355.06 74.14 355.77 75.01Q356.44 75.83 356.77 76.94Q357.10 78.05 357.10 79.36L357.10 80.32L347.53 80.32Q347.53 81.75 347.81 82.90Q348.08 84.06 348.66 84.94Q349.23 85.79 350.16 86.28Q351.08 86.77 352.35 86.77Q353.66 86.77 354.60 86.16Q355.55 85.55 356.43 83.97M347.53 79.09L354.21 79.09Q354.21 78.27 354.07 77.34Q353.94 76.40 353.63 75.77Q353.29 75.09 352.71 74.67Q352.12 74.25 351.20 74.25Q349.66 74.25 348.64 75.53Q347.62 76.81 347.53 79.09M358.02 92.72Q358.02 91.98 358.43 91.52Q358.83 91.06 359.43 91.06Q359.90 91.06 360.23 91.24Q360.57 91.41 360.83 91.69Q361.05 91.91 361.30 92.29Q361.55 92.67 361.70 92.92Q362.43 92.53 363.45 90.86Q364.47 89.19 364.92 87.93Q363.53 84.46 362.40 81.72Q361.27 78.98 360.04 76.05Q359.77 75.37 359.11 75Q358.45 74.63 357.79 74.52L357.79 73.56L364.38 73.56L364.38 74.58Q363.94 74.60 363.33 74.77Q362.71 74.93 362.71 75.15Q362.71 75.24 362.78 75.45Q362.84 75.65 362.93 75.87Q363.49 77.32 364.63 80.05Q365.77 82.79 366.40 84.43Q367.06 82.86 367.77 81.18Q368.48 79.50 369.36 77.22Q369.46 76.94 369.65 76.45Q369.84 75.96 369.84 75.61Q369.84 75.23 369.18 74.90Q368.51 74.57 367.91 74.49L367.91 73.56L373.27 73.56L373.27 74.46Q372.83 74.54 372.11 74.97Q371.40 75.40 371.04 76.19Q369.30 80.24 367.95 83.56Q366.59 86.89 365.89 88.45Q364.97 90.50 364.24 91.65Q363.52 92.80 362.83 93.46Q362.15 94.08 361.60 94.29Q361.05 94.50 360.47 94.50Q359.33 94.50 358.67 93.96Q358.02 93.42 358.02 92.72M378.91 86.32Q378.91 87.14 378.32 87.71Q377.72 88.29 376.90 88.29Q376.08 88.29 375.49 87.71Q374.90 87.14 374.90 86.32Q374.90 85.50 375.49 84.90Q376.08 84.31 376.90 84.31Q377.72 84.31 378.32 84.90Q378.91 85.50 378.91 86.32" fill="#7a6e5f"/>
</svg>
