<svg xmlns="http://www.w3.org/2000/svg" viewBox="0 0 1014 1183"><path fill="var(--brand-tile,#1a2332)" fill-rule="evenodd" d="M346.93 111.13C453.65 111.13 560.37 111.13 667.09 111.12C690.35 158.04 713.61 204.96 736.87 251.88C737.41 253.47 737.96 255.06 738.5 256.65C721.57 250.9 704.1 247.8 686.5 244.94C666.27 241.65 645.92 239.66 625.5 237.87C609.85 236.5 594.19 235.65 578.5 234.76C564.84 233.98 550.81 233.07 537.15 233.67C535.43 233.58 533.72 233.49 532 233.4C527.33 233.34 522.67 233.28 518 233.22C511.63 233.22 505.27 233.21 498.9 233.2C493.27 233.27 487.63 233.33 482 233.4C480.31 233.49 478.62 233.58 476.93 233.68C463.22 233.09 449.19 234.01 435.5 234.76C419.81 235.62 404.15 236.53 388.5 237.88C368.08 239.64 347.74 241.7 327.5 244.96C309.9 247.78 292.43 250.95 275.5 256.65C276.01 255.13 276.51 253.61 277.02 252.09C300.32 205.1 323.63 158.12 346.93 111.13ZM507.5 123.97C507.19 124.32 506.63 124.41 506.37 124.8C505.14 126.64 503.89 132.16 503.08 134.52C501.2 139.98 499.3 145.42 497.42 150.88C496.67 153.06 496.27 156.46 494.75 158.25C492.71 160.66 487.63 161.27 484.75 162.29C477.23 164.97 466.22 167.66 459.59 171.5C467.48 174.55 475.6 177.12 483.61 179.83C486.21 180.71 492.83 182.12 494.55 183.93C496.16 185.63 496.51 189.13 497.26 191.27C499.42 197.42 501.61 203.57 503.67 209.75C504.64 212.66 505.37 216.5 507.5 218.58C510.27 209.66 513.45 200.84 516.52 192.03C517.35 189.65 517.91 185.13 519.95 183.48C521.5 182.23 528.15 180.61 530.4 179.85C538.34 177.16 546.91 174.97 554.5 171.46C547.27 167.41 537.22 165.09 529.27 162.26C526.84 161.4 521.57 160.44 519.78 158.75C517.9 156.98 516.47 150.43 515.6 147.8C512.97 139.83 510.02 131.97 507.5 123.97ZM480.09 276.33C486.36 276.27 492.62 276.21 498.89 276.15C505.22 276.18 511.54 276.2 517.87 276.22C523.23 276.26 528.6 276.29 533.96 276.33C539.31 276.42 544.65 276.51 550 276.6C564.97 276.79 579.94 276.99 594.91 277.19C596.6 277.22 598.3 277.26 600 277.3C601 277.31 602 277.33 603 277.34C603.17 277.56 603.33 277.77 603.5 277.98C604.33 277.9 605.17 277.82 606 277.74C613.7 277.88 621.4 278.03 629.1 278.17C631.07 278.21 633.03 278.25 635 278.28C635.72 278.3 636.44 278.31 637.17 278.33C639.78 278.44 642.39 278.56 645 278.68C650.38 278.83 655.77 278.98 661.15 279.13C666.83 279.38 672.5 279.64 678.18 279.9C679.78 279.97 681.37 280.04 682.97 280.11C688.69 280.37 694.4 280.64 700.12 280.91C701.72 280.98 703.32 281.04 704.93 281.11C708.69 282.4 713.41 281.97 717.5 282.27C727.49 283 737.52 283.34 747.5 284.15C779.97 286.77 812.36 289.81 844.54 294.82C856.32 296.66 868.03 298.73 879.52 301.99C885.2 303.6 892.48 305.41 896.88 309.62C899.62 312.24 899.02 316.04 899.02 319.5C899.02 327.17 899.02 334.83 899.02 342.5C899.02 373.83 899.02 405.17 899.02 436.5C899.02 488.83 899.02 541.17 899.02 593.5C899.02 630.1 900.62 667.22 894.86 703.48C890.93 728.3 884.64 752.42 876.66 776.23C873.81 784.76 870.38 793.13 866.89 801.41C865.25 805.3 863.09 809.09 862 813.15C858.5 819.42 855 825.69 851.5 831.96C846.39 829.88 841.49 827.27 836.4 825.12C819.71 818.04 802.53 811.86 785.3 806.25C726.37 787.08 665.08 775.77 603.5 769.91C583.22 767.98 562.89 766.32 542.5 765.84C535.27 765.67 524.28 764.26 517.56 765.7C511.37 765.57 505.19 765.43 499 765.29C469.43 764.99 439.89 767.21 410.5 769.92C348.93 775.6 287.61 787.16 228.72 806.28C211.49 811.87 194.3 818.05 177.63 825.14C172.54 827.3 167.64 829.92 162.5 831.94C159.06 825.67 155.63 819.39 152.19 813.12C150.86 809.08 148.82 805.28 147.17 801.35C143.97 793.76 141.04 786.08 138.17 778.36C129.2 754.23 123.3 728.83 119.22 703.45C113.41 667.22 115 630.08 115 593.5C115 541.17 115 488.83 115 436.5C115 405.17 115 373.83 115 342.5C115 334.83 115 327.17 115 319.5C115 316.06 114.45 312.3 117.14 309.67C121.48 305.43 128.85 303.61 134.49 302.01C145.98 298.73 157.69 296.67 169.47 294.83C201.65 289.82 234.03 286.82 266.5 284.15C276.48 283.33 286.51 283.02 296.5 282.28C300.6 281.98 305.33 282.4 309.1 281.11C310.7 281.04 312.31 280.98 313.91 280.91C319.61 280.64 325.32 280.38 331.03 280.11C332.62 280.04 334.22 279.97 335.82 279.9C341.51 279.64 347.19 279.39 352.88 279.13C358.58 278.97 364.29 278.82 370 278.66C372 278.61 374 278.57 376 278.52C377 278.44 378 278.36 379 278.29C380.98 278.25 382.96 278.21 384.94 278.17C392.63 278.03 400.31 277.89 408 277.74C409.33 277.6 410.67 277.46 412 277.32C412.33 277.32 412.67 277.32 413 277.32C413.17 277.51 413.33 277.7 413.5 277.9C415.37 277.66 417.24 277.42 419.11 277.19C434.07 276.99 449.04 276.79 464 276.59C469.36 276.51 474.73 276.42 480.09 276.33ZM664.79 324.17C567.52 324.17 470.25 324.17 372.97 324.17C369.08 360.99 365.18 397.81 361.28 434.63C367.69 434.63 374.09 434.63 380.5 434.63C387.77 412.18 405.98 386.76 422.52 370.03C429.33 363.14 436.82 356.35 445.65 352.13C459.25 345.64 482.39 346.2 497.5 346.11C517.5 346 537.5 346.09 557.5 346.09C564.17 346.09 570.83 346.1 577.5 346.11C581.64 346.12 585.86 345.89 589.94 346.5C588.1 349.89 585.74 352.92 583.58 356.12C579.17 362.68 574.68 369.2 570.16 375.69C554.27 398.52 538.61 421.56 523.04 444.61C484.8 501.23 446.12 557.59 407.42 613.9C391.67 636.83 375.98 659.8 360.33 682.79C356.82 687.95 353.25 693.08 349.76 698.26C348.42 700.25 346.14 702.59 345.5 704.92C344.72 707.75 345.22 711.33 345.5 714.19C449.83 714.19 554.17 714.19 658.5 714.19C660.46 694.61 662.59 675.04 664.87 655.5C665.49 650.21 665.51 644.82 666.22 639.54C667.42 630.56 668.07 621.51 669.2 612.52C670 606.09 671.52 598.9 670.51 592.52C664.51 592.52 658.5 592.52 652.5 592.52C648.44 599.39 645.36 607.83 641.57 615.09C633.15 631.23 623.27 647.14 611.56 661.09C606.13 667.55 600.54 675.17 593.58 680.07C581.02 688.91 557.47 689.8 542.5 691.1C519.56 693.1 496.53 692.61 473.5 692.61C455.85 692.61 437.99 693.41 420.37 692.5C421.48 689.17 423.95 686.33 425.93 683.37C430.33 676.81 434.87 670.34 439.38 663.87C452.26 645.36 464.89 626.68 477.5 607.99C519.45 545.77 562.53 484.28 604.56 422.09C619.47 400.03 634.62 378.13 649.6 356.13C653.25 350.78 656.95 345.47 660.58 340.11C661.94 338.12 664.26 335.78 664.79 333.41C665.45 330.52 664.95 327.09 664.79 324.17ZM498.77 803.91C498.84 909.84 498.92 1015.77 499 1121.7C496.37 1120.43 493.74 1119.15 491.11 1117.87C488.21 1114.8 483.48 1112.88 479.79 1110.67C473.55 1106.94 467.2 1103.25 461 1099.48C438.87 1085.98 417.32 1071.3 396.08 1056.42C355.63 1028.09 317.1 996.27 282.36 961.14C256.5 934.99 231.48 907.68 211.76 876.5C212.16 876.19 212.32 875.62 212.75 875.36C214.54 874.27 217.41 874.15 219.41 873.72C223.09 872.92 226.84 871.98 230.46 870.94C243.37 867.23 256.6 864.71 269.53 861.1C282.03 857.61 294.78 855.17 307.29 851.74C341.91 842.25 377.08 834.7 411.7 825.26C416.83 823.86 422.04 822.82 427.2 821.57C435.37 819.6 443.41 817.18 451.59 815.25C456.49 814.09 467.05 812.4 470.79 809.95C473.47 809.31 476.16 808.67 478.85 808.03C479.17 807.98 479.5 807.92 479.83 807.86C481.05 807.75 482.28 807.64 483.5 807.53C483.61 807.33 483.71 807.13 483.82 806.92C484.87 806.65 485.92 806.37 486.98 806.1C490.91 805.37 494.84 804.64 498.77 803.91ZM518.02 804.01C521.04 804.7 524.06 805.39 527.07 806.08C528.07 806.35 529.07 806.63 530.07 806.9C530.39 806.97 530.72 807.03 531.04 807.1C532.35 807.39 533.67 807.69 534.98 807.98C536.34 808.32 537.7 808.66 539.06 808.99C543.06 811.42 553.27 812.99 558.36 814.29C572.72 817.95 587.14 821.34 601.48 825.04C646.43 836.64 691.61 847.24 736.5 859.08C751.85 863.13 767.36 866.56 782.7 870.69C786.67 871.75 790.69 872.79 794.69 873.72C796.62 874.16 799.53 874.32 801.24 875.35C801.67 875.61 801.81 876.19 802.2 876.5C800.57 879.53 798.44 882.15 796.52 885.01C792.37 891.18 788.16 897.22 783.54 903.06C776.51 911.95 769.35 920.78 761.9 929.36C755.4 936.86 748.31 943.82 741.58 951.1C721.64 972.65 699.47 992.66 676.7 1011.16C654.35 1029.31 631.73 1047.25 607.92 1063.45C590.21 1075.5 572.35 1087.27 554.24 1098.72C547.25 1103.14 539.98 1107.15 532.9 1111.4C529.61 1113.38 525.42 1115.11 522.9 1117.89C521.64 1118.58 520.38 1119.28 519.13 1119.98C517.99 1118.8 518.88 1120.82 517.93 1119.27C516.96 1117.68 517.61 1114.3 517.61 1112.5C517.61 1108.17 517.61 1103.83 517.61 1099.5C517.61 1080.17 517.61 1060.83 517.61 1041.5C517.61 988.5 517.61 935.5 517.61 882.5C517.61 865.5 517.61 848.5 517.61 831.5C517.61 822.7 516.63 812.59 518.02 804.01Z"/><path fill="var(--brand-gold,#c1a374)" fill-rule="evenodd" d="M346.93 111.13C323.63 158.12 300.32 205.1 277.02 252.09C270.74 253.56 264.46 255.03 258.17 256.5C283.68 208.17 309.19 159.83 334.7 111.5C338.78 111.38 342.86 111.25 346.93 111.13ZM667.09 111.12C671.2 111.25 675.3 111.37 679.41 111.5C704.92 159.83 730.43 208.17 755.94 256.5C749.58 254.96 743.22 253.42 736.87 251.88C713.61 204.96 690.35 158.04 667.09 111.12ZM507.5 123.97C510.02 131.97 512.97 139.83 515.6 147.8C516.47 150.43 517.9 156.98 519.78 158.75C521.57 160.44 526.84 161.4 529.27 162.26C537.22 165.09 547.27 167.41 554.5 171.46C546.91 174.97 538.34 177.16 530.4 179.85C528.15 180.61 521.5 182.23 519.95 183.48C517.91 185.13 517.35 189.65 516.52 192.03C513.45 200.84 510.27 209.66 507.5 218.58C505.37 216.5 504.64 212.66 503.67 209.75C501.61 203.57 499.42 197.42 497.26 191.27C496.51 189.13 496.16 185.63 494.55 183.93C492.83 182.12 486.21 180.71 483.61 179.83C475.6 177.12 467.48 174.55 459.59 171.5C466.22 167.66 477.23 164.97 484.75 162.29C487.63 161.27 492.71 160.66 494.75 158.25C496.27 156.46 496.67 153.06 497.42 150.88C499.3 145.42 501.2 139.98 503.08 134.52C503.89 132.16 505.14 126.64 506.37 124.8C506.63 124.41 507.19 124.32 507.5 123.97ZM498.9 233.2C505.27 233.21 511.63 233.22 518 233.22C517.96 247.56 517.91 261.89 517.87 276.22C511.54 276.2 505.22 276.18 498.89 276.15C498.89 261.84 498.9 247.52 498.9 233.2ZM309.1 281.11C305.33 282.4 300.6 281.98 296.5 282.28C286.51 283.02 276.48 283.33 266.5 284.15C234.03 286.82 201.65 289.82 169.47 294.83C157.69 296.67 145.98 298.73 134.49 302.01C128.85 303.61 121.48 305.43 117.14 309.67C114.45 312.3 115 316.06 115 319.5C115 327.17 115 334.83 115 342.5C115 373.83 115 405.17 115 436.5C115 488.83 115 541.17 115 593.5C115 630.08 113.41 667.22 119.22 703.45C123.3 728.83 129.2 754.23 138.17 778.36C141.04 786.08 143.97 793.76 147.17 801.35C148.82 805.28 150.86 809.08 152.19 813.12C145.3 815.98 138.4 818.84 131.5 821.7C103.47 777.15 85.92 721.75 81.27 669.49C79.97 654.89 80.02 640.15 80.02 625.5C80.02 609.83 80.02 594.17 80.02 578.5C80.02 532.17 80.02 485.83 80.02 439.5C80.02 407.5 80.02 375.5 80.02 343.5C80.02 335.5 80.02 327.5 80.02 319.5C80.02 316.39 79.27 312.45 81.42 309.91C84.93 305.75 92.21 303.96 97.21 302.61C110.48 299.01 123.87 296.78 137.44 294.73C175.53 288.99 214.06 286.1 252.5 283.69C264.17 282.96 275.83 282.37 287.5 281.66C294.56 281.23 302.11 280.17 309.1 281.11ZM704.93 281.11C711.89 280.16 719.45 281.22 726.5 281.65C738.17 282.37 749.83 282.93 761.5 283.68C799.93 286.14 838.5 288.88 876.57 294.72C890.14 296.8 903.52 299.01 916.8 302.59C921.82 303.95 929.07 305.73 932.61 309.88C934.77 312.41 934 316.39 934 319.5C934 327.5 934 335.5 934 343.5C934 375.17 934 406.83 934 438.5C934 488.17 934 537.83 934 587.5C934 614.77 935.06 642.3 932.84 669.5C929.81 706.71 919.66 743.37 905.2 777.68C898.95 792.5 891.76 808.47 882.5 821.67C875.67 818.83 868.83 815.99 862 813.15C863.09 809.09 865.25 805.3 866.89 801.41C870.38 793.13 873.81 784.76 876.66 776.23C884.64 752.42 890.93 728.3 894.86 703.48C900.62 667.22 899.02 630.1 899.02 593.5C899.02 541.17 899.02 488.83 899.02 436.5C899.02 405.17 899.02 373.83 899.02 342.5C899.02 334.83 899.02 327.17 899.02 319.5C899.02 316.04 899.62 312.24 896.88 309.62C892.48 305.41 885.2 303.6 879.52 301.99C868.03 298.73 856.32 296.66 844.54 294.82C812.36 289.81 779.97 286.77 747.5 284.15C737.52 283.34 727.49 283 717.5 282.27C713.41 281.97 708.69 282.4 704.93 281.11ZM664.79 324.17C664.95 327.09 665.45 330.52 664.79 333.41C664.26 335.78 661.94 338.12 660.58 340.11C656.95 345.47 653.25 350.78 649.6 356.13C634.62 378.13 619.47 400.03 604.56 422.09C562.53 484.28 519.45 545.77 477.5 607.99C464.89 626.68 452.26 645.36 439.38 663.87C434.87 670.34 430.33 676.81 425.93 683.37C423.95 686.33 421.48 689.17 420.37 692.5C437.99 693.41 455.85 692.61 473.5 692.61C496.53 692.61 519.56 693.1 542.5 691.1C557.47 689.8 581.02 688.91 593.58 680.07C600.54 675.17 606.13 667.55 611.56 661.09C623.27 647.14 633.15 631.23 641.57 615.09C645.36 607.83 648.44 599.39 652.5 592.52C658.5 592.52 664.51 592.52 670.51 592.52C671.52 598.9 670 606.09 669.2 612.52C668.07 621.51 667.42 630.56 666.22 639.54C665.51 644.82 665.49 650.21 664.87 655.5C662.59 675.04 660.46 694.61 658.5 714.19C554.17 714.19 449.83 714.19 345.5 714.19C345.22 711.33 344.72 707.75 345.5 704.92C346.14 702.59 348.42 700.25 349.76 698.26C353.25 693.08 356.82 687.95 360.33 682.79C375.98 659.8 391.67 636.83 407.42 613.9C446.12 557.59 484.8 501.23 523.04 444.61C538.61 421.56 554.27 398.52 570.16 375.69C574.68 369.2 579.17 362.68 583.58 356.12C585.74 352.92 588.1 349.89 589.94 346.5C585.86 345.89 581.64 346.12 577.5 346.11C570.83 346.1 564.17 346.09 557.5 346.09C537.5 346.09 517.5 346 497.5 346.11C482.39 346.2 459.25 345.64 445.65 352.13C436.82 356.35 429.33 363.14 422.52 370.03C405.98 386.76 387.77 412.18 380.5 434.63C374.09 434.63 367.69 434.63 361.28 434.63C365.18 397.81 369.08 360.99 372.97 324.17C470.25 324.17 567.52 324.17 664.79 324.17ZM499 765.29C505.19 765.43 511.37 765.57 517.56 765.7C517.71 778.47 517.87 791.24 518.02 804.01C516.63 812.59 517.61 822.7 517.61 831.5C517.61 848.5 517.61 865.5 517.61 882.5C517.61 935.5 517.61 988.5 517.61 1041.5C517.61 1060.83 517.61 1080.17 517.61 1099.5C517.61 1103.83 517.61 1108.17 517.61 1112.5C517.61 1114.3 516.96 1117.68 517.93 1119.27C518.88 1120.82 517.99 1118.8 519.13 1119.98C518.51 1120.66 518.23 1121.35 517.24 1121.69C514.35 1122.7 502.41 1122.11 499 1121.7C498.92 1015.77 498.84 909.84 498.77 803.91C498.84 791.04 498.92 778.17 499 765.29ZM539.06 808.99C543.82 808.85 548.88 810.65 553.57 811.75C556.89 812.53 560.24 813.08 563.54 813.9C570.12 815.55 576.85 816.56 583.44 818.15C591.75 820.17 600.13 822.23 608.52 823.89C619.24 826.01 629.85 828.59 640.51 830.95C650.13 833.08 659.87 834.8 669.45 837.13C674.48 838.36 679.6 839.72 684.69 840.68C698.43 843.29 712.01 846.75 725.67 849.71C739.64 852.73 753.66 855.65 767.54 858.93C785.49 863.17 803.65 866.56 821.6 870.81C826.22 871.91 830.89 872.91 835.54 873.86C838.47 874.47 841.44 874.56 843.73 876.5C823.89 903.23 800.59 927.07 776.1 949.58C727.07 994.65 672.42 1032.53 615.68 1067.17C593.79 1080.54 571.48 1093.51 548.57 1105.04C542.6 1108.05 536.71 1111.21 530.75 1114.25C528.12 1115.6 525.74 1117.26 522.9 1117.89C525.42 1115.11 529.61 1113.38 532.9 1111.4C539.98 1107.15 547.25 1103.14 554.24 1098.72C572.35 1087.27 590.21 1075.5 607.92 1063.45C631.73 1047.25 654.35 1029.31 676.7 1011.16C699.47 992.66 721.64 972.65 741.58 951.1C748.31 943.82 755.4 936.86 761.9 929.36C769.35 920.78 776.51 911.95 783.54 903.06C788.16 897.22 792.37 891.18 796.52 885.01C798.44 882.15 800.57 879.53 802.2 876.5C801.81 876.19 801.67 875.61 801.24 875.35C799.53 874.32 796.62 874.16 794.69 873.72C790.69 872.79 786.67 871.75 782.7 870.69C767.36 866.56 751.85 863.13 736.5 859.08C691.61 847.24 646.43 836.64 601.48 825.04C587.14 821.34 572.72 817.95 558.36 814.29C553.27 812.99 543.06 811.42 539.06 808.99ZM470.79 809.95C467.05 812.4 456.49 814.09 451.59 815.25C443.41 817.18 435.37 819.6 427.2 821.57C422.04 822.82 416.83 823.86 411.7 825.26C377.08 834.7 341.91 842.25 307.29 851.74C294.78 855.17 282.03 857.61 269.53 861.1C256.6 864.71 243.37 867.23 230.46 870.94C226.84 871.98 223.09 872.92 219.41 873.72C217.41 874.15 214.54 874.27 212.75 875.36C212.32 875.62 212.16 876.19 211.76 876.5C231.48 907.68 256.5 934.99 282.36 961.14C317.1 996.27 355.63 1028.09 396.08 1056.42C417.32 1071.3 438.87 1085.98 461 1099.48C467.2 1103.25 473.55 1106.94 479.79 1110.67C483.48 1112.88 488.21 1114.8 491.11 1117.87C486.52 1116.85 482.16 1113.79 478.01 1111.52C472.81 1108.66 467.38 1106.28 462.25 1103.29C456.92 1100.18 451.15 1097.74 445.76 1094.71C434.89 1088.61 424.11 1082.41 413.35 1076.11C351.16 1039.69 290.77 998.71 237.92 949.57C220.79 933.64 204.4 917.15 188.8 899.72C184.53 894.94 180.73 889.77 176.8 884.71C174.74 882.07 171.65 879.18 170.5 876.14C270.6 854.08 370.69 832.01 470.79 809.95Z"/></svg>