<?xml version="1.0" encoding="UTF-8"?>
<svg xmlns="http://www.w3.org/2000/svg" viewBox="0 0 1015 1182" width="1015" height="1182">
<path d="M332.5 110.97C447.49 110.97 562.49 110.97 677.48 110.97C703.18 159.15 728.89 207.32 754.59 255.5C747.79 255.07 740.98 251.75 734.29 250.32C720.8 247.43 707.1 245.25 693.44 243.27C659.36 238.32 624.85 236.42 590.5 234.18C551.86 231.65 512.19 231.73 473.5 232.73C426.41 233.96 379.28 235.38 332.5 241.13C313.46 243.47 294.35 246.3 275.58 250.24C268.74 251.68 262.1 254.49 255.22 255.5C280.98 207.32 306.74 159.15 332.5 110.97ZM507.5 123.64C502.9 130.64 501.08 140.77 498.28 148.74C497.28 151.59 496.6 156.72 494.25 158.76C492.49 160.28 489.1 160.74 486.94 161.46C479.95 163.8 465.12 167.39 459.84 171.5C467.8 174.22 475.73 177.1 483.75 179.67C486.75 180.63 492.5 181.49 494.68 183.81C496.54 185.8 497.04 190.01 497.95 192.51C500.44 199.37 503.46 213.33 507.5 218.64C510.45 210.65 513.17 202.49 515.81 194.39C516.78 191.42 517.64 185.62 519.98 183.5C522.23 181.45 527.46 180.7 530.33 179.75C538.42 177.1 546.47 174.32 554.5 171.5C548.09 166.88 536.3 164.65 528.56 161.87C526.07 160.97 521.87 160.45 519.9 158.58C517.58 156.37 516.74 150.67 515.77 147.65C513.19 139.62 510.46 131.54 507.5 123.64ZM882.5 820.86C861.73 811.1 839.44 804.8 817.66 797.79C773.14 783.46 726.69 774.77 680.55 767.75C583 752.89 482.71 751.59 384.52 761.27C363.07 763.39 341.81 766.78 320.5 769.94C279.1 776.09 237.27 785.01 197.36 797.81C175.53 804.81 153.45 811.37 132.5 820.83C126.39 814.18 122.45 804.19 118.37 796.17C107.39 774.57 98.47 751.35 92.58 727.84C86.96 705.35 82.69 682.7 81.24 659.5C79.65 634.31 80.83 608.73 80.83 583.5C80.83 533.83 80.83 484.17 80.83 434.5C80.83 403.5 80.83 372.5 80.83 341.5C80.83 333.83 80.83 326.17 80.83 318.5C80.83 315.32 80.09 311.48 82.6 309.07C86.18 305.64 91.84 304.29 96.4 302.82C106.87 299.45 117.71 297.9 128.49 295.92C168.06 288.65 208.48 287.21 248.5 283.77C295.63 279.71 343.21 278.89 390.5 277.75C477.53 275.66 564.47 275.96 651.5 278.17C681.52 278.94 711.51 280.95 741.5 282.17C771.2 283.38 800.94 285.99 830.5 288.92C848.85 290.74 867.51 292.17 885.61 295.74C896.97 297.97 908.41 299.44 919.47 303.06C923.74 304.46 929.94 305.91 932.94 309.58C935.46 312.67 934.23 323.31 934.23 327.5C934.23 343.17 934.23 358.83 934.23 374.5C934.23 436.17 934.23 497.83 934.23 559.5C934.23 580.5 934.23 601.5 934.23 622.5C934.23 635.12 934.69 647.91 933.76 660.5C931.16 695.43 923.9 730.02 911.26 762.73C905.57 777.48 899.48 792.37 891.61 806.12C888.85 810.94 886.38 816.92 882.5 820.86ZM373.5 324.08C369.5 360.8 365.5 397.51 361.5 434.23C367.83 434.23 374.17 434.23 380.5 434.23C384.2 426.52 387.24 418.55 391.61 411.15C403.84 390.43 421.48 365.35 442.98 353.49C455.47 346.59 470.52 346.27 484.5 346.04C505.16 345.69 525.84 345.88 546.5 345.88C555.83 345.88 565.17 345.87 574.5 345.89C579.7 345.9 585.19 345.41 590.23 346.5C584.22 356.36 577.21 365.68 570.67 375.2C557.9 393.78 545.14 412.33 532.51 431.02C491.82 491.2 450.11 550.72 409.44 610.92C393.86 633.98 377.92 656.76 362.34 679.81C359.14 684.53 347.43 699.49 346.17 703.67C345.24 706.78 345.84 710.68 345.96 713.9C450.24 713.9 554.52 713.9 658.79 713.9C663.03 673.29 667.26 632.68 671.5 592.07C665.17 592.07 658.83 592.07 652.5 592.07C643.55 614.93 630.34 636.54 615.54 656.05C609.25 664.33 601.69 674.71 592.77 680.3C582.08 687.01 568.65 687.53 556.55 689.25C527.19 693.41 497.09 691.99 467.5 691.99C457.17 691.99 446.83 691.99 436.5 691.99C431.13 691.99 425.35 692.57 420.13 691.5C428.11 681.84 434.64 670.59 441.7 660.22C454.78 641.01 467.71 621.65 481.09 602.64C521.8 544.81 561.05 485.88 600.98 427.51C616.69 404.55 632.14 381.43 648.08 358.64C651.54 353.68 663.14 338.85 664.71 334.23C665.74 331.19 665.12 327.25 665.06 324.08C567.88 324.08 470.69 324.08 373.5 324.08ZM495.06 803.01C495.06 908.91 495.06 1014.8 495.06 1120.7C471.22 1110.1 446.53 1095.64 423.78 1082.7C363.47 1048.38 305.62 1009.74 252.96 964.54C232.22 946.74 212.21 927.94 193.92 907.6C184.87 897.54 174.47 887.11 167.5 875.46C276.69 851.31 385.88 827.16 495.06 803.01ZM841.23 875.5C831.19 890.67 818.18 904 805.77 917.26C787.13 937.18 766.87 955.97 745.67 973.14C697.14 1012.46 646.01 1047.11 592.1 1078.59C574.04 1089.13 555.57 1098.72 537.18 1108.65C529.76 1112.65 522.23 1117.03 514.5 1120.43C511.73 1112.28 513.5 1098.48 513.5 1089.5C513.5 1067.5 513.5 1045.5 513.5 1023.5C513.5 950.17 513.46 876.83 513.5 803.5C520.73 803.1 528.53 806.25 535.65 807.72C553.72 811.46 571.63 816.05 589.73 819.64C642.98 830.17 695.58 843.82 748.76 854.61C770.16 858.95 791.31 864.33 812.7 868.67C819.32 870.01 836.25 872.48 841.23 875.5Z" fill="#1a2332" fill-rule="evenodd" stroke="#1a2332" stroke-width="0.25" stroke-linejoin="round"/>
<path d="M507.5 123.64C510.46 131.54 513.19 139.62 515.77 147.65C516.74 150.67 517.58 156.37 519.9 158.58C521.87 160.45 526.07 160.97 528.56 161.87C536.3 164.65 548.09 166.88 554.5 171.5C546.47 174.32 538.42 177.1 530.33 179.75C527.46 180.7 522.23 181.45 519.98 183.5C517.64 185.62 516.78 191.42 515.81 194.39C513.17 202.49 510.45 210.65 507.5 218.64C503.46 213.33 500.44 199.37 497.95 192.51C497.04 190.01 496.54 185.8 494.68 183.81C492.5 181.49 486.75 180.63 483.75 179.67C475.73 177.1 467.8 174.22 459.84 171.5C465.12 167.39 479.95 163.8 486.94 161.46C489.1 160.74 492.49 160.28 494.25 158.76C496.6 156.72 497.28 151.59 498.28 148.74C501.08 140.77 502.9 130.64 507.5 123.64ZM373.5 324.08C470.69 324.08 567.88 324.08 665.06 324.08C665.12 327.25 665.74 331.19 664.71 334.23C663.14 338.85 651.54 353.68 648.08 358.64C632.14 381.43 616.69 404.55 600.98 427.51C561.05 485.88 521.8 544.81 481.09 602.64C467.71 621.65 454.78 641.01 441.7 660.22C434.64 670.59 428.11 681.84 420.13 691.5C425.35 692.57 431.13 691.99 436.5 691.99C446.83 691.99 457.17 691.99 467.5 691.99C497.09 691.99 527.19 693.41 556.55 689.25C568.65 687.53 582.08 687.01 592.77 680.3C601.69 674.71 609.25 664.33 615.54 656.05C630.34 636.54 643.55 614.93 652.5 592.07C658.83 592.07 665.17 592.07 671.5 592.07C667.26 632.68 663.03 673.29 658.79 713.9C554.52 713.9 450.24 713.9 345.96 713.9C345.84 710.68 345.24 706.78 346.17 703.67C347.43 699.49 359.14 684.53 362.34 679.81C377.92 656.76 393.86 633.98 409.44 610.92C450.11 550.72 491.82 491.2 532.51 431.02C545.14 412.33 557.9 393.78 570.67 375.2C577.21 365.68 584.22 356.36 590.23 346.5C585.19 345.41 579.7 345.9 574.5 345.89C565.17 345.87 555.83 345.88 546.5 345.88C525.84 345.88 505.16 345.69 484.5 346.04C470.52 346.27 455.47 346.59 442.98 353.49C421.48 365.35 403.84 390.43 391.61 411.15C387.24 418.55 384.2 426.52 380.5 434.23C374.17 434.23 367.83 434.23 361.5 434.23C365.5 397.51 369.5 360.8 373.5 324.08Z" fill="#c1a374" fill-rule="evenodd" stroke="#c1a374" stroke-width="0.25" stroke-linejoin="round"/>
</svg>